{
.appVersion = "3343";
.formatVersion = 3;
axes = (
{
name = Weight;
tag = wght;
}
);
classes = (
{
automatic = 1;
code = "A Aacute Abreve Acircumflex Agrave Atilde B C D Dcroat E Eacute Ecircumflex Egrave F G H I Iacute Igrave Itilde J K L M N O Oacute Ocircumflex Ograve Ohorn Otilde P Q R S T U Uacute Ugrave Uhorn Utilde V W X Y Yacute Ygrave Z M.ss01 N.ss01 Abreveacute Abrevedotbelow Abrevegrave Abrevehookabove Abrevetilde Acircumflexacute Acircumflexdotbelow Acircumflexgrave Acircumflexhookabove Acircumflextilde Adotbelow Ahookabove Ecircumflexacute Ecircumflexdotbelow Ecircumflexgrave Ecircumflexhookabove Ecircumflextilde Edotbelow Ehookabove Etilde Idotbelow Ihookabove Ocircumflexacute Ocircumflexdotbelow Ocircumflexgrave Ocircumflexhookabove Ocircumflextilde Odotbelow Ohookabove Ohornacute Ohorndotbelow Ohorngrave Ohornhookabove Ohorntilde Udotbelow Uhookabove Uhornacute Uhorndotbelow Uhorngrave Uhornhookabove Uhorntilde Ydotbelow Yhookabove Ytilde";
name = Uppercase;
}
);
customParameters = (
{
name = vendorID;
value = TA;
},
{
name = panose;
value = (
3,
2,
8,
2,
4,
5,
2,
2,
11,
6
);
},
{
name = unicodeRanges;
value = (
0,
1,
2,
3,
5,
6,
7,
29,
31,
33,
35,
37,
38,
45
);
},
{
name = codePageRanges;
value = (
"1252",
"1258",
"bit 29"
);
},
{
name = blueScale;
value = 0.037;
},
{
name = glyphOrder;
value = (
.notdef,
space,
A,
Aacute,
Abreve,
uni1EAE,
uni1EB6,
uni1EB0,
uni1EB2,
uni1EB4,
Acircumflex,
uni1EA4,
uni1EAC,
uni1EA6,
uni1EA8,
uni1EAA,
uni1EA0,
Agrave,
uni1EA2,
Atilde,
B,
C,
D,
Dcroat,
E,
Eacute,
Ecircumflex,
uni1EBE,
uni1EC6,
uni1EC0,
uni1EC2,
uni1EC4,
uni1EB8,
Egrave,
uni1EBA,
uni1EBC,
F,
G,
H,
I,
Iacute,
uni1ECA,
Igrave,
uni1EC8,
Itilde,
J,
K,
L,
M,
N,
O,
Oacute,
Ocircumflex,
uni1ED0,
uni1ED8,
uni1ED2,
uni1ED4,
uni1ED6,
uni1ECC,
Ograve,
uni1ECE,
Ohorn,
uni1EDA,
uni1EE2,
uni1EDC,
uni1EDE,
uni1EE0,
Otilde,
P,
Q,
R,
S,
T,
U,
Uacute,
uni1EE4,
Ugrave,
uni1EE6,
Uhorn,
uni1EE8,
uni1EF0,
uni1EEA,
uni1EEC,
uni1EEE,
Utilde,
V,
W,
X,
Y,
Yacute,
uni1EF4,

glyphs = (
{
glyphname = .notdef;
lastChange = "2024-08-16 04:03:22 +0000";
layers = (
{
layerId = m002;
shapes = (
{
closed = 1;
nodes = (
(295,66,l),
(295,311,l),
(172,311,l),
(172,435,l),
(50,435,l),
(50,189,l),
(172,189,l),
(172,66,l)
);
},
{
closed = 1;
nodes = (
(295,-180,l),
(295,-57,l),
(172,-57,l),
(172,-180,l)
);
},
{
closed = 1;
nodes = (
(172,-57,l),
(172,66,l),
(50,66,l),
(50,-57,l)
);
},
{
closed = 1;
nodes = (
(295,435,l),
(295,557,l),
(172,557,l),
(172,435,l)
);
},
{
closed = 1;
nodes = (
(172,557,l),
(172,681,l),
(50,681,l),
(50,557,l)
);
},
{
closed = 1;
nodes = (
(295,681,l),
(295,803,l),
(172,803,l),
(172,681,l)
);
}
);
width = 345;
}
);
},
{
glyphname = A;
kernLeft = KO_A;
kernRight = KO_A;
lastChange = "2025-03-02 13:22:56 +0000";
layers = (
{
anchors = (
{
name = bottom;
pos = (373,0);
},
{
name = ogonek;
pos = (734,0);
},
{
name = top;
pos = (373,750);
}
);
layerId = m002;
shapes = (
{
closed = 1;
nodes = (
(187,0,l),
(372,572,l),
(373,577,o),
(377,577,o),
(378,572,cs),
(556,0,l),
(734,0,l),
(524,614,ls),
(491,709,o),
(459,765,o),
(374,765,cs),
(289,765,o),
(261,709,o),
(227,612,cs),
(11,0,l)
);
},
{
closed = 1;
nodes = (
(573,159,l),
(573,307,l),
(182,307,l),
(182,159,l)
);
}
);
userData = {
assembly = "NPUSHB[ ]	/* 47 values pushed */
5 1 3 0 1 76 0 3 6 1 4 1 3 4 104 0 0 0 38 77 5 2 2 1 1 39 1 78 7 7 0 0 7 10 7 10 9 8 0 6 0 6 17 17 7 8 24 
CALL[ ]	/* CallFunction */";
};
width = 745;
}
);
note = A;
unicode = 65;
userData = {
KernOnName = A;
};
},
{
glyphname = B;
kernLeft = KO_E;
kernRight = KO_B;
lastChange = "2024-08-16 04:03:22 +0000";
layers = (
{
layerId = m002;
shapes = (
{
closed = 1;
nodes = (
(415,0,ls),
(578,0,o),
(669,80,o),
(669,209,cs),
(669,317,o),
(605,378,o),
(518,392,c),
(514,377,l),
(599,394,o),
(653,459,o),
(653,546,cs),
(653,673,o),
(562,750,o),
(399,750,cs),
(74,750,l),
(74,0,l)
);
},
{
closed = 1;
nodes = (
(247,321,l),
(409,321,ls),
(461,321,o),
(500,288,o),
(500,235,cs),
(500,182,o),
(461,148,o),
(409,148,cs),
(247,148,l)
);
},
{
closed = 1;
nodes = (
(247,602,l),
(390,602,ls),
(442,602,o),
(481,576,o),
(481,527,cs),
(481,477,o),
(442,451,o),
(390,451,cs),
(247,451,l)
);
}
);
userData = {
assembly = "NPUSHB[ ]	/* 52 values pushed */
7 1 4 0 3 2 4 3 103 0 5 5 1 95 0 1 1 38 77 6 1 2 2 0 95 0 0 0 39 0 78 29 28 20 19 35 33 28 36 29 36 26 24 19 27 20 27 33 39 8 8 24 
CALL[ ]	/* CallFunction */";
};
width = 715;
}
);
metricLeft = H;
note = B;
unicode = 66;
userData = {
KernOnName = B;
};
},
{
glyphname = C;
kernLeft = KO_O;
kernRight = KO_C;
lastChange = "2025-03-02 12:52:55 +0000";
layers = (
{
anchors = (
{
name = bottom;
pos = (399,0);
},
{
name = top;
pos = (399,750);
}
);
layerId = m002;
shapes = (
{
closed = 1;
nodes = (
(586,-15,o),
(708,94,o),
(717,280,c),
(542,280,l),
(533,206,o),
(497,138,o),
(401,138,cs),
(289,138,o),
(226,232,o),
(226,374,cs),
(226,518,o),
(291,610,o),
(396,610,cs),
(475,610,o),
(525,557,o),
(536,482,c),
(712,482,l),
(707,648,o),
(583,765,o),
(394,765,cs),
(181,765,o),
(46,615,o),
(46,375,cs),
(46,134,o),
(181,-15,o),
(399,-15,cs)
);
}
);
userData = {
assembly = "NPUSHB[ ]	/* 56 values pushed */
0 1 2 4 2 1 4 128 0 4 3 2 4 3 126 0 2 2 0 97 6 1 0 0 46 77 0 3 3 5 97 0 5 5 47 5 78 1 0 26 24 21 20 17 15 9 7 5 4 0 32 1 32 7 8 22 
CALL[ ]	/* CallFunction */";
};
width = 763;
}
);
metricLeft = O;
metricRight = O;
note = C;
unicode = 67;
userData = {
KernOnName = C;
};
},
{
glyphname = D;
kernLeft = KO_E;
kernRight = KO_O;
lastChange = "2025-03-02 13:24:19 +0000";
layers = (
{
anchors = (
{
name = bottom;
pos = (354,0);
},
{
name = top;
pos = (354,750);
}
);
layerId = m002;
shapes = (
{
closed = 1;
nodes = (
(375,0,ls),
(588,0,o),
(722,146,o),
(722,376,cs),
(722,607,o),
(588,750,o),
(375,750,cs),
(74,750,l),
(74,0,l)
);
},
{
closed = 1;
nodes = (
(248,606,l),
(375,606,ls),
(479,606,o),
(542,523,o),
(542,376,cs),
(542,228,o),
(479,144,o),
(375,144,cs),
(248,144,l)
);
}
);
userData = {
assembly = "NPUSHB[ ]	/* 42 values pushed */
5 1 2 2 0 95 4 1 0 0 38 77 0 3 3 1 95 0 1 1 39 1 78 12 11 1 0 15 13 11 21 12 21 9 7 0 10 1 10 6 8 22 
CALL[ ]	/* CallFunction */";
};
width = 767;
}
);
metricLeft = H;
note = D;
unicode = 68;
},
{
glyphname = Dcroat;
kernRight = KO_Dcroat;
lastChange = "2024-08-16 04:03:22 +0000";
layers = (
{
layerId = m002;
shapes = (
{
closed = 1;
nodes = (
(369,318,l),
(369,433,l),
(-3,433,l),
(-3,318,l)
);
},
{
ref = D;
}
);
width = 769;
}
);
note = Dcroat;
unicode = 272;
},
{
glyphname = E;
kernLeft = KO_E;
kernRight = KO_E;
lastChange = "2025-03-02 13:24:40 +0000";
layers = (
{
anchors = (
{
name = bottom;
pos = (340,0);
},
{
name = ogonek;
pos = (584,0);
},
{
name = top;
pos = (340,750);
},
{
name = topleft;
pos = (74,750);
}
);
layerId = m002;
shapes = (
{
closed = 1;
nodes = (
(584,0,l),
(584,151,l),
(248,151,l),
(248,313,l),
(563,313,l),
(563,458,l),
(248,458,l),
(248,599,l),
(584,599,l),
(584,750,l),
(74,750,l),
(74,0,l)
);
}
);
userData = {
assembly = "NPUSHB[ ]	/* 44 values pushed */
0 1 0 2 3 1 2 103 0 0 0 5 95 6 1 5 5 38 77 0 3 3 4 95 0 4 4 39 4 78 0 0 0 11 0 11 17 17 17 17 17 7 8 27 
CALL[ ]	/* CallFunction */";
};
width = 633;
}
);
metricLeft = H;
note = E;
unicode = 69;
userData = {
KernOnName = E;
};
},
{
glyphname = F;
kernLeft = KO_E;
kernRight = KO_F;
lastChange = "2024-08-16 04:03:22 +0000";
layers = (
{
layerId = m002;
shapes = (
{
closed = 1;
nodes = (
(248,0,l),
(248,290,l),
(554,290,l),
(554,437,l),
(248,437,l),
(248,599,l),
(573,599,l),
(573,750,l),
(74,750,l),
(74,0,l)
);
}
);
userData = {
assembly = "NPUSHB[ ]	/* 38 values pushed */
0 1 0 2 3 1 2 103 0 0 0 4 95 5 1 4 4 38 77 0 3 3 39 3 78 0 0 0 9 0 9 17 17 17 17 6 8 26 
CALL[ ]	/* CallFunction */";
};
width = 607;
}
);
metricLeft = H;
note = F;
unicode = 70;
},
{
glyphname = G;
kernLeft = KO_O;
kernRight = KO_G;
lastChange = "2025-03-02 13:25:19 +0000";
layers = (
{
anchors = (
{
name = bottom;
pos = (397,0);
},
{
name = top;
pos = (397,750);
}
);
layerId = m002;
shapes = (
{
closed = 1;
nodes = (
(644,-15,o),
(728,162,o),
(728,285,cs),
(728,367,o),
(689,415,o),
(590,415,cs),
(408,415,l),
(408,272,l),
(605,272,l),
(551,316,l),
(544,194,o),
(488,138,o),
(403,138,cs),
(292,138,o),
(226,229,o),
(226,377,cs),
(226,520,o),
(288,611,o),
(396,611,cs),
(473,611,o),
(527,560,o),
(532,490,c),
(712,492,l),
(712,652,o),
(582,765,o),
(396,765,cs),
(183,764,o),
(46,614,o),
(46,374,cs),
(46,135,o),
(182,-15,o),
(403,-15,cs)
);
}
);
userData = {
assembly = "NPUSHB[ ]	/* 47 values pushed */
0 4 5 1 5 4 1 128 0 1 0 0 6 1 0 103 0 5 5 3 97 0 3 3 46 77 0 6 6 2 97 0 2 2 47 2 78 38 34 19 38 35 17 16 7 8 29 
CALL[ ]	/* CallFunction */";
};
width = 774;
}
);
metricLeft = C;
metricRight = C;
note = G;
unicode = 71;
userData = {
KernOnName = G;
};
},
{
glyphname = H;
kernLeft = KO_E;
kernRight = KO_H;
lastChange = "2024-08-16 04:03:22 +0000";
layers = (
{
layerId = m002;
shapes = (
{
closed = 1;
nodes = (
(691,0,l),
(691,750,l),
(515,750,l),
(515,0,l)
);
},
{
closed = 1;
nodes = (
(250,0,l),
(250,750,l),
(74,750,l),
(74,0,l)
);
},
{
closed = 1;
nodes = (
(545,317,l),
(545,473,l),
(220,473,l),
(220,317,l)
);
}
);
userData = {
assembly = "NPUSHB[ ]	/* 50 values pushed */
0 4 8 1 5 1 4 5 104 2 1 0 0 38 77 7 3 6 3 1 1 39 1 78 8 8 4 4 0 0 8 11 8 11 10 9 4 7 4 7 6 5 0 3 0 3 17 9 8 23 
CALL[ ]	/* CallFunction */";
};
width = 765;
}
);
note = H;
unicode = 72;
userData = {
KernOnName = H;
};
},
{
glyphname = I;
kernLeft = KO_E;
kernRight = KO_H;
lastChange = "2025-03-02 13:26:01 +0000";
layers = (
{
anchors = (
{
name = bottom;
pos = (163,0);
},
{
name = ogonek;
pos = (251,0);
},
{
name = top;
pos = (163,750);
},
{
name = topleft;
pos = (20,750);
}
);
layerId = m002;
shapes = (
{
closed = 1;
nodes = (
(251,0,l),
(251,750,l),
(74,750,l),
(74,0,l)
);
}
);
userData = {
assembly = "NPUSHB[ ]	/* 22 values pushed */
2 1 1 1 38 77 0 0 0 39 0 78 0 0 0 3 0 3 17 3 8 23 
CALL[ ]	/* CallFunction */";
};
width = 325;
}
);
metricLeft = H;
metricRight = H;
note = I;
unicode = 73;
userData = {
KernOnName = I;
};
},
{
glyphname = J;
kernLeft = KO_J;
kernRight = KO_H;
lastChange = "2024-08-16 04:03:22 +0000";
layers = (
{
layerId = m002;
shapes = (
{
closed = 1;
nodes = (
(317,-15,o),
(410,83,o),
(410,268,cs),
(410,750,l),
(233,750,l),
(233,269,ls),
(233,175,o),
(196,135,o),
(118,135,cs),
(89,135,o),
(58,140,o),
(31,148,c),
(31,0,l),
(72,-9,o),
(113,-15,o),
(152,-15,cs)
);
}
);
userData = {
assembly = "NPUSHB[ ]	/* 30 values pushed */
0 2 2 38 77 0 1 1 0 96 3 1 0 0 39 0 78 1 0 8 7 4 2 0 11 1 11 4 8 22 
CALL[ ]	/* CallFunction */";
};
width = 484;
}
);
note = J;
unicode = 74;
userData = {
KernOnName = J;
};
},
{
glyphname = K;
kernLeft = KO_E;
kernRight = KO_K;
lastChange = "2025-03-02 13:37:44 +0000";
layers = (
{
anchors = (
{
name = bottom;
pos = (360,0);
},
{
name = top;
pos = (360,750);
}
);
layerId = m002;
shapes = (
{
closed = 1;
nodes = (
(689,750,l),
(474,750,l),
(155,321,l),
(201,136,l)
);
},
{
closed = 1;
nodes = (
(249,0,l),
(249,750,l),
(74,750,l),
(74,0,l)
);
},
{
closed = 1;
nodes = (
(708,0,l),
(450,511,l),
(327,371,l),
(495,0,l)
);
}
);
userData = {
assembly = "NPUSHB[ ]	/* 27 values pushed */
11 7 2 0 1 1 76 3 1 1 1 38 77 2 1 0 0 39 0 78 19 18 17 16 4 8 26 
CALL[ ]	/* CallFunction */";
};
width = 719;
}
);
metricLeft = H;
metricRight = A;
note = K;
unicode = 75;
userData = {
KernOnName = K;
};
},
{
glyphname = L;
kernLeft = KO_E;
kernRight = KO_L;
lastChange = "2025-03-02 13:37:56 +0000";
layers = (
{
anchors = (
{
name = bottom;
pos = (303,0);
},
{
name = center;
pos = (303,375);
},
{
name = top;
pos = (303,750);
},
{
name = topright;
pos = (586,750);
}
);
layerId = m002;
shapes = (
{
closed = 1;
nodes = (
(579,0,l),
(579,155,l),
(250,155,l),
(250,750,l),
(74,750,l),
(74,0,l)
);
}
);
userData = {
assembly = "NPUSHB[ ]	/* 28 values pushed */
3 1 2 2 38 77 0 0 0 1 96 0 1 1 39 1 78 0 0 0 5 0 5 17 17 4 8 24 
CALL[ ]	/* CallFunction */";
};
width = 606;
}
);
metricLeft = H;
note = L;
unicode = 76;
userData = {
KernOnName = L;
};
},
{
glyphname = M;
kernLeft = KO_H;
kernRight = KO_H;
lastChange = "2025-03-02 12:01:51 +0000";
layers = (
{
layerId = m002;
shapes = (
{
closed = 1;
nodes = (
(564,-15,o),
(606,30,o),
(626,111,cs),
(733,538,ls),
(734,542,o),
(738,540,o),
(738,537,cs),
(738,1,l),
(908,1,l),
(908,610,ls),
(908,709,o),
(846,765,o),
(762,765,cs),
(681,765,o),
(628,715,o),
(603,622,cs),
(494,212,ls),
(493,208,o),
(489,208,o),
(488,212,cs),
(376,622,ls),
(350,719,o),
(300,765,o),
(221,765,cs),
(137,765,o),
(74,709,o),
(74,610,cs),
(74,1,l),
(245,1,l),
(245,530,ls),
(245,533,o),
(249,534,o),
(250,531,cs),
(356,111,ls),
(377,29,o),
(420,-15,o),
(492,-15,cs)
);
}
);
userData = {
assembly = "NPUSHB[ ]	/* 36 values pushed */
13 8 3 3 0 3 1 76 5 4 2 3 3 38 77 2 1 2 0 0 39 0 78 0 0 0 14 0 14 17 19 19 17 6 8 26 
CALL[ ]	/* CallFunction */";
};
width = 982;
}
);
metricLeft = H;
metricRight = H;
note = M;
unicode = 77;
userData = {
KernOnName = M;
};
},
{
glyphname = N;
kernLeft = KO_H;
kernRight = KO_H;
lastChange = "2025-03-02 12:56:53 +0000";
layers = (
{
anchors = (
{
name = bottom;
pos = (387,0);
},
{
name = top;
pos = (387,750);
}
);
layerId = m002;
shapes = (
{
closed = 1;
nodes = (
(645,-15,o),
(700,21,o),
(700,99,cs),
(700,750,l),
(534,750,l),
(534,271,ls),
(534,266,o),
(530,265,o),
(528,269,cs),
(338,663,ls),
(306,729,o),
(262,765,o),
(196,765,cs),
(131,765,o),
(74,721,o),
(74,638,cs),
(74,1,l),
(240,1,l),
(240,502,ls),
(240,507,o),
(244,507,o),
(246,503,cs),
(449,93,ls),
(487,16,o),
(526,-15,o),
(587,-15,cs)
);
}
);
userData = {
assembly = "NPUSHB[ ]	/* 27 values pushed */
11 5 2 1 0 1 76 3 1 0 0 38 77 2 1 1 1 39 1 78 17 19 17 16 4 8 26 
CALL[ ]	/* CallFunction */";
};
width = 774;
}
);
metricLeft = H;
metricRight = H;
note = N;
unicode = 78;
userData = {
KernOnName = N;
};
},
{
glyphname = O;
kernLeft = KO_O;
kernRight = KO_O;
lastChange = "2024-08-16 04:03:22 +0000";
layers = (
{
anchors = (
{
name = bottom;
pos = (400,0);
},
{
name = top;
pos = (400,750);
}
);
layerId = m002;
shapes = (
{
closed = 1;
nodes = (
(617,-15,o),
(754,135,o),
(754,374,cs),
(754,614,o),
(617,765,o),
(400,765,cs),
(183,765,o),
(46,614,o),
(46,374,cs),
(46,135,o),
(183,-15,o),
(400,-15,cs)
);
},
{
closed = 1;
nodes = (
(293,140,o),
(226,230,o),
(226,374,cs),
(226,519,o),
(293,610,o),
(400,610,cs),
(507,610,o),
(574,519,o),
(574,374,cs),
(574,230,o),
(507,140,o),
(400,140,cs)
);
}
);
userData = {
assembly = "NPUSHB[ ]	/* 42 values pushed */
0 3 3 1 97 0 1 1 46 77 5 1 2 2 0 97 4 1 0 0 47 0 78 17 16 1 0 25 23 16 31 17 31 9 7 0 15 1 15 6 8 22 
CALL[ ]	/* CallFunction */";
};
width = 800;
}
);
note = O;
unicode = 79;
userData = {
KernOnName = O;
};
},
{
glyphname = Ohorn;
kernLeft = KO_O;
kernRight = KO_O;
lastChange = "2024-08-16 04:03:22 +0000";
layers = (
{
anchors = (
{
name = bottom;
pos = (392,0);
},
{
name = center;
pos = (392,374);
},
{
name = top;
pos = (392,750);
}
);
layerId = m002;
shapes = (
{
closed = 1;
nodes = (
(609,-15,o),
(746,135,o),
(746,374,cs),
(746,614,o),
(609,765,o),
(392,765,cs),
(175,765,o),
(38,614,o),
(38,374,cs),
(38,135,o),
(175,-15,o),
(392,-15,cs)
);
},
{
closed = 1;
nodes = (
(279,135,o),
(208,227,o),
(208,374,cs),
(208,522,o),
(279,615,o),
(392,615,cs),
(505,615,o),
(576,522,o),
(576,374,cs),
(576,227,o),
(505,135,o),
(392,135,cs)
);
},
{
closed = 1;
nodes = (
(665,653,o),
(731,724,o),
(719,833,c),
(588,833,l),
(595,769,o),
(578,742,o),
(531,748,cs),
(490,754,o),
(462,765,o),
(392,765,c),
(557,658,l)
);
}
);
width = 784;
}
);
unicode = 416;
},
{
glyphname = P;
kernLeft = KO_E;
kernRight = KO_P;
lastChange = "2024-08-16 04:03:22 +0000";
layers = (
{
layerId = m002;
shapes = (
{
closed = 1;
nodes = (
(248,0,l),
(248,262,l),
(362,262,ls),
(549,262,o),
(662,350,o),
(662,506,cs),
(662,662,o),
(549,750,o),
(362,750,cs),
(74,750,l),
(74,0,l)
);
},
{
closed = 1;
nodes = (
(248,603,l),
(362,603,ls),
(432,603,o),
(482,572,o),
(482,506,cs),
(482,440,o),
(432,409,o),
(362,409,cs),
(248,409,l)
);
}
);
userData = {
assembly = "NPUSHB[ ]	/* 47 values pushed */
6 1 3 0 1 2 3 1 103 0 4 4 0 95 5 1 0 0 38 77 0 2 2 39 2 78 14 13 1 0 20 18 13 21 14 21 11 10 9 7 0 12 1 12 7 8 22 
CALL[ ]	/* CallFunction */";
};
width = 685;
}
);
metricLeft = H;
note = P;
unicode = 80;
userData = {
KernOnName = P;
};
},
{
glyphname = Q;
kernLeft = KO_O;
kernRight = KO_Q;
lastChange = "2024-08-16 04:03:22 +0000";
layers = (
{
layerId = m002;
shapes = (
{
closed = 1;
nodes = (
(617,-15,o),
(754,135,o),
(754,374,cs),
(754,614,o),
(617,765,o),
(400,765,cs),
(183,765,o),
(46,614,o),
(46,374,cs),
(46,135,o),
(183,-15,o),
(400,-15,cs)
);
},
{
closed = 1;
nodes = (
(753,-38,l),
(593,154,l),
(477,58,l),
(638,-134,l)
);
},
{
closed = 1;
nodes = (
(293,140,o),
(226,230,o),
(226,374,cs),
(226,519,o),
(293,610,o),
(400,610,cs),
(507,610,o),
(574,519,o),
(574,374,cs),
(574,230,o),
(507,140,o),
(400,140,cs)
);
}
);
userData = {
assembly = "NPUSHB[ ]	/* 56 values pushed */
2 1 2 3 1 1 0 2 2 76 3 1 0 73 0 3 3 1 97 0 1 1 46 77 5 1 2 2 0 97 4 1 0 0 47 0 78 21 20 5 4 29 27 20 35 21 35 13 11 4 19 5 19 6 8 22 
CALL[ ]	/* CallFunction */";
};
width = 800;
}
);
metricLeft = O;
metricRight = O;
note = Q;
unicode = 81;
},
{
glyphname = R;
kernLeft = KO_E;
kernRight = KO_R;
lastChange = "2025-03-02 17:24:39 +0000";
layers = (
{
anchors = (
{
name = bottom;
pos = (344,0);
},
{
name = top;
pos = (344,750);
}
);
layerId = m002;
shapes = (
{
closed = 1;
nodes = (
(248,0,l),
(248,274,l),
(372,274,ls),
(443,274,o),
(480,234,o),
(480,159,cs),
(480,0,l),
(652,0,l),
(652,177,ls),
(652,286,o),
(614,347,o),
(463,369,c),
(464,333,l),
(591,356,o),
(662,428,o),
(662,532,cs),
(662,672,o),
(558,750,o),
(372,750,cs),
(74,750,l),
(74,0,l)
);
},
{
closed = 1;
nodes = (
(248,601,l),
(372,601,ls),
(443,601,o),
(482,570,o),
(482,515,cs),
(482,455,o),
(443,421,o),
(372,421,cs),
(248,421,l)
);
}
);
userData = {
assembly = "NPUSHB[ ]	/* 41 values pushed */
6 1 4 0 1 0 4 1 103 0 5 5 3 95 0 3 3 38 77 2 1 0 0 39 0 78 23 22 29 27 22 30 23 30 33 17 35 20 7 8 26 
CALL[ ]	/* CallFunction */";
};
width = 708;
}
);
metricLeft = H;
note = R;
unicode = 82;
userData = {
KernOnName = R;
};
},
{
glyphname = S;
kernLeft = KO_S;
kernRight = KO_S;
lastChange = "2025-03-02 17:25:01 +0000";
layers = (
{
anchors = (
{
name = bottom;
pos = (346,0);
},
{
name = top;
pos = (346,750);
}
);
layerId = m002;
shapes = (
{
closed = 1;
nodes = (
(531,-15,o),
(647,79,o),
(647,219,cs),
(647,324,o),
(591,386,o),
(463,424,cs),
(296,474,ls),
(246,489,o),
(225,510,o),
(225,544,cs),
(225,589,o),
(262,618,o),
(332,618,cs),
(403,618,o),
(447,587,o),
(461,523,c),
(641,523,l),
(625,677,o),
(511,765,o),
(339,765,cs),
(161,765,o),
(46,670,o),
(46,521,cs),
(46,391,o),
(133,351,o),
(228,323,cs),
(388,276,ls),
(445,259,o),
(473,244,o),
(473,206,cs),
(473,160,o),
(421,134,o),
(349,134,cs),
(275,134,o),
(221,169,o),
(215,244,c),
(37,244,l),
(37,76,o),
(177,-15,o),
(353,-15,cs)
);
}
);
userData = {
assembly = "NPUSHB[ ]	/* 56 values pushed */
0 4 5 1 5 4 1 128 0 1 2 5 1 2 126 0 5 5 3 97 0 3 3 46 77 0 2 2 0 97 6 1 0 0 47 0 78 1 0 35 33 30 29 26 24 10 8 5 4 0 48 1 48 7 8 22 
CALL[ ]	/* CallFunction */";
};
width = 691;
},
{
associatedMasterId = m002;
layerId = "15B94583-42FA-4614-B7C9-3A0F9C887742";
name = "27 Jun 24 at 12:43";
shapes = (
{
closed = 1;
nodes = (
(529,-15,o),
(642,78,o),
(642,226,cs),
(642,352,o),
(561,412,o),
(457,434,cs),
(385,449,o),
(375,449,o),
(319,457,cs),
(261,465,o),
(211,473,o),
(211,538,cs),
(211,590,o),
(254,623,o),
(332,623,cs),
(423,623,o),
(455,579,o),
(466,523,c),
(636,523,l),
(623,657,o),
(518,765,o),
(337,765,cs),
(188,765,o),
(41,692,o),
(41,525,cs),
(41,408,o),
(113,339,o),
(258,317,cs),
(312,309,o),
(288,312,o),
(374,300,cs),
(435,292,o),
(476,268,o),
(476,220,cs),
(476,166,o),
(423,129,o),
(341,129,cs),
(265,129,o),
(198,161,o),
(190,244,c),
(26,244,l),
(31,78,o),
(164,-15,o),
(347,-15,cs)
);
}
);
userData = {
assembly = "NPUSHB[ ]	/* 56 values pushed */
0 4 5 1 5 4 1 128 0 1 2 5 1 2 126 0 5 5 3 97 0 3 3 46 77 0 2 2 0 97 6 1 0 0 47 0 78 1 0 35 33 30 29 26 24 10 8 5 4 0 48 1 48 7 8 22 
CALL[ ]	/* CallFunction */";
};
width = 673;
}
);
note = S;
unicode = 83;
userData = {
KernOnName = S;
};
},
{
glyphname = T;
kernLeft = KO_T;
kernRight = KO_T;
lastChange = "2025-03-02 17:25:33 +0000";
layers = (
{
anchors = (
{
name = bottom;
pos = (320,0);
},
{
name = center;
pos = (320,375);
},
{
name = top;
pos = (320,750);
}
);
layerId = m002;
shapes = (
{
closed = 1;
nodes = (
(408,0,l),
(408,594,l),
(620,594,l),
(620,750,l),
(20,750,l),
(20,594,l),
(232,594,l),
(232,0,l)
);
}
);
userData = {
assembly = "NPUSHB[ ]	/* 30 values pushed */
2 1 0 0 3 95 4 1 3 3 38 77 0 1 1 39 1 78 0 0 0 7 0 7 17 17 17 5 8 25 
CALL[ ]	/* CallFunction */";
};
width = 640;
}
);
note = T;
unicode = 84;
userData = {
KernOnName = T;
};
},
{
glyphname = U;
kernLeft = KO_U;
kernRight = KO_U;
lastChange = "2025-03-02 17:26:29 +0000";
layers = (
{
anchors = (
{
name = bottom;
pos = (385,0);
},
{
name = ogonek;
pos = (567,30);
},
{
name = top;
pos = (385,750);
},
{
name = topright;
pos = (530,750);
}
);
layerId = m002;
shapes = (
{
closed = 1;
nodes = (
(576,-15,o),
(706,103,o),
(706,290,cs),
(706,750,l),
(530,750,l),
(530,290,ls),
(530,195,o),
(474,135,o),
(384,135,cs),
(296,135,o),
(240,195,o),
(240,290,cs),
(240,750,l),
(64,750,l),
(64,290,ls),
(64,103,o),
(194,-15,o),
(386,-15,cs)
);
}
);
userData = {
assembly = "NPUSHB[ ]	/* 33 values pushed */
3 1 1 1 38 77 0 2 2 0 95 4 1 0 0 39 0 78 1 0 16 15 12 9 6 5 0 21 1 20 5 8 22 
CALL[ ]	/* CallFunction */";
};
width = 770;
}
);
note = U;
unicode = 85;
userData = {
KernOnName = U;
};
},
{
glyphname = V;
kernLeft = KO_V;
kernRight = KO_V;
lastChange = "2024-08-16 04:03:22 +0000";
layers = (
{
layerId = m002;
shapes = (
{
closed = 1;
nodes = (
(447,-15,o),
(480,37,o),
(522,155,cs),
(736,750,l),
(554,750,l),
(375,215,ls),
(374,211,o),
(370,210,o),
(369,215,cs),
(194,750,l),
(11,750,l),
(215,153,ls),
(255,34,o),
(292,-15,o),
(368,-15,cs)
);
}
);
userData = {
assembly = "NPUSHB[ ]	/* 30 values pushed */
3 1 2 0 1 76 1 1 0 0 38 77 3 1 2 2 39 2 78 0 0 0 6 0 6 18 17 4 8 24 
CALL[ ]	/* CallFunction */";
};
width = 747;
}
);
metricLeft = A;
metricRight = A;
note = V;
unicode = 86;
userData = {
KernOnName = V;
};
},
{
glyphname = W;
kernLeft = KO_W;
kernRight = KO_W;
lastChange = "2025-03-02 13:03:47 +0000";
layers = (
{
anchors = (
{
name = bottom;
pos = (515,0);
},
{
name = top;
pos = (515,750);
}
);
layerId = m002;
shapes = (
{
closed = 1;
nodes = (
(375,-15,o),
(412,39,o),
(432,135,cs),
(513,528,ls),
(514,533,o),
(518,533,o),
(519,528,cs),
(599,135,ls),
(619,39,o),
(656,-15,o),
(743,-15,cs),
(824,-15,o),
(867,33,o),
(889,136,cs),
(1019,750,l),
(851,750,l),
(742,215,ls),
(741,210,o),
(737,210,o),
(736,215,cs),
(651,632,ls),
(635,713,o),
(593,765,o),
(519,765,cs),
(445,765,o),
(404,713,o),
(388,632,cs),
(303,208,ls),
(302,203,o),
(298,203,o),
(297,208,cs),
(185,750,l),
(11,750,l),
(142,136,ls),
(164,33,o),
(207,-15,o),
(288,-15,cs)
);
}
);
userData = {
assembly = "NPUSHB[ ]	/* 36 values pushed */
11 8 3 3 0 2 1 76 5 4 3 3 2 2 38 77 1 1 0 0 39 0 78 0 0 0 12 0 12 18 17 18 17 6 8 26 
CALL[ ]	/* CallFunction */";
};
width = 1030;
}
);
metricLeft = V;
metricRight = V;
note = W;
unicode = 87;
userData = {
KernOnName = W;
};
},
{
glyphname = X;
kernLeft = KO_X;
kernRight = KO_X;
lastChange = "2024-08-16 04:03:22 +0000";
layers = (
{
layerId = m002;
shapes = (
{
closed = 1;
nodes = (
(738,0,l),
(245,750,l),
(44,750,l),
(537,0,l)
);
},
{
closed = 1;
nodes = (
(228,0,l),
(409,290,l),
(304,413,l),
(33,0,l)
);
},
{
closed = 1;
nodes = (
(742,750,l),
(547,750,l),
(369,468,l),
(475,347,l)
);
}
);
userData = {
assembly = "NPUSHB[ ]	/* 20 values pushed */
3 1 1 1 38 77 2 1 0 0 39 0 78 17 17 17 16 4 8 26 
CALL[ ]	/* CallFunction */";
};
width = 774;
}
);
note = X;
unicode = 88;
userData = {
KernOnName = X;
};
},
{
glyphname = Y;
kernLeft = KO_Y;
kernRight = KO_Y;
lastChange = "2024-08-16 04:03:22 +0000";
layers = (
{
anchors = (
{
name = bottom;
pos = (337,0);
},
{
name = top;
pos = (337,748);
},
{
name = topleft;
pos = (15,748);
}
);
layerId = m002;
shapes = (
{
closed = 1;
nodes = (
(417,0,l),
(417,347,l),
(391,263,l),
(679,750,l),
(486,750,l),
(305,404,l),
(371,404,l),
(188,750,l),
(-6,750,l),
(277,263,l),
(252,347,l),
(252,0,l)
);
}
);
userData = {
assembly = "NPUSHB[ ]	/* 32 values pushed */
7 4 1 3 0 1 1 76 3 2 2 1 1 38 77 0 0 0 39 0 78 0 0 0 8 0 8 18 18 4 8 24 
CALL[ ]	/* CallFunction */";
};
width = 673;
}
);
note = Y;
unicode = 89;
userData = {
KernOnName = Y;
};
},
{
glyphname = Z;
kernLeft = KO_Z;
kernRight = KO_Z;
lastChange = "2025-03-02 17:26:55 +0000";
layers = (
{
anchors = (
{
name = bottom;
pos = (327,0);
},
{
name = center;
pos = (327,375);
},
{
name = top;
pos = (327,750);
}
);
layerId = m002;
shapes = (
{
closed = 1;
nodes = (
(599,0,l),
(599,150,l),
(248,150,ls),
(244,150,o),
(242,152,o),
(245,156,cs),
(576,538,ls),
(602,568,o),
(617,605,o),
(617,650,cs),
(617,712,o),
(577,750,o),
(490,750,cs),
(58,750,l),
(58,601,l),
(403,601,ls),
(407,601,o),
(408,599,o),
(405,595,cs),
(94,247,ls),
(51,198,o),
(30,150,o),
(30,104,cs),
(30,41,o),
(72,0,o),
(140,0,cs)
);
}
);
userData = {
assembly = "NPUSHB[ ]	/* 41 values pushed */
6 1 2 0 2 1 76 0 2 2 3 95 4 1 3 3 38 77 0 0 0 1 95 0 1 1 39 1 78 0 0 0 9 0 9 18 17 18 5 8 25 
CALL[ ]	/* CallFunction */";
};
width = 654;
}
);
note = Z;
unicode = 90;
userData = {
KernOnName = Z;
};
},
{
color = 6;
glyphname = M.ss01;
kernLeft = KO_H;
kernRight = KO_H;
lastChange = "2024-08-16 04:03:22 +0000";
layers = (
{
layerId = m002;
shapes = (
{
closed = 1;
nodes = (
(239,0,l),
(239,505,ls),
(239,576,o),
(279,619,o),
(343,619,cs),
(409,619,o),
(450,576,o),
(450,505,cs),
(450,0,l),
(616,0,l),
(616,505,ls),
(616,576,o),
(656,619,o),
(722,619,cs),
(786,619,o),
(826,576,o),
(826,505,cs),
(824,0,l),
(991,0,l),
(991,505,ls),
(991,662,o),
(894,765,o),
(745,765,cs),
(638,765,o),
(553,714,o),
(514,632,c),
(555,632,l),
(516,714,o),
(430,765,o),
(322,765,cs),
(172,765,o),
(73,662,o),
(73,505,cs),
(73,0,l)
);
}
);
userData = {
assembly = "NPUSHB[ ]	/* 36 values pushed */
13 8 3 3 0 3 1 76 5 4 2 3 3 38 77 2 1 2 0 0 39 0 78 0 0 0 14 0 14 17 19 19 17 6 8 26 
CALL[ ]	/* CallFunction */";
};
width = 1064;
}
);
},
{
color = 6;
glyphname = N.ss01;
kernLeft = KO_H;
kernRight = KO_H;
lastChange = "2024-08-16 04:03:22 +0000";
layers = (
{
layerId = m002;
shapes = (
{
closed = 1;
nodes = (
(240,0,l),
(240,486,ls),
(240,569,o),
(290,621,o),
(369,621,cs),
(448,621,o),
(498,569,o),
(498,486,cs),
(498,0,l),
(665,0,l),
(665,488,ls),
(665,658,o),
(551,765,o),
(369,765,cs),
(188,765,o),
(74,658,o),
(74,488,cs),
(74,0,l)
);
}
);
userData = {
assembly = "NPUSHB[ ]	/* 27 values pushed */
11 5 2 1 0 1 76 3 1 0 0 38 77 2 1 1 1 39 1 78 17 19 17 16 4 8 26 
CALL[ ]	/* CallFunction */";
};
width = 739;
}
);
metricLeft = H;
metricRight = H;
},
{
glyphname = a;
kernLeft = KO_a;
kernRight = KO_a;
lastChange = "2025-03-02 17:27:29 +0000";
layers = (
{
anchors = (
{
name = bottom;
pos = (323,0);
},
{
name = ogonek;
pos = (594,0);
},
{
name = top;
pos = (323,570);
}
);
layerId = m002;
name = Bold;
shapes = (
{
closed = 1;
nodes = (
(392,-15,o),
(471,62,o),
(485,173,c),
(485,417,l),
(471,517,o),
(391,585,o),
(281,585,cs),
(135,585,o),
(32,463,o),
(32,290,cs),
(32,111,o),
(139,-15,o),
(291,-15,cs)
);
},
{
closed = 1;
nodes = (
(244,127,o),
(197,190,o),
(197,290,cs),
(197,390,o),
(244,452,o),
(320,452,cs),
(395,452,o),
(442,390,o),
(442,290,cs),
(442,190,o),
(395,127,o),
(320,127,cs)
);
},
{
closed = 1;
nodes = (
(594,0,l),
(594,570,l),
(460,570,l),
(442,431,l),
(442,148,l),
(460,0,l)
);
}
);
userData = {
assembly = "NPUSHB[ ]	/* 9 values pushed */
35 34 13 12 4 2 3 1 76 
MPPEM[ ]	/* MeasurePixelPerEm */
PUSHB[ ]	/* 1 value pushed */
20 
LT[ ]	/* LessThan */
IF[ ]	/* If */
NPUSHB[ ]	/* 26 values pushed */
0 3 3 1 97 4 1 1 1 49 77 7 1 2 2 0 97 8 5 6 3 0 0 47 0 78 
ELSE[ ]	/* Else */
NPUSHB[ ]	/* 34 values pushed */
0 4 4 41 77 0 3 3 1 97 0 1 1 49 77 8 1 5 5 39 77 7 1 2 2 0 97 6 1 0 0 47 0 78 
EIF[ ]	/* EndIf */
NPUSHB[ ]	/* 27 values pushed */
33 33 18 17 1 0 33 38 33 38 37 36 26 24 17 32 18 32 9 7 0 16 1 16 9 8 22 
CALL[ ]	/* CallFunction */";
};
width = 655;
}
);
note = a.ss01;
unicode = 97;
userData = {
KernOnName = a;
};
},
{
glyphname = b;
kernLeft = KO_h;
kernRight = KO_b;
lastChange = "2024-08-16 04:03:22 +0000";
layers = (
{
layerId = m002;
shapes = (
{
closed = 1;
nodes = (
(539,-15,o),
(638,108,o),
(638,283,cs),
(638,498,o),
(500,585,o),
(379,585,cs),
(279,585,o),
(197,525,o),
(180,407,c),
(180,173,l),
(197,55,o),
(288,-15,o),
(388,-15,cs)
);
},
{
closed = 1;
nodes = (
(198,0,l),
(223,158,l),
(223,750,l),
(61,750,l),
(61,0,l)
);
},
{
closed = 1;
nodes = (
(270,127,o),
(223,190,o),
(223,290,cs),
(223,390,o),
(270,452,o),
(345,452,cs),
(424,452,o),
(473,390,o),
(473,290,cs),
(473,190,o),
(424,127,o),
(345,127,cs)
);
}
);
userData = {
assembly = "PUSHB[ ]	/* 8 values pushed */
10 9 3 3 4 5 1 76 
MPPEM[ ]	/* MeasurePixelPerEm */
PUSHB[ ]	/* 1 value pushed */
20 
LT[ ]	/* LessThan */
IF[ ]	/* If */
NPUSHB[ ]	/* 30 values pushed */
0 0 0 38 77 0 5 5 3 97 0 3 3 49 77 8 1 4 4 1 97 7 2 6 3 1 1 39 1 78 
ELSE[ ]	/* Else */
NPUSHB[ ]	/* 34 values pushed */
0 0 0 38 77 0 5 5 3 97 0 3 3 49 77 6 1 1 1 39 77 8 1 4 4 2 97 7 1 2 2 47 2 78 
EIF[ ]	/* EndIf */
NPUSHB[ ]	/* 26 values pushed */
23 22 6 5 0 0 31 29 22 37 23 37 15 13 5 21 6 21 0 4 0 4 17 9 8 23 
CALL[ ]	/* CallFunction */";
};
width = 670;
}
);
note = b;
unicode = 98;
userData = {
KernOnName = b;
};
},
{
glyphname = c;
kernLeft = KO_e;
kernRight = KO_c;
lastChange = "2025-03-02 13:11:27 +0000";
layers = (
{
anchors = (
{
name = bottom;
pos = (311,0);
},
{
name = top;
pos = (311,570);
}
);
layerId = m002;
shapes = (
{
closed = 1;
nodes = (
(473,-15,o),
(566,108,o),
(566,213,c),
(411,213,l),
(411,163,o),
(368,125,o),
(312,125,cs),
(241,125,o),
(197,186,o),
(197,284,cs),
(197,382,o),
(242,445,o),
(312,445,cs),
(367,445,o),
(403,407,o),
(403,353,c),
(558,353,l),
(558,496,o),
(461,585,o),
(314,585,cs),
(138,585,o),
(32,459,o),
(32,283,cs),
(32,109,o),
(141,-15,o),
(307,-15,cs)
);
}
);
userData = {
assembly = "NPUSHB[ ]	/* 56 values pushed */
0 2 3 5 3 2 5 128 0 5 4 3 5 4 126 0 3 3 1 97 0 1 1 49 77 0 4 4 0 97 6 1 0 0 47 0 78 1 0 28 27 25 23 17 15 13 12 9 7 0 31 1 31 7 8 22 
CALL[ ]	/* CallFunction */";
};
width = 582;
}
);
note = c;
unicode = 99;
userData = {
KernOnName = c;
};
},
{
glyphname = d;
kernLeft = KO_d;
kernRight = KO_d;
lastChange = "2024-08-16 04:03:22 +0000";
layers = (
{
layerId = m002;
shapes = (
{
closed = 1;
nodes = (
(402,-15,o),
(473,54,o),
(490,173,c),
(490,407,l),
(473,524,o),
(391,585,o),
(283,585,cs),
(136,585,o),
(32,462,o),
(32,288,cs),
(32,110,o),
(143,-15,o),
(301,-15,cs)
);
},
{
closed = 1;
nodes = (
(246,127,o),
(197,190,o),
(197,290,cs),
(197,390,o),
(246,452,o),
(325,452,cs),
(400,452,o),
(447,390,o),
(447,290,cs),
(447,190,o),
(400,127,o),
(325,127,cs)
);
},
{
closed = 1;
nodes = (
(609,0,l),
(609,750,l),
(447,750,l),
(447,158,l),
(472,0,l)
);
}
);
userData = {
assembly = "PUSHB[ ]	/* 8 values pushed */
34 13 12 3 2 3 1 76 
MPPEM[ ]	/* MeasurePixelPerEm */
PUSHB[ ]	/* 1 value pushed */
20 
LT[ ]	/* LessThan */
IF[ ]	/* If */
NPUSHB[ ]	/* 30 values pushed */
0 4 4 38 77 0 3 3 1 97 0 1 1 49 77 7 1 2 2 0 97 8 5 6 3 0 0 47 0 78 
ELSE[ ]	/* Else */
NPUSHB[ ]	/* 34 values pushed */
0 4 4 38 77 0 3 3 1 97 0 1 1 49 77 8 1 5 5 39 77 7 1 2 2 0 97 6 1 0 0 47 0 78 
EIF[ ]	/* EndIf */
NPUSHB[ ]	/* 27 values pushed */
33 33 18 17 1 0 33 37 33 37 36 35 26 24 17 32 18 32 9 7 0 16 1 16 9 8 22 
CALL[ ]	/* CallFunction */";
};
width = 670;
}
);
note = d;
unicode = 100;
userData = {
KernOnName = d;
};
},
{
glyphname = dcroat;
kernLeft = KO_aacute;
kernRight = KO_dcroat;
lastChange = "2024-08-16 04:03:22 +0000";
layers = (
{
layerId = m002;
shapes = (
{
closed = 1;
nodes = (
(402,-15,o),
(473,54,o),
(490,173,c),
(490,407,l),
(473,524,o),
(391,585,o),
(283,585,cs),
(136,585,o),
(32,462,o),
(32,288,cs),
(32,110,o),
(143,-15,o),
(301,-15,cs)
);
},
{
closed = 1;
nodes = (
(246,127,o),
(197,190,o),
(197,290,cs),
(197,390,o),
(246,452,o),
(325,452,cs),
(400,452,o),
(447,390,o),
(447,290,cs),
(447,190,o),
(400,127,o),
(325,127,cs)
);
},
{
closed = 1;
nodes = (
(609,0,l),
(609,750,l),
(447,750,l),
(447,158,l),
(472,0,l)
);
},
{
closed = 1;
nodes = (
(658,619,l),
(658,699,l),
(326,699,l),
(326,619,l)
);
}
);
userData = {
assembly = "PUSHB[ ]	/* 8 values pushed */
38 17 16 3 4 5 1 76 
MPPEM[ ]	/* MeasurePixelPerEm */
PUSHB[ ]	/* 1 value pushed */
20 
LT[ ]	/* LessThan */
IF[ ]	/* If */
NPUSHB[ ]	/* 39 values pushed */
0 0 8 1 1 3 0 1 104 0 6 6 38 77 0 5 5 3 97 0 3 3 49 77 10 1 4 4 2 97 11 7 9 3 2 2 47 2 78 
ELSE[ ]	/* Else */
NPUSHB[ ]	/* 43 values pushed */
0 0 8 1 1 3 0 1 104 0 6 6 38 77 0 5 5 3 97 0 3 3 49 77 11 1 7 7 39 77 10 1 4 4 2 97 9 1 2 2 47 2 78 
EIF[ ]	/* EndIf */
NPUSHB[ ]	/* 34 values pushed */
37 37 22 21 5 4 0 0 37 41 37 41 40 39 30 28 21 36 22 36 13 11 4 20 5 20 0 3 0 3 17 12 8 23 
CALL[ ]	/* CallFunction */";
};
width = 671;
}
);
note = dcroat;
unicode = 273;
userData = {
KernOnName = dcroat;
};
},
{
glyphname = e;
kernLeft = KO_e;
kernRight = KO_e;
lastChange = "2025-03-02 17:29:03 +0000";
layers = (
{
anchors = (
{
name = bottom;
pos = (315,0);
},
{
name = ogonek;
pos = (483,30);
},
{
name = top;
pos = (315,570);
}
);
layerId = m002;
shapes = (
{
closed = 1;
nodes = (
(457,-15,o),
(562,60,o),
(583,184,c),
(432,184,l),
(422,143,o),
(383,110,o),
(325,110,cs),
(242,110,o),
(193,177,o),
(193,285,cs),
(193,312,ls),
(193,402,o),
(241,461,o),
(316,461,cs),
(371,461,o),
(422,429,o),
(427,345,c),
(156,345,l),
(156,246,l),
(587,246,l),
(597,460,o),
(492,585,o),
(315,585,cs),
(143,585,o),
(32,468,o),
(32,285,cs),
(32,101,o),
(144,-15,o),
(318,-15,cs)
);
}
);
width = 615;
}
);
note = e;
unicode = 101;
userData = {
KernOnName = e;
};
},
{
glyphname = f;
kernLeft = KO_f;
kernRight = KO_f;
lastChange = "2024-08-16 04:03:22 +0000";
layers = (
{
layerId = m002;
shapes = (
{
closed = 1;
nodes = (
(281,0,l),
(281,598,ls),
(281,624,o),
(297,640,o),
(323,640,cs),
(429,640,l),
(429,780,l),
(282,780,ls),
(187,780,o),
(127,716,o),
(127,615,cs),
(127,0,l)
);
},
{
closed = 1;
nodes = (
(405,440,l),
(405,570,l),
(33,570,l),
(33,440,l)
);
}
);
userData = {
assembly = "NPUSHB[ ]	/* 38 values pushed */
0 0 0 1 3 0 1 103 5 1 4 4 3 95 0 3 3 41 77 0 2 2 39 2 78 12 12 12 15 12 15 18 19 33 34 6 8 26 
CALL[ ]	/* CallFunction */";
};
width = 436;
}
);
note = f;
unicode = 102;
userData = {
KernOnName = f;
};
},
{
glyphname = g;
kernLeft = KO_g;
kernRight = KO_a;
lastChange = "2025-03-02 17:36:40 +0000";
layers = (
{
associatedMasterId = m002;
layerId = "883D16EA-75C1-4D49-84D7-8E0391BAB28C";
name = "18 Jun 24 at 16:02";
shapes = (
{
closed = 1;
nodes = (
(471,-195,o),
(582,-93,o),
(582,52,cs),
(582,570,l),
(439,570,l),
(421,422,l),
(421,52,ls),
(421,-23,o),
(373,-65,o),
(302,-65,cs),
(245,-65,o),
(196,-34,o),
(181,13,c),
(40,13,l),
(53,-111,o),
(171,-195,o),
(302,-195,cs)
);
},
{
closed = 1;
nodes = (
(402,47,o),
(447,143,o),
(464,239,c),
(464,455,l),
(432,531,o),
(368,585,o),
(278,585,cs),
(142,585,o),
(36,475,o),
(36,316,cs),
(36,151,o),
(138,47,o),
(268,47,cs)
);
},
{
closed = 1;
nodes = (
(237,174,o),
(201,227,o),
(201,307,cs),
(201,388,o),
(238,446,o),
(308,446,cs),
(378,446,o),
(421,386,o),
(421,307,cs),
(421,227,o),
(378,174,o),
(308,174,cs)
);
}
);
userData = {
assembly = "NPUSHB[ ]	/* 16 values pushed */
86 1 6 9 30 29 2 4 6 7 6 2 2 3 3 76 
MPPEM[ ]	/* MeasurePixelPerEm */
PUSHB[ ]	/* 1 value pushed */
20 
LT[ ]	/* LessThan */
IF[ ]	/* If */
NPUSHB[ ]	/* 54 values pushed */
12 1 6 11 1 4 3 6 4 105 0 7 7 5 97 8 1 5 5 49 77 0 9 9 5 97 8 1 5 5 49 77 0 3 3 2 95 0 2 2 39 77 0 1 1 0 95 10 1 0 0 43 0 78 
ELSE[ ]	/* Else */
MPPEM[ ]	/* MeasurePixelPerEm */
PUSHB[ ]	/* 1 value pushed */
42 
LT[ ]	/* LessThan */
IF[ ]	/* If */
NPUSHB[ ]	/* 52 values pushed */
12 1 6 11 1 4 3 6 4 105 0 7 7 5 97 0 5 5 49 77 0 9 9 8 97 0 8 8 41 77 0 3 3 2 95 0 2 2 39 77 0 1 1 0 95 10 1 0 0 43 0 78 
ELSE[ ]	/* Else */
MPPEM[ ]	/* MeasurePixelPerEm */
PUSHB[ ]	/* 1 value pushed */
45 
LT[ ]	/* LessThan */
IF[ ]	/* If */
NPUSHB[ ]	/* 49 values pushed */
12 1 6 11 1 4 3 6 4 105 0 1 10 1 0 1 0 99 0 7 7 5 97 0 5 5 49 77 0 9 9 8 97 0 8 8 41 77 0 3 3 2 95 0 2 2 39 2 78 
ELSE[ ]	/* Else */
NPUSHB[ ]	/* 47 values pushed */
12 1 6 11 1 4 3 6 4 105 0 3 0 2 1 3 2 103 0 1 10 1 0 1 0 99 0 7 7 5 97 0 5 5 49 77 0 9 9 8 97 0 8 8 41 9 78 
EIF[ ]	/* EndIf */
EIF[ ]	/* EndIf */
EIF[ ]	/* EndIf */
NPUSHB[ ]	/* 35 values pushed */
61 60 45 44 1 0 83 81 80 78 69 67 60 75 61 75 53 51 44 59 45 59 38 35 22 19 15 12 0 43 1 42 13 8 22 
CALL[ ]	/* CallFunction */";
};
width = 644;
},
{
anchors = (
{
name = bottom;
pos = (320,-180);
},
{
name = top;
pos = (320,570);
}
);
layerId = m002;
name = Bold;
shapes = (
{
closed = 1;
nodes = (
(468,-195,o),
(579,-93,o),
(579,52,cs),
(579,570,l),
(436,570,l),
(418,422,l),
(418,52,ls),
(418,-23,o),
(370,-65,o),
(299,-65,cs),
(242,-65,o),
(208,-42,o),
(192,13,c),
(51,13,l),
(54,-111,o),
(168,-195,o),
(299,-195,cs)
);
},
{
closed = 1;
nodes = (
(399,47,o),
(444,143,o),
(461,239,c),
(461,455,l),
(429,531,o),
(365,585,o),
(275,585,cs),
(139,585,o),
(33,475,o),
(33,316,cs),
(33,151,o),
(135,47,o),
(265,47,cs)
);
},
{
closed = 1;
nodes = (
(234,174,o),
(198,227,o),
(198,307,cs),
(198,388,o),
(235,446,o),
(305,446,cs),
(375,446,o),
(418,386,o),
(418,307,cs),
(418,227,o),
(375,174,o),
(305,174,cs)
);
}
);
userData = {
assembly = "NPUSHB[ ]	/* 16 values pushed */
86 1 6 9 30 29 2 4 6 7 6 2 2 3 3 76 
MPPEM[ ]	/* MeasurePixelPerEm */
PUSHB[ ]	/* 1 value pushed */
20 
LT[ ]	/* LessThan */
IF[ ]	/* If */
NPUSHB[ ]	/* 54 values pushed */
12 1 6 11 1 4 3 6 4 105 0 7 7 5 97 8 1 5 5 49 77 0 9 9 5 97 8 1 5 5 49 77 0 3 3 2 95 0 2 2 39 77 0 1 1 0 95 10 1 0 0 43 0 78 
ELSE[ ]	/* Else */
MPPEM[ ]	/* MeasurePixelPerEm */
PUSHB[ ]	/* 1 value pushed */
42 
LT[ ]	/* LessThan */
IF[ ]	/* If */
NPUSHB[ ]	/* 52 values pushed */
12 1 6 11 1 4 3 6 4 105 0 7 7 5 97 0 5 5 49 77 0 9 9 8 97 0 8 8 41 77 0 3 3 2 95 0 2 2 39 77 0 1 1 0 95 10 1 0 0 43 0 78 
ELSE[ ]	/* Else */
MPPEM[ ]	/* MeasurePixelPerEm */
PUSHB[ ]	/* 1 value pushed */
45 
LT[ ]	/* LessThan */
IF[ ]	/* If */
NPUSHB[ ]	/* 49 values pushed */
12 1 6 11 1 4 3 6 4 105 0 1 10 1 0 1 0 99 0 7 7 5 97 0 5 5 49 77 0 9 9 8 97 0 8 8 41 77 0 3 3 2 95 0 2 2 39 2 78 
ELSE[ ]	/* Else */
NPUSHB[ ]	/* 47 values pushed */
12 1 6 11 1 4 3 6 4 105 0 3 0 2 1 3 2 103 0 1 10 1 0 1 0 99 0 7 7 5 97 0 5 5 49 77 0 9 9 8 97 0 8 8 41 9 78 
EIF[ ]	/* EndIf */
EIF[ ]	/* EndIf */
EIF[ ]	/* EndIf */
NPUSHB[ ]	/* 35 values pushed */
61 60 45 44 1 0 83 81 80 78 69 67 60 75 61 75 53 51 44 59 45 59 38 35 22 19 15 12 0 43 1 42 13 8 22 
CALL[ ]	/* CallFunction */";
};
width = 640;
}
);
note = g;
unicode = 103;
userData = {
KernOnName = g;
};
},
{
glyphname = h;
kernLeft = KO_h;
kernRight = KO_h;
lastChange = "2024-08-16 04:03:22 +0000";
layers = (
{
layerId = m002;
shapes = (
{
closed = 1;
nodes = (
(585,0,l),
(585,372,ls),
(585,498,o),
(504,585,o),
(376,585,cs),
(284,585,o),
(214,524,o),
(185,423,c),
(223,324,l),
(223,397,o),
(261,446,o),
(324,446,cs),
(385,446,o),
(423,404,o),
(423,339,cs),
(423,0,l)
);
},
{
closed = 1;
nodes = (
(223,0,l),
(223,750,l),
(61,750,l),
(61,0,l)
);
}
);
userData = {
assembly = "NPUSHB[ ]	/* 43 values pushed */
8 7 2 2 0 1 76 5 1 4 4 38 77 0 0 0 1 97 0 1 1 49 77 3 1 2 2 39 2 78 18 18 18 21 18 21 18 20 38 34 6 8 26 
CALL[ ]	/* CallFunction */";
};
width = 643;
}
);
note = h;
unicode = 104;
userData = {
KernOnName = h;
};
},
{
glyphname = i;
kernLeft = KO_i;
kernRight = KO_i;
lastChange = "2025-03-02 17:30:25 +0000";
layers = (
{
anchors = (
{
name = bottom;
pos = (138,0);
},
{
name = ogonek;
pos = (219,0);
}
);
layerId = m002;
name = Bold;
shapes = (
{
closed = 1;
nodes = (
(219,0,l),
(219,570,l),
(57,570,l),
(57,0,l)
);
},
{
closed = 1;
nodes = (
(189,632,o),
(229,666,o),
(229,715,cs),
(229,763,o),
(189,797,o),
(138,797,cs),
(86,797,o),
(46,763,o),
(46,715,cs),
(46,666,o),
(86,632,o),
(138,632,cs)
);
}
);
userData = {
assembly = "MPPEM[ ]	/* MeasurePixelPerEm */
PUSHB[ ]	/* 1 value pushed */
9 
LT[ ]	/* LessThan */
IF[ ]	/* If */
NPUSHB[ ]	/* 23 values pushed */
4 1 0 0 1 97 0 1 1 48 77 5 1 3 3 41 77 0 2 2 39 2 78 
ELSE[ ]	/* Else */
NPUSHB[ ]	/* 21 values pushed */
0 1 4 1 0 3 1 0 105 5 1 3 3 41 77 0 2 2 39 2 78 
EIF[ ]	/* EndIf */
NPUSHB[ ]	/* 19 values pushed */
12 12 1 0 12 15 12 15 14 13 7 5 0 11 1 11 6 8 22 
CALL[ ]	/* CallFunction */";
};
width = 276;
},
{
anchors = (
{
name = bottom;
pos = (158,0);
}
);
associatedMasterId = m002;
layerId = "B37234FC-92FD-4514-A482-AF4395D408E4";
name = "27 Jun 24 at 12:20";
shapes = (
{
closed = 1;
nodes = (
(239,0,l),
(239,570,l),
(77,570,l),
(77,0,l)
);
},
{
closed = 1;
nodes = (
(239,630,l),
(239,750,l),
(77,750,l),
(77,630,l)
);
}
);
userData = {
assembly = "MPPEM[ ]	/* MeasurePixelPerEm */
PUSHB[ ]	/* 1 value pushed */
9 
LT[ ]	/* LessThan */
IF[ ]	/* If */
NPUSHB[ ]	/* 23 values pushed */
4 1 0 0 1 97 0 1 1 48 77 5 1 3 3 41 77 0 2 2 39 2 78 
ELSE[ ]	/* Else */
NPUSHB[ ]	/* 21 values pushed */
0 1 4 1 0 3 1 0 105 5 1 3 3 41 77 0 2 2 39 2 78 
EIF[ ]	/* EndIf */
NPUSHB[ ]	/* 19 values pushed */
12 12 1 0 12 15 12 15 14 13 7 5 0 11 1 11 6 8 22 
CALL[ ]	/* CallFunction */";
};
width = 315;
}
);
note = i;
unicode = 105;
userData = {
KernOnName = i;
};
},
{
glyphname = j;
kernLeft = KO_j;
kernRight = KO_i;
lastChange = "2024-08-16 04:03:22 +0000";
layers = (
{
layerId = m002;
shapes = (
{
closed = 1;
nodes = (
(91,-180,ls),
(231,-180,o),
(292,-124,o),
(292,0,cs),
(292,570,l),
(130,570,l),
(130,0,ls),
(130,-23,o),
(119,-40,o),
(91,-40,cs),
(46,-40,l),
(46,-180,l)
);
},
{
closed = 1;
nodes = (
(262,632,o),
(302,666,o),
(302,715,cs),
(302,763,o),
(262,797,o),
(211,797,cs),
(159,797,o),
(119,763,o),
(119,715,cs),
(119,666,o),
(159,632,o),
(211,632,cs)
);
}
);
userData = {
assembly = "MPPEM[ ]	/* MeasurePixelPerEm */
PUSHB[ ]	/* 1 value pushed */
9 
LT[ ]	/* LessThan */
IF[ ]	/* If */
NPUSHB[ ]	/* 28 values pushed */
5 1 0 0 1 97 0 1 1 48 77 0 4 4 41 77 0 3 3 2 98 6 1 2 2 43 2 78 
ELSE[ ]	/* Else */
NPUSHB[ ]	/* 26 values pushed */
0 1 5 1 0 4 1 0 105 0 4 4 41 77 0 3 3 2 98 6 1 2 2 43 2 78 
EIF[ ]	/* EndIf */
NPUSHB[ ]	/* 21 values pushed */
13 12 1 0 20 19 16 14 12 23 13 23 7 5 0 11 1 11 7 8 22 
CALL[ ]	/* CallFunction */";
};
width = 349;
}
);
note = j;
unicode = 106;
userData = {
KernOnName = j;
};
},
{
glyphname = k;
kernLeft = KO_h;
kernRight = KO_k;
lastChange = "2025-03-02 17:30:38 +0000";
layers = (
{
anchors = (
{
name = bottom;
pos = (303,0);
},
{
name = top;
pos = (303,950);
}
);
layerId = m002;
shapes = (
{
closed = 1;
nodes = (
(586,570,l),
(389,570,l),
(142,259,l),
(142,41,l)
);
},
{
closed = 1;
nodes = (
(223,0,l),
(223,750,l),
(61,750,l),
(61,0,l)
);
},
{
closed = 1;
nodes = (
(599,0,l),
(393,380,l),
(292,248,l),
(415,0,l)
);
}
);
userData = {
assembly = "NPUSHB[ ]	/* 46 values pushed */
6 5 1 0 4 1 0 1 76 5 1 3 3 38 77 0 0 0 41 77 2 4 2 1 1 39 1 78 8 8 4 4 8 11 8 11 10 9 4 7 4 7 18 6 8 23 
CALL[ ]	/* CallFunction */";
};
width = 605;
},
{
associatedMasterId = m002;
layerId = "6F0DA3AF-CBE1-4602-B426-CE2C5D0C388A";
name = "18 Jun 24 at 22:38";
shapes = (
{
closed = 1;
nodes = (
(627,570,l),
(405,570,l),
(143,317,l),
(143,131,l)
);
},
{
closed = 1;
nodes = (
(224,0,l),
(224,750,l),
(62,750,l),
(62,0,l)
);
},
{
closed = 1;
nodes = (
(640,0,l),
(384,410,l),
(270,308,l),
(453,0,l)
);
}
);
userData = {
assembly = "NPUSHB[ ]	/* 46 values pushed */
6 5 1 0 4 1 0 1 76 5 1 3 3 38 77 0 0 0 41 77 2 4 2 1 1 39 1 78 8 8 4 4 8 11 8 11 10 9 4 7 4 7 18 6 8 23 
CALL[ ]	/* CallFunction */";
};
width = 623;
}
);
note = k;
unicode = 107;
userData = {
KernOnName = k;
};
},
{
glyphname = l;
kernLeft = KO_l;
kernRight = KO_l;
lastChange = "2025-03-02 17:31:10 +0000";
layers = (
{
anchors = (
{
name = bottom;
pos = (179,0);
},
{
name = center;
pos = (179,285);
},
{
name = top;
pos = (139,750);
},
{
name = topright;
pos = (223,750);
}
);
layerId = m002;
shapes = (
{
closed = 1;
nodes = (
(296,0,l),
(296,140,l),
(265,140,ls),
(241,140,o),
(223,158,o),
(223,183,cs),
(223,750,l),
(61,750,l),
(61,155,ls),
(61,62,o),
(123,0,o),
(216,0,cs)
);
}
);
userData = {
assembly = "NPUSHB[ ]	/* 22 values pushed */
2 1 1 1 38 77 0 0 0 39 0 78 0 0 0 3 0 3 17 3 8 23 
CALL[ ]	/* CallFunction */";
};
width = 357;
}
);
note = l;
unicode = 108;
userData = {
KernOnName = l;
};
},
{
glyphname = m;
kernLeft = KO_n;
kernRight = KO_n;
lastChange = "2024-08-16 04:03:22 +0000";
layers = (
{
associatedMasterId = m002;
background = {
shapes = (
{
closed = 1;
nodes = (
(907,0,l),
(907,378,ls),
(907,442,o),
(856,539,o),
(765,591,o),
(707,591,qs),
(639,591,o),
(535,511,o),
(503,429,q),
(561,330,l),
(561,365,o),
(586,420,o),
(630,453,o),
(661,453,qs),
(702,453,o),
(753,395,o),
(753,345,qs),
(753,0,l)
);
},
{
closed = 1;
nodes = (
(561,0,l),
(561,378,ls),
(561,442,o),
(510,539,o),
(419,591,o),
(361,591,qs),
(295,591,o),
(199,505,o),
(178,429,q),
(215,330,l),
(215,365,o),
(240,420,o),
(284,453,o),
(315,453,qs),
(356,453,o),
(407,395,o),
(407,345,qs),
(407,0,l)
);
},
{
closed = 1;
nodes = (
(215,419,l),
(197,579,l),
(61,579,l),
(61,0,l),
(215,0,l)
);
}
);
};
layerId = "9B7C54D5-3A40-41D0-B891-3C83FA7A459C";
name = "4 Jun 24 at 12:03";
shapes = (
{
closed = 1;
nodes = (
(215,0,l),
(215,346,ls),
(215,411,o),
(251,452,o),
(309,452,cs),
(312,452,ls),
(370,452,o),
(407,411,o),
(407,346,cs),
(407,0,l),
(561,0,l),
(561,346,ls),
(561,411,o),
(598,452,o),
(656,452,cs),
(659,452,ls),
(717,452,o),
(753,411,o),
(753,346,cs),
(753,0,l),
(907,0,l),
(907,356,ls),
(907,495,o),
(818,591,o),
(688,591,cs),
(659,591,ls),
(592,591,o),
(526,559,o),
(485,511,c),
(448,559,o),
(389,591,o),
(329,591,cs),
(290,591,ls),
(154,591,o),
(61,495,o),
(61,356,cs),
(61,0,l)
);
}
);
userData = {
assembly = "NPUSHB[ ]	/* 10 values pushed */
39 26 25 8 7 5 2 0 1 76 
MPPEM[ ]	/* MeasurePixelPerEm */
PUSHB[ ]	/* 1 value pushed */
20 
LT[ ]	/* LessThan */
IF[ ]	/* If */
NPUSHB[ ]	/* 22 values pushed */
3 1 0 0 1 97 6 4 2 1 1 49 77 8 7 5 3 2 2 39 2 78 
ELSE[ ]	/* Else */
NPUSHB[ ]	/* 26 values pushed */
0 6 6 41 77 3 1 0 0 1 97 4 1 1 1 49 77 8 7 5 3 2 2 39 2 78 
EIF[ ]	/* EndIf */
NPUSHB[ ]	/* 16 values pushed */
36 36 36 40 36 40 18 20 38 35 20 38 34 9 8 29 
CALL[ ]	/* CallFunction */";
};
width = 962;
},
{
associatedMasterId = m002;
layerId = "2EA77502-529D-4EC5-BD07-462E2347049B";
name = "24 Jun 24 at 16:51";
shapes = (
{
closed = 1;
nodes = (
(224,0,l),
(224,362,ls),
(224,412,o),
(262,444,o),
(322,444,cs),
(383,444,o),
(421,412,o),
(421,362,cs),
(421,0,l),
(583,0,l),
(583,362,ls),
(583,412,o),
(621,444,o),
(681,444,cs),
(741,444,o),
(779,412,o),
(779,362,cs),
(777,0,l),
(940,0,l),
(940,362,ls),
(940,503,o),
(849,590,o),
(704,590,cs),
(607,590,o),
(522,539,o),
(483,457,c),
(524,457,l),
(485,539,o),
(399,590,o),
(301,590,cs),
(154,590,o),
(62,503,o),
(62,362,cs),
(62,0,l)
);
}
);
userData = {
assembly = "NPUSHB[ ]	/* 10 values pushed */
39 26 25 8 7 5 2 0 1 76 
MPPEM[ ]	/* MeasurePixelPerEm */
PUSHB[ ]	/* 1 value pushed */
20 
LT[ ]	/* LessThan */
IF[ ]	/* If */
NPUSHB[ ]	/* 22 values pushed */
3 1 0 0 1 97 6 4 2 1 1 49 77 8 7 5 3 2 2 39 2 78 
ELSE[ ]	/* Else */
NPUSHB[ ]	/* 26 values pushed */
0 6 6 41 77 3 1 0 0 1 97 4 1 1 1 49 77 8 7 5 3 2 2 39 2 78 
EIF[ ]	/* EndIf */
NPUSHB[ ]	/* 16 values pushed */
36 36 36 40 36 40 18 20 38 35 20 38 34 9 8 29 
CALL[ ]	/* CallFunction */";
};
width = 997;
},
{
layerId = m002;
name = Bold;
shapes = (
{
closed = 1;
nodes = (
(217,0,l),
(217,340,ls),
(217,401,o),
(257,444,o),
(315,444,cs),
(373,444,o),
(414,401,o),
(414,340,cs),
(414,0,l),
(576,0,l),
(576,340,ls),
(576,401,o),
(616,444,o),
(674,444,cs),
(732,444,o),
(772,401,o),
(772,340,cs),
(770,0,l),
(933,0,l),
(933,340,ls),
(933,487,o),
(836,590,o),
(697,590,cs),
(600,590,o),
(515,539,o),
(476,457,c),
(517,457,l),
(478,539,o),
(392,590,o),
(294,590,cs),
(154,590,o),
(55,487,o),
(55,340,cs),
(55,0,l)
);
}
);
userData = {
assembly = "NPUSHB[ ]	/* 10 values pushed */
39 26 25 8 7 5 2 0 1 76 
MPPEM[ ]	/* MeasurePixelPerEm */
PUSHB[ ]	/* 1 value pushed */
20 
LT[ ]	/* LessThan */
IF[ ]	/* If */
NPUSHB[ ]	/* 22 values pushed */
3 1 0 0 1 97 6 4 2 1 1 49 77 8 7 5 3 2 2 39 2 78 
ELSE[ ]	/* Else */
NPUSHB[ ]	/* 26 values pushed */
0 6 6 41 77 3 1 0 0 1 97 4 1 1 1 49 77 8 7 5 3 2 2 39 2 78 
EIF[ ]	/* EndIf */
NPUSHB[ ]	/* 16 values pushed */
36 36 36 40 36 40 18 20 38 35 20 38 34 9 8 29 
CALL[ ]	/* CallFunction */";
};
width = 988;
},
{
associatedMasterId = m002;
layerId = "D575319A-51BF-42D5-8CEC-08FCC396D1DB";
name = "24 Jun 24 at 17:09";
shapes = (
{
closed = 1;
nodes = (
(224,0,l),
(224,342,ls),
(224,405,o),
(262,444,o),
(322,444,cs),
(383,444,o),
(421,405,o),
(421,342,cs),
(421,0,l),
(583,0,l),
(583,342,ls),
(583,405,o),
(621,444,o),
(681,444,cs),
(741,444,o),
(779,405,o),
(779,342,cs),
(777,0,l),
(940,0,l),
(940,342,ls),
(940,494,o),
(849,590,o),
(704,590,cs),
(607,590,o),
(522,539,o),
(483,457,c),
(524,457,l),
(485,539,o),
(399,590,o),
(301,590,cs),
(154,590,o),
(62,494,o),
(62,342,cs),
(62,0,l)
);
}
);
userData = {
assembly = "NPUSHB[ ]	/* 10 values pushed */
39 26 25 8 7 5 2 0 1 76 
MPPEM[ ]	/* MeasurePixelPerEm */
PUSHB[ ]	/* 1 value pushed */
20 
LT[ ]	/* LessThan */
IF[ ]	/* If */
NPUSHB[ ]	/* 22 values pushed */
3 1 0 0 1 97 6 4 2 1 1 49 77 8 7 5 3 2 2 39 2 78 
ELSE[ ]	/* Else */
NPUSHB[ ]	/* 26 values pushed */
0 6 6 41 77 3 1 0 0 1 97 4 1 1 1 49 77 8 7 5 3 2 2 39 2 78 
EIF[ ]	/* EndIf */
NPUSHB[ ]	/* 16 values pushed */
36 36 36 40 36 40 18 20 38 35 20 38 34 9 8 29 
CALL[ ]	/* CallFunction */";
};
width = 997;
},
{
associatedMasterId = m002;
layerId = "8A94A6F8-5A16-405D-B3CE-0D365473E7B1";
name = "1 Jul 24 at 12:08";
shapes = (
{
closed = 1;
nodes = (
(281,0,l),
(281,340,ls),
(281,374,o),
(303,396,o),
(338,396,cs),
(373,396,o),
(395,374,o),
(395,340,cs),
(395,0,l),
(615,0,l),
(615,340,ls),
(615,374,o),
(637,396,o),
(672,396,cs),
(707,396,o),
(729,374,o),
(729,340,cs),
(729,0,l),
(948,0,l),
(948,346,ls),
(948,490,o),
(852,590,o),
(698,590,cs),
(579,590,o),
(492,517,o),
(456,387,c),
(557,387,l),
(521,517,o),
(433,590,o),
(312,590,cs),
(158,590,o),
(62,490,o),
(62,346,cs),
(62,0,l)
);
}
);
userData = {
assembly = "NPUSHB[ ]	/* 10 values pushed */
39 26 25 8 7 5 2 0 1 76 
MPPEM[ ]	/* MeasurePixelPerEm */
PUSHB[ ]	/* 1 value pushed */
20 
LT[ ]	/* LessThan */
IF[ ]	/* If */
NPUSHB[ ]	/* 22 values pushed */
3 1 0 0 1 97 6 4 2 1 1 49 77 8 7 5 3 2 2 39 2 78 
ELSE[ ]	/* Else */
NPUSHB[ ]	/* 26 values pushed */
0 6 6 41 77 3 1 0 0 1 97 4 1 1 1 49 77 8 7 5 3 2 2 39 2 78 
EIF[ ]	/* EndIf */
NPUSHB[ ]	/* 16 values pushed */
36 36 36 40 36 40 18 20 38 35 20 38 34 9 8 29 
CALL[ ]	/* CallFunction */";
};
width = 997;
}
);
metricLeft = n;
metricRight = n;
note = m;
unicode = 109;
},
{
glyphname = n;
kernLeft = KO_n;
kernRight = KO_n;
lastChange = "2025-03-02 13:14:17 +0000";
layers = (
{
associatedMasterId = m002;
layerId = "2C267EE3-747A-4539-BF66-61AFBC9D72D3";
name = "17 Jun 24 at 16:57";
shapes = (
{
closed = 1;
nodes = (
(215,0,l),
(215,346,ls),
(215,411,o),
(254,452,o),
(317,452,cs),
(320,452,ls),
(383,452,o),
(423,411,o),
(423,346,cs),
(423,0,l),
(577,0,l),
(577,356,ls),
(577,495,o),
(483,591,o),
(347,591,cs),
(292,591,ls),
(155,591,o),
(61,495,o),
(61,356,cs),
(61,0,l)
);
}
);
userData = {
assembly = "PUSHB[ ]	/* 8 values pushed */
13 12 3 3 1 2 1 76 
MPPEM[ ]	/* MeasurePixelPerEm */
PUSHB[ ]	/* 1 value pushed */
20 
LT[ ]	/* LessThan */
IF[ ]	/* If */
NPUSHB[ ]	/* 19 values pushed */
0 2 2 0 97 3 1 0 0 41 77 4 5 2 1 1 39 1 78 
ELSE[ ]	/* Else */
NPUSHB[ ]	/* 23 values pushed */
0 0 0 41 77 0 2 2 3 97 0 3 3 49 77 4 5 2 1 1 39 1 78 
EIF[ ]	/* EndIf */
NPUSHB[ ]	/* 16 values pushed */
0 0 22 21 17 15 9 7 0 4 0 4 17 6 8 23 
CALL[ ]	/* CallFunction */";
};
width = 632;
},
{
associatedMasterId = m002;
layerId = "3BB989D4-C9B6-48C8-9C89-0636C3A6C6BE";
name = "24 Jun 24 at 16:05";
shapes = (
{
closed = 1;
nodes = (
(224,0,l),
(224,431,l),
(206,570,l),
(62,570,l),
(62,0,l)
);
},
{
closed = 1;
nodes = (
(578,0,l),
(578,372,ls),
(578,498,o),
(497,585,o),
(369,585,cs),
(277,585,o),
(207,524,o),
(178,423,c),
(216,324,l),
(216,397,o),
(254,446,o),
(317,446,cs),
(378,446,o),
(416,404,o),
(416,339,cs),
(416,0,l)
);
}
);
userData = {
assembly = "PUSHB[ ]	/* 8 values pushed */
13 12 3 3 1 2 1 76 
MPPEM[ ]	/* MeasurePixelPerEm */
PUSHB[ ]	/* 1 value pushed */
20 
LT[ ]	/* LessThan */
IF[ ]	/* If */
NPUSHB[ ]	/* 19 values pushed */
0 2 2 0 97 3 1 0 0 41 77 4 5 2 1 1 39 1 78 
ELSE[ ]	/* Else */
NPUSHB[ ]	/* 23 values pushed */
0 0 0 41 77 0 2 2 3 97 0 3 3 49 77 4 5 2 1 1 39 1 78 
EIF[ ]	/* EndIf */
NPUSHB[ ]	/* 16 values pushed */
0 0 22 21 17 15 9 7 0 4 0 4 17 6 8 23 
CALL[ ]	/* CallFunction */";
};
width = 635;
},
{
associatedMasterId = m002;
layerId = "3014F6BC-6566-4D9C-AC91-E8A499A6554A";
name = "24 Jun 24 at 16:51";
shapes = (
{
closed = 1;
nodes = (
(224,0,l),
(224,363,ls),
(224,413,o),
(261,445,o),
(320,445,cs),
(379,445,o),
(416,413,o),
(416,363,cs),
(416,0,l),
(578,0,l),
(578,365,ls),
(578,500,o),
(478,585,o),
(320,585,cs),
(162,585,o),
(62,500,o),
(62,365,cs),
(62,0,l)
);
}
);
userData = {
assembly = "PUSHB[ ]	/* 8 values pushed */
13 12 3 3 1 2 1 76 
MPPEM[ ]	/* MeasurePixelPerEm */
PUSHB[ ]	/* 1 value pushed */
20 
LT[ ]	/* LessThan */
IF[ ]	/* If */
NPUSHB[ ]	/* 19 values pushed */
0 2 2 0 97 3 1 0 0 41 77 4 5 2 1 1 39 1 78 
ELSE[ ]	/* Else */
NPUSHB[ ]	/* 23 values pushed */
0 0 0 41 77 0 2 2 3 97 0 3 3 49 77 4 5 2 1 1 39 1 78 
EIF[ ]	/* EndIf */
NPUSHB[ ]	/* 16 values pushed */
0 0 22 21 17 15 9 7 0 4 0 4 17 6 8 23 
CALL[ ]	/* CallFunction */";
};
width = 635;
},
{
associatedMasterId = m002;
background = {
shapes = (
{
closed = 1;
nodes = (
(254,0,l),
(254,354,ls),
(254,389,o),
(290,428,o),
(320,428,qs),
(351,428,o),
(387,389,o),
(387,354,qs),
(387,0,l),
(552,0,l),
(552,358,ls),
(552,476,o),
(425,588,o),
(320,588,qs),
(216,588,o),
(89,476,o),
(89,358,qs),
(89,0,l)
);
}
);
};
layerId = "40177B54-C5E6-4F87-9E5F-C463DAA78B7F";
name = "24 Jun 24 at 17:49";
shapes = (
{
closed = 1;
nodes = (
(224,0,l),
(224,343,ls),
(224,406,o),
(261,445,o),
(320,445,cs),
(379,445,o),
(416,406,o),
(416,343,cs),
(416,0,l),
(578,0,l),
(578,355,ls),
(578,509,o),
(485,585,o),
(320,585,cs),
(155,585,o),
(62,509,o),
(62,355,cs),
(62,0,l)
);
}
);
userData = {
assembly = "PUSHB[ ]	/* 8 values pushed */
13 12 3 3 1 2 1 76 
MPPEM[ ]	/* MeasurePixelPerEm */
PUSHB[ ]	/* 1 value pushed */
20 
LT[ ]	/* LessThan */
IF[ ]	/* If */
NPUSHB[ ]	/* 19 values pushed */
0 2 2 0 97 3 1 0 0 41 77 4 5 2 1 1 39 1 78 
ELSE[ ]	/* Else */
NPUSHB[ ]	/* 23 values pushed */
0 0 0 41 77 0 2 2 3 97 0 3 3 49 77 4 5 2 1 1 39 1 78 
EIF[ ]	/* EndIf */
NPUSHB[ ]	/* 16 values pushed */
0 0 22 21 17 15 9 7 0 4 0 4 17 6 8 23 
CALL[ ]	/* CallFunction */";
};
width = 635;
},
{
anchors = (
{
name = bottom;
pos = (313,0);
},
{
name = top;
pos = (313,570);
}
);
layerId = m002;
name = Bold;
shapes = (
{
closed = 1;
nodes = (
(217,0,l),
(217,333,ls),
(217,405,o),
(257,445,o),
(313,445,cs),
(370,445,o),
(409,405,o),
(409,333,cs),
(409,0,l),
(571,0,l),
(571,335,ls),
(571,489,o),
(471,585,o),
(313,585,cs),
(155,585,o),
(55,489,o),
(55,335,cs),
(55,0,l)
);
}
);
userData = {
assembly = "PUSHB[ ]	/* 8 values pushed */
13 12 3 3 1 2 1 76 
MPPEM[ ]	/* MeasurePixelPerEm */
PUSHB[ ]	/* 1 value pushed */
20 
LT[ ]	/* LessThan */
IF[ ]	/* If */
NPUSHB[ ]	/* 19 values pushed */
0 2 2 0 97 3 1 0 0 41 77 4 5 2 1 1 39 1 78 
ELSE[ ]	/* Else */
NPUSHB[ ]	/* 23 values pushed */
0 0 0 41 77 0 2 2 3 97 0 3 3 49 77 4 5 2 1 1 39 1 78 
EIF[ ]	/* EndIf */
NPUSHB[ ]	/* 16 values pushed */
0 0 22 21 17 15 9 7 0 4 0 4 17 6 8 23 
CALL[ ]	/* CallFunction */";
};
width = 626;
}
);
note = n;
unicode = 110;
userData = {
KernOnName = n;
};
},
{
glyphname = o;
kernLeft = KO_o;
kernRight = KO_o;
lastChange = "2024-08-16 04:03:22 +0000";
layers = (
{
anchors = (
{
name = bottom;
pos = (324,0);
},
{
name = top;
pos = (324,570);
},
{
name = topright;
pos = (324,555);
}
);
layerId = m002;
shapes = (
{
closed = 1;
nodes = (
(495,-15,o),
(616,108,o),
(616,283,cs),
(616,460,o),
(495,585,o),
(324,585,cs),
(153,585,o),
(32,460,o),
(32,283,cs),
(32,108,o),
(153,-15,o),
(324,-15,cs)
);
},
{
closed = 1;
nodes = (
(249,125,o),
(197,189,o),
(197,283,cs),
(197,379,o),
(249,445,o),
(324,445,cs),
(399,445,o),
(451,379,o),
(451,283,cs),
(451,189,o),
(399,125,o),
(324,125,cs)
);
}
);
userData = {
assembly = "NPUSHB[ ]	/* 42 values pushed */
0 3 3 1 97 0 1 1 49 77 5 1 2 2 0 97 4 1 0 0 47 0 78 17 16 1 0 25 23 16 31 17 31 9 7 0 15 1 15 6 8 22 
CALL[ ]	/* CallFunction */";
};
width = 648;
},
{
anchors = (
{
name = bottom;
pos = (311,0);
},
{
name = center;
pos = (311,283);
},
{
name = ogonek;
pos = (559,10);
},
{
name = top;
pos = (311,566);
},
{
name = topright;
pos = (310,591);
}
);
associatedMasterId = m002;
layerId = "DDC42867-6D79-4A93-B9FE-0EFA8048208A";
name = "4 Jun 24 at 12:31";
shapes = (
{
closed = 1;
nodes = (
(481,-12,o),
(590,105,o),
(590,290,cs),
(590,469,o),
(485,591,o),
(310,591,cs),
(141,591,o),
(31,474,o),
(31,290,cs),
(31,101,o),
(146,-12,o),
(310,-12,cs)
);
},
{
closed = 1;
nodes = (
(237,127,o),
(186,187,o),
(186,290,cs),
(186,392,o),
(237,452,o),
(310,452,cs),
(384,452,o),
(435,392,o),
(435,290,cs),
(435,187,o),
(385,127,o),
(310,127,cs)
);
}
);
userData = {
assembly = "NPUSHB[ ]	/* 42 values pushed */
0 3 3 1 97 0 1 1 49 77 5 1 2 2 0 97 4 1 0 0 47 0 78 17 16 1 0 25 23 16 31 17 31 9 7 0 15 1 15 6 8 22 
CALL[ ]	/* CallFunction */";
};
width = 621;
}
);
note = o;
unicode = 111;
userData = {
KernOnName = o;
};
},
{
glyphname = ohorn;
kernLeft = KO_o;
lastChange = "2024-08-16 04:03:22 +0000";
layers = (
{
anchors = (
{
name = bottom;
pos = (324,0);
},
{
name = top;
pos = (324,570);
}
);
layerId = m002;
shapes = (
{
closed = 1;
nodes = (
(495,-15,o),
(616,108,o),
(616,283,cs),
(616,460,o),
(495,585,o),
(324,585,cs),
(153,585,o),
(32,460,o),
(32,283,cs),
(32,108,o),
(153,-15,o),
(324,-15,cs)
);
},
{
closed = 1;
nodes = (
(249,125,o),
(197,189,o),
(197,283,cs),
(197,379,o),
(249,445,o),
(324,445,cs),
(399,445,o),
(451,379,o),
(451,283,cs),
(451,189,o),
(399,125,o),
(324,125,cs)
);
},
{
closed = 1;
nodes = (
(592,473,o),
(658,544,o),
(646,653,c),
(520,653,l),
(527,589,o),
(510,557,o),
(463,564,cs),
(412,571,o),
(394,585,o),
(324,585,c),
(484,478,l)
);
}
);
width = 651;
}
);
metricLeft = o;
unicode = 417;
userData = {
KernOnName = ohorn;
};
},
{
glyphname = p;
kernLeft = KO_p;
kernRight = KO_b;
lastChange = "2024-08-16 04:03:22 +0000";
layers = (
{
layerId = m002;
shapes = (
{
closed = 1;
nodes = (
(500,-15,o),
(638,72,o),
(638,287,cs),
(638,462,o),
(539,585,o),
(388,585,cs),
(288,585,o),
(197,515,o),
(180,397,c),
(180,163,l),
(197,45,o),
(279,-15,o),
(379,-15,cs)
);
},
{
closed = 1;
nodes = (
(223,-180,l),
(223,412,l),
(198,570,l),
(61,570,l),
(61,-180,l)
);
},
{
closed = 1;
nodes = (
(270,118,o),
(223,180,o),
(223,280,cs),
(223,380,o),
(270,443,o),
(345,443,cs),
(424,443,o),
(473,380,o),
(473,280,cs),
(473,180,o),
(424,118,o),
(345,118,cs)
);
}
);
userData = {
assembly = "PUSHB[ ]	/* 8 values pushed */
10 9 2 3 4 5 1 76 
MPPEM[ ]	/* MeasurePixelPerEm */
PUSHB[ ]	/* 1 value pushed */
20 
LT[ ]	/* LessThan */
IF[ ]	/* If */
NPUSHB[ ]	/* 29 values pushed */
0 5 5 0 97 3 1 0 0 41 77 7 1 4 4 2 97 6 1 2 2 47 77 0 1 1 43 1 78 
ELSE[ ]	/* Else */
NPUSHB[ ]	/* 33 values pushed */
0 0 0 41 77 0 5 5 3 97 0 3 3 49 77 7 1 4 4 2 97 6 1 2 2 47 77 0 1 1 43 1 78 
EIF[ ]	/* EndIf */
NPUSHB[ ]	/* 21 values pushed */
23 22 6 5 31 29 22 37 23 37 15 13 5 21 6 21 18 16 8 8 24 
CALL[ ]	/* CallFunction */";
};
width = 670;
}
);
note = p;
unicode = 112;
},
{
glyphname = q;
kernLeft = KO_q;
kernRight = KO_a;
lastChange = "2024-08-16 04:03:22 +0000";
layers = (
{
layerId = m002;
shapes = (
{
closed = 1;
nodes = (
(391,-15,o),
(473,46,o),
(490,163,c),
(490,397,l),
(473,516,o),
(402,585,o),
(301,585,cs),
(143,585,o),
(32,460,o),
(32,282,cs),
(32,108,o),
(136,-15,o),
(283,-15,cs)
);
},
{
closed = 1;
nodes = (
(246,118,o),
(197,180,o),
(197,280,cs),
(197,380,o),
(246,443,o),
(325,443,cs),
(400,443,o),
(447,380,o),
(447,280,cs),
(447,180,o),
(400,118,o),
(325,118,cs)
);
},
{
closed = 1;
nodes = (
(609,-180,l),
(609,570,l),
(472,570,l),
(447,412,l),
(447,-180,l)
);
}
);
userData = {
assembly = "PUSHB[ ]	/* 8 values pushed */
10 9 3 3 5 4 1 76 
MPPEM[ ]	/* MeasurePixelPerEm */
PUSHB[ ]	/* 1 value pushed */
20 
LT[ ]	/* LessThan */
IF[ ]	/* If */
NPUSHB[ ]	/* 30 values pushed */
8 1 4 4 1 97 7 2 6 3 1 1 41 77 0 5 5 3 97 0 3 3 47 77 0 0 0 43 0 78 
ELSE[ ]	/* Else */
NPUSHB[ ]	/* 34 values pushed */
6 1 1 1 41 77 8 1 4 4 2 97 7 1 2 2 49 77 0 5 5 3 97 0 3 3 47 77 0 0 0 43 0 78 
EIF[ ]	/* EndIf */
NPUSHB[ ]	/* 26 values pushed */
23 22 6 5 0 0 31 29 22 37 23 37 15 13 5 21 6 21 0 4 0 4 17 9 8 23 
CALL[ ]	/* CallFunction */";
};
width = 670;
}
);
note = q;
unicode = 113;
},
{
glyphname = r;
kernLeft = KO_n;
kernRight = KO_r;
lastChange = "2025-03-02 17:33:07 +0000";
layers = (
{
anchors = (
{
name = bottom;
pos = (217,0);
},
{
name = top;
pos = (237,570);
}
);
layerId = m002;
shapes = (
{
closed = 1;
nodes = (
(223,0,l),
(223,329,ls),
(223,425,o),
(279,445,o),
(341,445,cs),
(369,445,o),
(390,441,o),
(415,437,c),
(415,576,l),
(377,584,o),
(335,585,o),
(318,585,cs),
(152,585,o),
(61,494,o),
(61,330,cs),
(61,0,l)
);
}
);
userData = {
assembly = "NPUSHB[ ]	/* 39 values pushed */
14 3 2 1 3 1 76 0 3 3 0 95 2 1 0 0 41 77 4 1 1 1 39 1 78 0 0 12 10 9 7 0 4 0 4 17 5 8 23 
CALL[ ]	/* CallFunction */";
};
width = 434;
},
{
associatedMasterId = m002;
layerId = "3A1E7824-EEE0-4313-BC82-D9C23E424B81";
name = "27 Jun 24 at 12:25";
shapes = (
{
closed = 1;
nodes = (
(224,0,l),
(224,334,ls),
(224,393,o),
(259,430,o),
(316,430,cs),
(440,430,l),
(440,570,l),
(291,570,ls),
(150,570,o),
(62,483,o),
(62,345,cs),
(62,0,l)
);
}
);
userData = {
assembly = "NPUSHB[ ]	/* 39 values pushed */
14 3 2 1 3 1 76 0 3 3 0 95 2 1 0 0 41 77 4 1 1 1 39 1 78 0 0 12 10 9 7 0 4 0 4 17 5 8 23 
CALL[ ]	/* CallFunction */";
};
width = 486;
}
);
note = r;
unicode = 114;
userData = {
KernOnName = r;
};
},
{
glyphname = s;
kernLeft = KO_s;
kernRight = KO_s;
lastChange = "2025-03-02 17:33:24 +0000";
layers = (
{
anchors = (
{
name = bottom;
pos = (263,0);
},
{
name = top;
pos = (253,570);
}
);
layerId = m002;
shapes = (
{
closed = 1;
nodes = (
(409,-15,o),
(496,55,o),
(496,175,cs),
(496,254,o),
(458,305,o),
(372,331,cs),
(342,340,o),
(280,354,o),
(247,363,cs),
(186,380,o),
(169,395,o),
(169,419,cs),
(169,455,o),
(210,470,o),
(244,470,cs),
(292,470,o),
(333,440,o),
(333,400,c),
(485,400,l),
(485,509,o),
(388,585,o),
(254,585,cs),
(146,585,o),
(19,535,o),
(19,392,cs),
(19,296,o),
(77,262,o),
(145,239,cs),
(184,226,o),
(214,219,o),
(259,208,cs),
(323,192,o),
(342,183,o),
(342,156,cs),
(342,121,o),
(308,102,o),
(261,102,cs),
(207,102,o),
(170,127,o),
(159,185,c),
(16,185,l),
(16,61,o),
(110,-15,o),
(263,-15,cs)
);
}
);
userData = {
assembly = "NPUSHB[ ]	/* 56 values pushed */
0 4 5 1 5 4 1 128 0 1 2 5 1 2 126 0 5 5 3 97 0 3 3 49 77 0 2 2 0 97 6 1 0 0 47 0 78 1 0 33 31 29 28 25 23 10 8 5 4 0 46 1 46 7 8 22 
CALL[ ]	/* CallFunction */";
};
width = 525;
},
{
associatedMasterId = m002;
layerId = "9F853B2E-DDCA-41E3-9EB4-ED6F877CEC6B";
name = "27 Jun 24 at 12:36";
shapes = (
{
closed = 1;
nodes = (
(403,-15,o),
(524,41,o),
(524,181,cs),
(524,257,o),
(490,317,o),
(400,333,cs),
(355,341,o),
(322,346,o),
(275,353,cs),
(255,356,o),
(192,366,o),
(192,415,cs),
(192,457,o),
(239,470,o),
(273,470,cs),
(325,470,o),
(366,440,o),
(366,400,c),
(513,400,l),
(513,509,o),
(416,585,o),
(279,585,cs),
(171,585,o),
(44,532,o),
(44,399,cs),
(44,311,o),
(100,252,o),
(171,241,cs),
(211,235,o),
(248,229,o),
(287,222,cs),
(327,215,o),
(373,214,o),
(373,163,cs),
(373,123,o),
(342,101,o),
(286,101,cs),
(223,101,o),
(184,131,o),
(177,185,c),
(29,185,l),
(29,70,o),
(143,-15,o),
(287,-15,cs)
);
}
);
userData = {
assembly = "NPUSHB[ ]	/* 56 values pushed */
0 4 5 1 5 4 1 128 0 1 2 5 1 2 126 0 5 5 3 97 0 3 3 49 77 0 2 2 0 97 6 1 0 0 47 0 78 1 0 33 31 29 28 25 23 10 8 5 4 0 46 1 46 7 8 22 
CALL[ ]	/* CallFunction */";
};
width = 547;
}
);
note = s;
unicode = 115;
userData = {
KernOnName = s;
};
},
{
glyphname = t;
kernLeft = KO_t;
kernRight = KO_t;
lastChange = "2025-03-02 17:38:00 +0000";
layers = (
{
anchors = (
{
name = bottom;
pos = (257,0);
},
{
name = center;
pos = (217,285);
},
{
name = top;
pos = (217,720);
},
{
name = topright;
pos = (414,950);
}
);
layerId = m002;
shapes = (
{
closed = 1;
nodes = (
(422,0,l),
(422,140,l),
(331,140,ls),
(307,140,o),
(289,158,o),
(289,183,cs),
(289,720,l),
(127,720,l),
(127,155,ls),
(127,62,o),
(189,0,o),
(282,0,cs)
);
},
{
closed = 1;
nodes = (
(405,440,l),
(405,570,l),
(33,570,l),
(33,440,l)
);
}
);
userData = {
assembly = "NPUSHB[ ]	/* 47 values pushed */
5 4 2 2 74 5 1 3 3 2 95 0 2 2 41 77 0 1 1 0 95 4 1 0 0 39 0 78 12 12 1 0 12 15 12 15 14 13 10 8 0 11 1 11 6 8 22 
CALL[ ]	/* CallFunction */";
};
width = 434;
}
);
note = t;
unicode = 116;
userData = {
KernOnName = t;
};
},
{
glyphname = u;
kernLeft = KO_u;
kernRight = KO_u;
lastChange = "2025-03-02 17:35:25 +0000";
layers = (
{
anchors = (
{
name = bottom;
pos = (316,0);
},
{
name = ogonek;
pos = (468,30);
},
{
name = top;
pos = (316,570);
},
{
name = topright;
pos = (409,570);
}
);
layerId = m002;
shapes = (
{
closed = 1;
nodes = (
(464,-15,o),
(571,88,o),
(571,235,cs),
(571,570,l),
(409,570,l),
(409,229,ls),
(409,168,o),
(369,125,o),
(313,125,cs),
(257,125,o),
(217,168,o),
(217,229,cs),
(217,570,l),
(55,570,l),
(55,235,ls),
(55,88,o),
(162,-15,o),
(313,-15,cs)
);
}
);
userData = {
assembly = "PUSHB[ ]	/* 8 values pushed */
13 12 3 3 2 1 1 76 
MPPEM[ ]	/* MeasurePixelPerEm */
PUSHB[ ]	/* 1 value pushed */
20 
LT[ ]	/* LessThan */
IF[ ]	/* If */
NPUSHB[ ]	/* 19 values pushed */
4 5 2 1 1 41 77 0 2 2 0 98 3 1 0 0 39 0 78 
ELSE[ ]	/* Else */
NPUSHB[ ]	/* 23 values pushed */
4 5 2 1 1 41 77 0 0 0 39 77 0 2 2 3 98 0 3 3 47 3 78 
EIF[ ]	/* EndIf */
NPUSHB[ ]	/* 16 values pushed */
0 0 22 21 17 15 9 7 0 4 0 4 17 6 8 23 
CALL[ ]	/* CallFunction */";
};
width = 626;
}
);
note = u;
unicode = 117;
userData = {
KernOnName = u;
};
},
{
glyphname = v;
kernLeft = KO_v;
kernRight = KO_v;
lastChange = "2024-08-16 04:03:22 +0000";
layers = (
{
layerId = m002;
shapes = (
{
closed = 1;
nodes = (
(352,-15,o),
(384,22,o),
(423,133,cs),
(576,570,l),
(413,570,l),
(275,135,l),
(312,135,l),
(170,570,l),
(3,570,l),
(161,131,ls),
(200,22,o),
(233,-15,o),
(293,-15,cs)
);
}
);
userData = {
assembly = "NPUSHB[ ]	/* 30 values pushed */
3 1 2 0 1 76 1 1 0 0 41 77 3 1 2 2 39 2 78 0 0 0 6 0 6 18 17 4 8 24 
CALL[ ]	/* CallFunction */";
};
width = 579;
}
);
note = v;
unicode = 118;
userData = {
KernOnName = v;
};
},
{
glyphname = w;
kernLeft = KO_w;
kernRight = KO_w;
lastChange = "2025-03-02 13:15:48 +0000";
layers = (
{
anchors = (
{
name = bottom;
pos = (432,0);
},
{
name = top;
pos = (432,570);
}
);
layerId = m002;
shapes = (
{
closed = 1;
nodes = (
(315,-15,o),
(342,14,o),
(367,101,cs),
(446,378,l),
(418,378,l),
(497,101,ls),
(522,14,o),
(550,-15,o),
(611,-15,cs),
(670,-15,o),
(698,14,o),
(723,102,cs),
(860,570,l),
(700,570,l),
(592,144,l),
(619,144,l),
(530,483,ls),
(511,557,o),
(484,585,o),
(433,585,cs),
(381,585,o),
(354,557,o),
(335,483,cs),
(248,146,l),
(275,146,l),
(170,570,l),
(4,570,l),
(143,102,ls),
(169,14,o),
(198,-15,o),
(256,-15,cs)
);
}
);
userData = {
assembly = "NPUSHB[ ]	/* 36 values pushed */
11 6 3 3 3 0 1 76 2 1 2 0 0 41 77 5 4 2 3 3 39 3 78 0 0 0 12 0 12 17 18 18 17 6 8 26 
CALL[ ]	/* CallFunction */";
};
width = 864;
}
);
note = w;
unicode = 119;
userData = {
KernOnName = w;
};
},
{
glyphname = x;
kernLeft = KO_x;
kernRight = KO_x;
lastChange = "2024-08-16 04:03:22 +0000";
layers = (
{
layerId = m002;
shapes = (
{
closed = 1;
nodes = (
(587,0,l),
(194,570,l),
(9,570,l),
(411,0,l)
);
},
{
closed = 1;
nodes = (
(199,0,l),
(337,220,l),
(234,314,l),
(28,0,l)
);
},
{
closed = 1;
nodes = (
(592,570,l),
(418,570,l),
(283,356,l),
(389,264,l)
);
}
);
userData = {
assembly = "NPUSHB[ ]	/* 33 values pushed */
2 1 0 0 41 77 5 3 4 3 1 1 39 1 78 4 4 0 0 4 7 4 7 6 5 0 3 0 3 17 6 8 23 
CALL[ ]	/* CallFunction */";
};
width = 602;
}
);
note = x;
unicode = 120;
userData = {
KernOnName = x;
};
},
{
glyphname = y;
kernLeft = KO_y;
kernRight = KO_y;
lastChange = "2024-08-16 04:03:22 +0000";
layers = (
{
anchors = (
{
name = bottom;
pos = (488,0);
},
{
name = top;
pos = (296,570);
}
);
layerId = m002;
shapes = (
{
closed = 1;
nodes = (
(296,-180,l),
(593,570,l),
(424,570,l),
(127,-180,l)
);
},
{
closed = 1;
nodes = (
(350,125,l),
(173,570,l),
(3,570,l),
(233,-6,l)
);
}
);
userData = {
assembly = "NPUSHB[ ]	/* 31 values pushed */
7 1 1 0 1 76 2 1 0 0 41 77 3 1 1 1 43 1 78 0 0 6 5 0 3 0 3 17 4 8 23 
CALL[ ]	/* CallFunction */";
};
width = 596;
}
);
note = y;
unicode = 121;
userData = {
KernOnName = y;
};
},
{
glyphname = z;
kernLeft = KO_z;
kernRight = KO_z;
lastChange = "2025-03-02 17:34:50 +0000";
layers = (
{
anchors = (
{
name = bottom;
pos = (257,0);
},
{
name = center;
pos = (257,285);
},
{
name = top;
pos = (257,570);
}
);
layerId = m002;
shapes = (
{
closed = 1;
nodes = (
(488,0,l),
(488,134,l),
(172,134,l),
(185,103,l),
(451,390,ls),
(478,420,o),
(494,456,o),
(494,489,cs),
(494,533,o),
(463,570,o),
(388,570,cs),
(13,570,l),
(13,436,l),
(339,436,l),
(326,467,l),
(73,203,ls),
(36,165,o),
(17,120,o),
(17,83,cs),
(17,36,o),
(48,0,o),
(116,0,cs)
);
}
);
userData = {
assembly = "NPUSHB[ ]	/* 42 values pushed */
1 1 2 6 1 0 2 75 0 2 2 3 95 4 1 3 3 41 77 0 0 0 1 95 0 1 1 39 1 78 0 0 0 9 0 9 18 17 18 5 8 25 
CALL[ ]	/* CallFunction */";
};
width = 513;
}
);
note = z;
unicode = 122;
userData = {
KernOnName = z;
};
},
{
glyphname = zero;
kernLeft = KO_zero;
kernRight = KO_zero;
lastChange = "2024-08-16 04:03:22 +0000";
layers = (
{
layerId = m002;
shapes = (
{
closed = 1;
nodes = (
(536,-12,o),
(655,136,o),
(655,372,cs),
(655,610,o),
(537,760,o),
(350,760,cs),
(161,760,o),
(43,612,o),
(43,375,cs),
(43,137,o),
(160,-12,o),
(346,-12,cs)
);
},
{
closed = 1;
nodes = (
(263,134,o),
(221,214,o),
(221,375,cs),
(221,535,o),
(263,614,o),
(349,614,cs),
(435,614,o),
(477,535,o),
(477,375,cs),
(477,214,o),
(435,134,o),
(349,134,cs)
);
}
);
userData = {
assembly = "NPUSHB[ ]	/* 42 values pushed */
5 1 2 2 0 97 4 1 0 0 46 77 0 3 3 1 97 0 1 1 47 1 78 17 16 1 0 24 22 16 30 17 30 9 7 0 15 1 15 6 8 22 
CALL[ ]	/* CallFunction */";
};
width = 698;
},
{
associatedMasterId = m002;
layerId = m003;
shapes = (
{
closed = 1;
nodes = (
(537,-15,o),
(646,130,o),
(646,374,cs),
(646,618,o),
(537,765,o),
(357,765,cs),
(174,765,o),
(64,620,o),
(64,375,cs),
(64,129,o),
(174,-15,o),
(355,-15,cs)
);
},
{
closed = 1;
nodes = (
(232,71,o),
(165,180,o),
(165,375,cs),
(165,571,o),
(232,680,o),
(356,680,cs),
(478,680,o),
(546,572,o),
(546,375,cs),
(546,179,o),
(478,71,o),
(356,71,cs)
);
}
);
userData = {
assembly = "NPUSHB[ ]	/* 42 values pushed */
5 1 2 2 0 97 4 1 0 0 46 77 0 3 3 1 97 0 1 1 47 1 78 17 16 1 0 24 22 16 30 17 30 9 7 0 15 1 15 6 8 22 
CALL[ ]	/* CallFunction */";
};
width = 710;
},
{
associatedMasterId = m002;
layerId = m004;
shapes = (
{
closed = 1;
nodes = (
(529,-12,o),
(631,129,o),
(631,374,cs),
(631,619,o),
(529,760,o),
(351,760,cs),
(172,760,o),
(69,619,o),
(69,374,cs),
(69,129,o),
(172,-12,o),
(351,-12,cs)
);
},
{
closed = 1;
nodes = (
(202,32,o),
(117,157,o),
(117,374,cs),
(117,592,o),
(202,717,o),
(351,717,cs),
(498,717,o),
(583,592,o),
(583,374,cs),
(583,157,o),
(498,32,o),
(351,32,cs)
);
}
);
userData = {
assembly = "NPUSHB[ ]	/* 42 values pushed */
5 1 2 2 0 97 4 1 0 0 46 77 0 3 3 1 97 0 1 1 47 1 78 17 16 1 0 24 22 16 30 17 30 9 7 0 15 1 15 6 8 22 
CALL[ ]	/* CallFunction */";
};
width = 700;
}
);
note = zero;
unicode = 48;
userData = {
KernOnName = zero;
};
},
{
glyphname = one;
kernLeft = KO_one;
lastChange = "2024-08-16 04:03:22 +0000";
layers = (
{
layerId = m002;
shapes = (
{
closed = 1;
nodes = (
(402,0,l),
(402,748,l),
(236,748,l),
(202,609,o),
(150,608,o),
(33,608,c),
(33,457,l),
(158,457,o),
(191,462,o),
(228,490,c),
(228,0,l)
);
}
);
userData = {
assembly = "PUSHB[ ]	/* 6 values pushed */
4 1 2 3 1 76 
MPPEM[ ]	/* MeasurePixelPerEm */
PUSHB[ ]	/* 1 value pushed */
30 
LT[ ]	/* LessThan */
IF[ ]	/* If */
NPUSHB[ ]	/* 21 values pushed */
0 0 0 38 77 0 2 2 3 97 0 3 3 49 77 0 1 1 39 1 78 
ELSE[ ]	/* Else */
NPUSHB[ ]	/* 19 values pushed */
0 3 0 2 1 3 2 105 0 0 0 38 77 0 1 1 39 1 78 
EIF[ ]	/* EndIf */
PUSHB[ ]	/* 7 values pushed */
33 35 17 16 4 8 26 
CALL[ ]	/* CallFunction */";
};
width = 475;
},
{
associatedMasterId = m002;
background = {
shapes = (
{
closed = 1;
nodes = (
(279,0,l),
(279,748,l),
(221,748,l),
(212,650,o),
(174,608,o),
(92,608,cs),
(28,608,l),
(28,568,l),
(92,568,ls),
(164,568,o),
(206,581,o),
(231,632,c),
(231,0,l)
);
}
);
};
layerId = m003;
shapes = (
{
closed = 1;
nodes = (
(338,0,l),
(338,750,l),
(247,750,l),
(213,611,o),
(161,610,o),
(44,610,c),
(44,522,l),
(169,522,o),
(202,527,o),
(239,569,c),
(239,0,l)
);
}
);
userData = {
assembly = "PUSHB[ ]	/* 6 values pushed */
4 1 2 3 1 76 
MPPEM[ ]	/* MeasurePixelPerEm */
PUSHB[ ]	/* 1 value pushed */
30 
LT[ ]	/* LessThan */
IF[ ]	/* If */
NPUSHB[ ]	/* 21 values pushed */
0 0 0 38 77 0 2 2 3 97 0 3 3 49 77 0 1 1 39 1 78 
ELSE[ ]	/* Else */
NPUSHB[ ]	/* 19 values pushed */
0 3 0 2 1 3 2 105 0 0 0 38 77 0 1 1 39 1 78 
EIF[ ]	/* EndIf */
PUSHB[ ]	/* 7 values pushed */
33 35 17 16 4 8 26 
CALL[ ]	/* CallFunction */";
};
width = 435;
},
{
associatedMasterId = m002;
background = {
shapes = (
{
closed = 1;
nodes = (
(264,0,l),
(264,748,l),
(206,748,l),
(197,650,o),
(159,608,o),
(77,608,cs),
(13,608,l),
(13,568,l),
(77,568,ls),
(149,568,o),
(191,581,o),
(216,632,c),
(216,0,l)
);
}
);
};
layerId = m004;
shapes = (
{
closed = 1;
nodes = (
(289,0,l),
(289,748,l),
(249,748,l),
(215,609,o),
(163,608,o),
(46,608,c),
(46,566,l),
(171,566,o),
(204,571,o),
(241,619,c),
(241,0,l)
);
}
);
userData = {
assembly = "PUSHB[ ]	/* 6 values pushed */
4 1 2 3 1 76 
MPPEM[ ]	/* MeasurePixelPerEm */
PUSHB[ ]	/* 1 value pushed */
30 
LT[ ]	/* LessThan */
IF[ ]	/* If */
NPUSHB[ ]	/* 21 values pushed */
0 0 0 38 77 0 2 2 3 97 0 3 3 49 77 0 1 1 39 1 78 
ELSE[ ]	/* Else */
NPUSHB[ ]	/* 19 values pushed */
0 3 0 2 1 3 2 105 0 0 0 38 77 0 1 1 39 1 78 
EIF[ ]	/* EndIf */
PUSHB[ ]	/* 7 values pushed */
33 35 17 16 4 8 26 
CALL[ ]	/* CallFunction */";
};
width = 393;
}
);
note = one;
unicode = 49;
userData = {
KernOnSpecialSpacing = {
R = NoKerning;
};
};
},
{
glyphname = two;
kernLeft = KO_two;
kernRight = KO_two;
lastChange = "2024-08-16 04:03:22 +0000";
layers = (
{
layerId = m002;
shapes = (
{
closed = 1;
nodes = (
(567,0,l),
(567,148,l),
(183,148,l),
(232,125,l),
(213,173,o),
(282,217,o),
(354,256,cs),
(486,327,o),
(583,395,o),
(583,534,cs),
(583,676,o),
(479,765,o),
(313,765,cs),
(129,765,o),
(31,647,o),
(37,481,c),
(201,481,l),
(203,569,o),
(252,619,o),
(313,619,cs),
(370,619,o),
(410,583,o),
(410,534,cs),
(410,456,o),
(329,420,o),
(259,387,cs),
(94,309,o),
(35,222,o),
(35,86,cs),
(35,0,l)
);
}
);
userData = {
assembly = "NPUSHB[ ]	/* 47 values pushed */
0 4 3 1 3 4 1 128 0 3 3 0 97 5 1 0 0 46 77 0 1 1 2 95 0 2 2 39 2 78 1 0 32 31 28 26 15 14 13 12 0 35 1 35 6 8 22 
CALL[ ]	/* CallFunction */";
};
width = 626;
},
{
associatedMasterId = m002;
background = {
shapes = (
{
closed = 1;
nodes = (
(9,0,l),
(541,0,l),
(541,148,l),
(203,148,l),
(211,192,o),
(278,228,o),
(332,258,cs),
(448,322,o),
(557,388,o),
(557,533,cs),
(557,676,o),
(452,765,o),
(289,765,cs),
(102,765,o),
(5,647,o),
(11,481,c),
(175,481,l),
(177,569,o),
(225,619,o),
(289,619,cs),
(344,619,o),
(384,583,o),
(384,532,cs),
(384,491,o),
(357,459,o),
(326,437,cs),
(299,418,o),
(262,401,o),
(241,391,cs),
(95,320,o),
(9,248,o),
(9,86,cs)
);
}
);
};
layerId = m003;
shapes = (
{
closed = 1;
nodes = (
(547,0,l),
(547,84,l),
(120,84,l),
(161,50,l),
(141,185,o),
(245,243,o),
(337,292,cs),
(453,354,o),
(560,418,o),
(560,551,cs),
(560,679,o),
(462,765,o),
(318,765,cs),
(156,765,o),
(56,655,o),
(53,497,c),
(147,497,l),
(154,616,o),
(226,681,o),
(318,681,cs),
(402,681,o),
(462,628,o),
(462,553,cs),
(462,457,o),
(376,412,o),
(289,367,cs),
(154,299,o),
(51,220,o),
(51,48,cs),
(51,0,l)
);
}
);
userData = {
assembly = "NPUSHB[ ]	/* 47 values pushed */
0 4 3 1 3 4 1 128 0 3 3 0 97 5 1 0 0 46 77 0 1 1 2 95 0 2 2 39 2 78 1 0 32 31 28 26 15 14 13 12 0 35 1 35 6 8 22 
CALL[ ]	/* CallFunction */";
};
width = 614;
},
{
associatedMasterId = m002;
background = {
shapes = (
{
closed = 1;
nodes = (
(0,0,l),
(532,0,l),
(532,148,l),
(194,148,l),
(202,192,o),
(269,228,o),
(323,258,cs),
(439,322,o),
(548,388,o),
(548,533,cs),
(548,676,o),
(443,765,o),
(280,765,cs),
(93,765,o),
(-4,647,o),
(2,481,c),
(166,481,l),
(168,569,o),
(216,619,o),
(280,619,cs),
(335,619,o),
(375,583,o),
(375,532,cs),
(375,491,o),
(348,459,o),
(317,437,cs),
(290,418,o),
(253,401,o),
(232,391,cs),
(86,320,o),
(0,248,o),
(0,86,cs)
);
}
);
};
layerId = m004;
shapes = (
{
closed = 1;
nodes = (
(527,0,l),
(527,42,l),
(69,42,l),
(106,-1,l),
(85,191,o),
(212,258,o),
(319,315,cs),
(426,372,o),
(538,432,o),
(538,560,cs),
(538,677,o),
(445,760,o),
(315,760,cs),
(170,760,o),
(67,659,o),
(57,506,c),
(103,506,l),
(112,638,o),
(196,718,o),
(315,718,cs),
(419,718,o),
(490,655,o),
(490,562,cs),
(490,452,o),
(392,399,o),
(300,350,cs),
(193,293,o),
(55,221,o),
(55,22,cs),
(55,0,l)
);
}
);
userData = {
assembly = "NPUSHB[ ]	/* 47 values pushed */
0 4 3 1 3 4 1 128 0 3 3 0 97 5 1 0 0 46 77 0 1 1 2 95 0 2 2 39 2 78 1 0 32 31 28 26 15 14 13 12 0 35 1 35 6 8 22 
CALL[ ]	/* CallFunction */";
};
width = 594;
}
);
note = two;
unicode = 50;
userData = {
KernOnName = two;
};
},
{
glyphname = three;
kernLeft = KO_three;
kernRight = KO_three;
lastChange = "2024-08-16 04:03:22 +0000";
layers = (
{
layerId = m002;
shapes = (
{
closed = 1;
nodes = (
(474,-15,o),
(582,79,o),
(582,222,cs),
(582,334,o),
(515,388,o),
(391,403,c),
(407,377,l),
(503,396,o),
(566,466,o),
(566,558,cs),
(566,679,o),
(458,764,o),
(302,764,cs),
(127,764,o),
(35,657,o),
(37,512,c),
(192,512,l),
(189,566,o),
(225,620,o),
(297,620,cs),
(355,620,o),
(394,585,o),
(394,535,cs),
(394,486,o),
(356,454,o),
(303,454,cs),
(244,454,l),
(244,319,l),
(303,319,ls),
(372,319,o),
(413,284,o),
(413,228,cs),
(413,173,o),
(374,129,o),
(306,129,cs),
(237,129,o),
(192,173,o),
(186,248,c),
(31,248,l),
(35,95,o),
(123,-15,o),
(305,-15,cs)
);
}
);
userData = {
assembly = "NPUSHB[ ]	/* 75 values pushed */
43 1 3 4 1 76 0 6 5 4 5 6 4 128 0 1 3 2 3 1 2 128 0 4 0 3 1 4 3 105 0 5 5 7 97 0 7 7 46 77 0 2 2 0 97 8 1 0 0 47 0 78 1 0 36 34 31 30 28 26 20 18 17 15 9 7 5 4 0 50 1 50 9 8 22 
CALL[ ]	/* CallFunction */";
};
width = 627;
},
{
associatedMasterId = m002;
background = {
shapes = (
{
closed = 0;
nodes = (
(279,-12,ls),
(143,-12,o),
(37,93,o),
(28,248,c),
(76,248,l),
(83,119,o),
(167,30,o),
(279,30,cs)
);
}
);
};
layerId = m003;
shapes = (
{
closed = 1;
nodes = (
(450,-15,o),
(551,77,o),
(551,214,cs),
(551,325,o),
(483,386,o),
(382,396,c),
(389,379,l),
(480,392,o),
(541,460,o),
(541,557,cs),
(541,679,o),
(441,765,o),
(300,765,cs),
(148,765,o),
(51,668,o),
(46,513,c),
(137,513,l),
(140,611,o),
(200,680,o),
(298,680,cs),
(384,680,o),
(443,625,o),
(443,545,cs),
(443,470,o),
(391,423,o),
(314,423,cs),
(236,423,l),
(236,344,l),
(314,344,ls),
(400,344,o),
(455,295,o),
(455,216,cs),
(455,130,o),
(394,68,o),
(301,68,cs),
(203,68,o),
(138,135,o),
(131,247,c),
(40,247,l),
(47,93,o),
(137,-15,o),
(301,-15,cs)
);
}
);
userData = {
assembly = "NPUSHB[ ]	/* 75 values pushed */
43 1 3 4 1 76 0 6 5 4 5 6 4 128 0 1 3 2 3 1 2 128 0 4 0 3 1 4 3 105 0 5 5 7 97 0 7 7 46 77 0 2 2 0 97 8 1 0 0 47 0 78 1 0 36 34 31 30 28 26 20 18 17 15 9 7 5 4 0 50 1 50 9 8 22 
CALL[ ]	/* CallFunction */";
};
width = 615;
},
{
associatedMasterId = m002;
background = {
shapes = (
{
closed = 0;
nodes = (
(268,-12,ls),
(132,-12,o),
(26,93,o),
(17,248,c),
(65,248,l),
(72,119,o),
(156,30,o),
(268,30,cs)
);
}
);
};
layerId = m004;
shapes = (
{
closed = 1;
nodes = (
(431,-12,o),
(526,78,o),
(526,208,cs),
(526,310,o),
(467,383,o),
(372,391,c),
(371,380,l),
(464,389,o),
(521,459,o),
(521,554,cs),
(521,675,o),
(428,760,o),
(294,760,cs),
(152,760,o),
(57,664,o),
(48,512,c),
(94,512,l),
(101,639,o),
(178,718,o),
(293,718,cs),
(400,718,o),
(473,650,o),
(473,551,cs),
(473,460,o),
(413,403,o),
(318,403,cs),
(227,403,l),
(227,362,l),
(317,362,ls),
(417,362,o),
(478,304,o),
(478,209,cs),
(478,103,o),
(403,30,o),
(292,30,cs),
(174,30,o),
(95,114,o),
(88,248,c),
(42,248,l),
(51,88,o),
(148,-12,o),
(293,-12,cs)
);
}
);
userData = {
assembly = "NPUSHB[ ]	/* 75 values pushed */
43 1 3 4 1 76 0 6 5 4 5 6 4 128 0 1 3 2 3 1 2 128 0 4 0 3 1 4 3 105 0 5 5 7 97 0 7 7 46 77 0 2 2 0 97 8 1 0 0 47 0 78 1 0 36 34 31 30 28 26 20 18 17 15 9 7 5 4 0 50 1 50 9 8 22 
CALL[ ]	/* CallFunction */";
};
width = 595;
}
);
note = three;
unicode = 51;
},
{
glyphname = four;
kernLeft = KO_four;
kernRight = KO_four;
lastChange = "2024-08-16 04:03:22 +0000";
layers = (
{
layerId = m002;
shapes = (
{
closed = 1;
nodes = (
(605,142,l),
(605,284,l),
(212,284,ls),
(208,284,o),
(207,286,o),
(209,290,cs),
(439,748,l),
(257,748,l),
(78,397,ls),
(47,336,o),
(18,292,o),
(18,246,cs),
(18,183,o),
(60,142,o),
(128,142,cs)
);
},
{
closed = 1;
nodes = (
(515,0,l),
(515,465,l),
(355,465,l),
(355,0,l)
);
}
);
userData = {
assembly = "NPUSHB[ ]	/* 46 values pushed */
9 8 1 3 1 0 1 76 0 1 4 1 2 3 1 2 104 0 0 0 38 77 5 1 3 3 39 3 78 7 7 0 0 7 10 7 10 0 6 0 6 17 18 6 8 24 
CALL[ ]	/* CallFunction */";
};
width = 635;
},
{
associatedMasterId = m002;
layerId = m003;
shapes = (
{
closed = 1;
nodes = (
(479,0,l),
(479,164,l),
(570,164,l),
(570,248,l),
(479,248,l),
(479,466,l),
(389,466,l),
(389,248,l),
(129,248,l),
(363,750,l),
(259,750,l),
(25,249,l),
(25,164,l),
(389,164,l),
(389,0,l)
);
}
);
userData = {
assembly = "NPUSHB[ ]	/* 46 values pushed */
9 8 1 3 1 0 1 76 0 1 4 1 2 3 1 2 104 0 0 0 38 77 5 1 3 3 39 3 78 7 7 0 0 7 10 7 10 0 6 0 6 17 18 6 8 24 
CALL[ ]	/* CallFunction */";
};
width = 612;
},
{
associatedMasterId = m002;
layerId = m004;
shapes = (
{
closed = 1;
nodes = (
(456,0,l),
(456,180,l),
(548,180,l),
(548,222,l),
(456,222,l),
(456,465,l),
(411,465,l),
(411,222,l),
(76,222,l),
(312,748,l),
(261,748,l),
(26,219,l),
(26,180,l),
(411,180,l),
(411,0,l)
);
}
);
userData = {
assembly = "NPUSHB[ ]	/* 46 values pushed */
9 8 1 3 1 0 1 76 0 1 4 1 2 3 1 2 104 0 0 0 38 77 5 1 3 3 39 3 78 7 7 0 0 7 10 7 10 0 6 0 6 17 18 6 8 24 
CALL[ ]	/* CallFunction */";
};
width = 594;
}
);
note = four;
unicode = 52;
},
{
glyphname = five;
kernRight = KO_five;
lastChange = "2024-08-16 04:03:22 +0000";
layers = (
{
layerId = m002;
shapes = (
{
closed = 1;
nodes = (
(489,-15,o),
(588,95,o),
(588,251,cs),
(588,413,o),
(498,509,o),
(346,509,cs),
(279,509,o),
(239,481,o),
(224,466,c),
(241,601,l),
(563,601,l),
(563,748,l),
(93,748,l),
(42,309,l),
(207,309,l),
(223,345,o),
(256,367,o),
(305,367,cs),
(376,367,o),
(415,325,o),
(415,251,cs),
(415,177,o),
(376,135,o),
(307,135,cs),
(248,135,o),
(210,169,o),
(203,229,c),
(39,229,l),
(41,87,o),
(146,-15,o),
(307,-15,cs)
);
}
);
userData = {
assembly = "NPUSHB[ ]	/* 67 values pushed */
1 1 4 0 1 76 0 5 4 2 4 5 2 128 0 2 3 4 2 3 126 0 0 0 4 5 0 4 105 8 1 7 7 6 95 0 6 6 38 77 0 3 3 1 97 0 1 1 47 1 78 0 0 0 35 0 35 17 18 38 34 19 38 35 9 8 29 
CALL[ ]	/* CallFunction */";
};
width = 628;
},
{
associatedMasterId = m002;
background = {
shapes = (
{
closed = 0;
nodes = (
(267,30,ls),
(154,30,o),
(79,107,o),
(72,230,c),
(26,230,l),
(35,81,o),
(128,-12,o),
(267,-12,cs)
);
}
);
};
layerId = m003;
shapes = (
{
closed = 1;
nodes = (
(453,-15,o),
(552,92,o),
(552,250,cs),
(552,406,o),
(460,509,o),
(322,509,cs),
(250,509,o),
(189,475,o),
(157,429,c),
(185,665,l),
(527,665,l),
(527,750,l),
(99,750,l),
(48,308,l),
(144,308,l),
(170,377,o),
(226,427,o),
(303,427,cs),
(393,427,o),
(454,358,o),
(454,250,cs),
(454,139,o),
(389,69,o),
(292,69,cs),
(200,69,o),
(150,130,o),
(143,198,c),
(49,198,l),
(56,83,o),
(141,-15,o),
(293,-15,cs)
);
}
);
userData = {
assembly = "NPUSHB[ ]	/* 67 values pushed */
1 1 4 0 1 76 0 5 4 2 4 5 2 128 0 2 3 4 2 3 126 0 0 0 4 5 0 4 105 8 1 7 7 6 95 0 6 6 38 77 0 3 3 1 97 0 1 1 47 1 78 0 0 0 35 0 35 17 18 38 34 19 38 35 9 8 29 
CALL[ ]	/* CallFunction */";
};
width = 604;
},
{
associatedMasterId = m002;
background = {
shapes = (
{
closed = 0;
nodes = (
(257,30,ls),
(144,30,o),
(69,107,o),
(62,230,c),
(16,230,l),
(25,81,o),
(118,-12,o),
(257,-12,cs)
);
}
);
};
layerId = m004;
shapes = (
{
closed = 1;
nodes = (
(428,-12,o),
(526,95,o),
(526,252,cs),
(526,405,o),
(432,509,o),
(304,509,cs),
(224,509,o),
(152,469,o),
(109,406,c),
(145,706,l),
(501,706,l),
(501,748,l),
(101,748,l),
(50,309,l),
(99,309,l),
(134,407,o),
(209,469,o),
(298,469,cs),
(404,469,o),
(478,382,o),
(478,253,cs),
(478,118,o),
(398,30,o),
(280,30,cs),
(170,30,o),
(104,106,o),
(97,199,c),
(51,199,l),
(60,80,o),
(143,-12,o),
(282,-12,cs)
);
}
);
userData = {
assembly = "NPUSHB[ ]	/* 67 values pushed */
1 1 4 0 1 76 0 5 4 2 4 5 2 128 0 2 3 4 2 3 126 0 0 0 4 5 0 4 105 8 1 7 7 6 95 0 6 6 38 77 0 3 3 1 97 0 1 1 47 1 78 0 0 0 35 0 35 17 18 38 34 19 38 35 9 8 29 
CALL[ ]	/* CallFunction */";
};
width = 582;
}
);
note = five;
unicode = 53;
userData = {
KernOnSpecialSpacing = {
L = NoKerning;
};
};
},
{
glyphname = six;
kernLeft = KO_six;
kernRight = KO_six;
lastChange = "2025-03-02 12:27:23 +0000";
layers = (
{
layerId = m002;
shapes = (
{
closed = 1;
nodes = (
(515,-15,o),
(611,102,o),
(611,242,cs),
(611,385,o),
(511,479,o),
(385,479,cs),
(310,479,o),
(215,446,o),
(199,374,c),
(213,355,l),
(209,379,o),
(208,402,o),
(208,424,cs),
(208,537,o),
(259,614,o),
(349,614,cs),
(403,614,o),
(435,582,o),
(445,542,c),
(605,542,l),
(597,677,o),
(487,765,o),
(342,765,cs),
(136,765,o),
(32,610,o),
(39,354,cs),
(45,120,o),
(144,-15,o),
(336,-15,cs)
);
},
{
closed = 1;
nodes = (
(273,132,o),
(227,177,o),
(227,241,cs),
(227,304,o),
(273,348,o),
(339,348,cs),
(403,348,o),
(448,304,o),
(448,241,cs),
(448,177,o),
(403,132,o),
(339,132,cs)
);
}
);
userData = {
assembly = "NPUSHB[ ]	/* 60 values pushed */
0 1 6 0 1 76 0 3 4 0 4 3 0 128 0 0 0 6 5 0 6 105 0 4 4 2 97 0 2 2 46 77 7 1 5 5 1 97 0 1 1 47 1 78 34 33 42 40 33 48 34 48 34 19 38 38 35 8 8 27 
CALL[ ]	/* CallFunction */";
};
width = 651;
},
{
associatedMasterId = m002;
background = {
shapes = (
{
closed = 0;
nodes = (
(317,718,ls),
(422,718,o),
(493,651,o),
(499,542,c),
(545,542,l),
(537,676,o),
(448,760,o),
(316,760,cs)
);
}
);
};
layerId = m003;
shapes = (
{
closed = 1;
nodes = (
(498,-15,o),
(600,94,o),
(600,237,cs),
(600,383,o),
(495,480,o),
(361,480,cs),
(260,480,o),
(165,423,o),
(140,325,c),
(150,318,l),
(150,329,o),
(149,341,o),
(149,392,cs),
(149,571,o),
(221,678,o),
(343,678,cs),
(429,678,o),
(485,623,o),
(492,544,c),
(584,544,l),
(576,680,o),
(474,765,o),
(341,765,cs),
(124,765,o),
(49,566,o),
(52,360,cs),
(55,153,o),
(137,-15,o),
(338,-15,cs)
);
},
{
closed = 1;
nodes = (
(240,70,o),
(171,141,o),
(171,239,cs),
(171,336,o),
(240,404,o),
(339,404,cs),
(436,404,o),
(505,338,o),
(505,238,cs),
(505,139,o),
(436,70,o),
(339,70,cs)
);
}
);
userData = {
assembly = "NPUSHB[ ]	/* 60 values pushed */
0 1 6 0 1 76 0 3 4 0 4 3 0 128 0 0 0 6 5 0 6 105 0 4 4 2 97 0 2 2 46 77 7 1 5 5 1 97 0 1 1 47 1 78 34 33 42 40 33 48 34 48 34 19 38 38 35 8 8 27 
CALL[ ]	/* CallFunction */";
};
width = 652;
},
{
associatedMasterId = m002;
background = {
shapes = (
{
closed = 0;
nodes = (
(312,718,ls),
(417,718,o),
(488,651,o),
(494,542,c),
(540,542,l),
(532,676,o),
(443,760,o),
(311,760,cs)
);
}
);
};
layerId = m004;
shapes = (
{
closed = 1;
nodes = (
(480,-15,o),
(586,88,o),
(586,235,cs),
(586,381,o),
(480,479,o),
(341,479,cs),
(224,479,o),
(126,409,o),
(94,292,c),
(103,292,l),
(103,318,o),
(104,344,o),
(104,370,cs),
(104,592,o),
(190,718,o),
(334,718,cs),
(440,718,o),
(513,650,o),
(519,542,c),
(565,542,l),
(557,676,o),
(464,760,o),
(335,760,cs),
(162,760,o),
(56,607,o),
(56,368,cs),
(56,128,o),
(162,-15,o),
(334,-15,cs)
);
},
{
closed = 1;
nodes = (
(212,28,o),
(127,114,o),
(127,237,cs),
(127,357,o),
(211,440,o),
(333,440,cs),
(454,440,o),
(538,359,o),
(538,236,cs),
(538,113,o),
(454,28,o),
(333,28,cs)
);
}
);
userData = {
assembly = "NPUSHB[ ]	/* 60 values pushed */
0 1 6 0 1 76 0 3 4 0 4 3 0 128 0 0 0 6 5 0 6 105 0 4 4 2 97 0 2 2 46 77 7 1 5 5 1 97 0 1 1 47 1 78 34 33 42 40 33 48 34 48 34 19 38 38 35 8 8 27 
CALL[ ]	/* CallFunction */";
};
width = 641;
}
);
note = six;
unicode = 54;
},
{
glyphname = seven;
kernLeft = KO_seven;
kernRight = KO_seven;
lastChange = "2024-08-16 04:03:22 +0000";
layers = (
{
layerId = m002;
shapes = (
{
closed = 1;
nodes = (
(305,0,l),
(508,535,ls),
(520,567,o),
(529,595,o),
(529,633,cs),
(529,707,o),
(485,750,o),
(386,750,cs),
(23,750,l),
(23,599,l),
(355,599,ls),
(358,599,o),
(360,596,o),
(359,593,cs),
(122,0,l)
);
}
);
userData = {
assembly = "NPUSHB[ ]	/* 28 values pushed */
0 1 0 1 1 76 0 1 1 2 95 0 2 2 38 77 0 0 0 39 0 78 17 19 20 3 8 25 
CALL[ ]	/* CallFunction */";
};
width = 561;
},
{
associatedMasterId = m002;
background = {
guides = (
{
angle = 68.8087;
pos = (507,708);
}
);
shapes = (
{
closed = 1;
nodes = (
(278,0,l),
(250,265,o),
(324,499,o),
(492,684,c),
(492,748,l),
(-3,748,l),
(-3,708,l),
(476,708,l),
(476,721,l),
(294,538,o),
(205,275,o),
(231,0,c)
);
}
);
};
layerId = m003;
shapes = (
{
closed = 1;
nodes = (
(261,0,l),
(519,668,l),
(519,750,l),
(22,750,l),
(22,666,l),
(463,666,l),
(432,692,l),
(158,0,l)
);
}
);
userData = {
assembly = "NPUSHB[ ]	/* 28 values pushed */
0 1 0 1 1 76 0 1 1 2 95 0 2 2 38 77 0 0 0 39 0 78 17 19 20 3 8 25 
CALL[ ]	/* CallFunction */";
};
width = 554;
},
{
associatedMasterId = m002;
background = {
guides = (
{
angle = 68.8087;
pos = (507,708);
}
);
shapes = (
{
closed = 1;
nodes = (
(278,0,l),
(250,265,o),
(324,499,o),
(492,684,c),
(492,748,l),
(-3,748,l),
(-3,708,l),
(476,708,l),
(476,721,l),
(294,538,o),
(205,275,o),
(231,0,c)
);
}
);
};
layerId = m004;
shapes = (
{
closed = 1;
nodes = (
(233,0,l),
(507,708,l),
(507,748,l),
(22,748,l),
(22,706,l),
(505,706,l),
(469,733,l),
(184,0,l)
);
}
);
userData = {
assembly = "NPUSHB[ ]	/* 28 values pushed */
0 1 0 1 1 76 0 1 1 2 95 0 2 2 38 77 0 0 0 39 0 78 17 19 20 3 8 25 
CALL[ ]	/* CallFunction */";
};
width = 546;
}
);
note = seven;
unicode = 55;
},
{
glyphname = eight;
kernLeft = KO_eight;
kernRight = KO_eight;
lastChange = "2024-08-16 04:03:22 +0000";
layers = (
{
layerId = m002;
shapes = (
{
closed = 1;
nodes = (
(509,-16,o),
(619,69,o),
(619,204,cs),
(619,290,o),
(558,372,o),
(462,387,c),
(464,370,l),
(549,388,o),
(609,461,o),
(609,549,cs),
(609,682,o),
(503,765,o),
(333,765,cs),
(163,765,o),
(57,681,o),
(57,548,cs),
(57,464,o),
(111,390,o),
(203,369,c),
(203,388,l),
(107,369,o),
(46,293,o),
(46,205,cs),
(46,69,o),
(157,-16,o),
(334,-16,cs)
);
},
{
closed = 1;
nodes = (
(262,128,o),
(217,165,o),
(217,224,cs),
(217,280,o),
(265,318,o),
(333,318,cs),
(401,318,o),
(450,280,o),
(450,224,cs),
(450,165,o),
(404,128,o),
(333,128,cs)
);
},
{
closed = 1;
nodes = (
(267,447,o),
(222,483,o),
(222,533,cs),
(222,586,o),
(264,619,o),
(333,619,cs),
(402,619,o),
(444,586,o),
(444,533,cs),
(444,483,o),
(399,447,o),
(333,447,cs)
);
}
);
userData = {
assembly = "NPUSHB[ ]	/* 66 values pushed */
21 7 2 3 4 1 76 8 1 4 0 3 2 4 3 105 0 5 5 1 97 0 1 1 46 77 7 1 2 2 0 97 6 1 0 0 47 0 78 45 44 29 28 1 0 53 51 44 59 45 59 37 35 28 43 29 43 15 13 0 27 1 27 9 8 22 
CALL[ ]	/* CallFunction */";
};
width = 664;
},
{
associatedMasterId = m002;
background = {
shapes = (
{
closed = 1;
nodes = (
(465,-16,o),
(575,71,o),
(575,199,cs),
(575,279,o),
(532,350,o),
(450,379,c),
(522,408,o),
(565,472,o),
(565,553,cs),
(565,682,o),
(457,765,o),
(290,765,cs),
(119,765,o),
(13,679,o),
(13,551,cs),
(13,474,o),
(52,410,o),
(127,379,c),
(47,349,o),
(2,283,o),
(2,201,cs),
(2,70,o),
(115,-16,o),
(289,-16,cs)
);
},
{
closed = 1;
nodes = (
(219,128,o),
(173,165,o),
(173,222,cs),
(173,281,o),
(221,318,o),
(289,318,cs),
(357,318,o),
(406,281,o),
(406,223,cs),
(406,166,o),
(360,128,o),
(289,128,cs)
);
},
{
closed = 1;
nodes = (
(223,447,o),
(178,482,o),
(178,534,cs),
(178,585,o),
(220,619,o),
(289,619,cs),
(358,619,o),
(400,585,o),
(400,534,cs),
(400,482,o),
(355,447,o),
(289,447,cs)
);
}
);
};
layerId = m003;
shapes = (
{
closed = 1;
nodes = (
(475,-15,o),
(583,70,o),
(583,199,cs),
(583,289,o),
(522,371,o),
(418,386,c),
(419,370,l),
(515,389,o),
(573,466,o),
(573,555,cs),
(573,681,o),
(469,765,o),
(326,765,cs),
(181,765,o),
(77,680,o),
(77,555,cs),
(77,469,o),
(130,391,o),
(231,370,c),
(232,387,l),
(128,369,o),
(67,290,o),
(67,199,cs),
(67,70,o),
(175,-15,o),
(326,-15,cs)
);
},
{
closed = 1;
nodes = (
(235,69,o),
(166,124,o),
(166,210,cs),
(166,288,o),
(228,343,o),
(326,343,cs),
(421,343,o),
(485,289,o),
(485,210,cs),
(485,124,o),
(416,69,o),
(326,69,cs)
);
},
{
closed = 1;
nodes = (
(234,417,o),
(172,469,o),
(172,545,cs),
(172,627,o),
(239,679,o),
(326,679,cs),
(412,679,o),
(479,627,o),
(479,545,cs),
(479,469,o),
(417,417,o),
(326,417,cs)
);
}
);
userData = {
assembly = "NPUSHB[ ]	/* 66 values pushed */
21 7 2 3 4 1 76 8 1 4 0 3 2 4 3 105 0 5 5 1 97 0 1 1 46 77 7 1 2 2 0 97 6 1 0 0 47 0 78 45 44 29 28 1 0 53 51 44 59 45 59 37 35 28 43 29 43 15 13 0 27 1 27 9 8 22 
CALL[ ]	/* CallFunction */";
};
width = 649;
},
{
associatedMasterId = m002;
background = {
shapes = (
{
closed = 1;
nodes = (
(462,-16,o),
(572,71,o),
(572,199,cs),
(572,279,o),
(529,350,o),
(447,379,c),
(519,408,o),
(562,472,o),
(562,553,cs),
(562,682,o),
(454,765,o),
(287,765,cs),
(116,765,o),
(10,679,o),
(10,551,cs),
(10,474,o),
(49,410,o),
(124,379,c),
(44,349,o),
(-1,283,o),
(-1,201,cs),
(-1,70,o),
(112,-16,o),
(286,-16,cs)
);
},
{
closed = 1;
nodes = (
(216,128,o),
(170,165,o),
(170,222,cs),
(170,281,o),
(218,318,o),
(286,318,cs),
(354,318,o),
(403,281,o),
(403,223,cs),
(403,166,o),
(357,128,o),
(286,128,cs)
);
},
{
closed = 1;
nodes = (
(220,447,o),
(175,482,o),
(175,534,cs),
(175,585,o),
(217,619,o),
(286,619,cs),
(355,619,o),
(397,585,o),
(397,534,cs),
(397,482,o),
(352,447,o),
(286,447,cs)
);
}
);
};
layerId = m004;
shapes = (
{
closed = 1;
nodes = (
(443,-11,o),
(549,74,o),
(549,198,cs),
(549,291,o),
(488,371,o),
(377,386,c),
(378,370,l),
(484,390,o),
(540,468,o),
(540,557,cs),
(540,677,o),
(438,760,o),
(311,760,cs),
(184,760,o),
(82,677,o),
(82,557,cs),
(82,468,o),
(138,390,o),
(243,370,c),
(244,387,l),
(132,369,o),
(72,289,o),
(72,197,cs),
(72,74,o),
(178,-11,o),
(311,-11,cs)
);
},
{
closed = 1;
nodes = (
(206,32,o),
(121,99,o),
(121,202,cs),
(121,298,o),
(194,362,o),
(311,362,cs),
(428,362,o),
(501,298,o),
(501,202,cs),
(501,99,o),
(416,32,o),
(311,32,cs)
);
},
{
closed = 1;
nodes = (
(201,397,o),
(128,458,o),
(128,552,cs),
(128,652,o),
(211,717,o),
(311,717,cs),
(411,717,o),
(494,652,o),
(494,552,cs),
(494,458,o),
(421,397,o),
(311,397,cs)
);
}
);
userData = {
assembly = "NPUSHB[ ]	/* 66 values pushed */
21 7 2 3 4 1 76 8 1 4 0 3 2 4 3 105 0 5 5 1 97 0 1 1 46 77 7 1 2 2 0 97 6 1 0 0 47 0 78 45 44 29 28 1 0 53 51 44 59 45 59 37 35 28 43 29 43 15 13 0 27 1 27 9 8 22 
CALL[ ]	/* CallFunction */";
};
width = 620;
}
);
note = eight;
unicode = 56;
userData = {
KernOnName = eight;
};
},
{
glyphname = nine;
kernLeft = KO_nine;
kernRight = KO_nine;
lastChange = "2024-08-16 04:03:22 +0000";
layers = (
{
layerId = m002;
shapes = (
{
angle = 180;
pos = (651,750);
ref = six;
}
);
userData = {
assembly = "NPUSHB[ ]	/* 60 values pushed */
0 1 0 6 1 76 0 3 0 4 0 3 4 128 0 6 0 0 3 6 0 105 7 1 5 5 1 97 0 1 1 46 77 0 4 4 2 97 0 2 2 47 2 78 34 33 42 40 33 48 34 48 34 19 38 38 35 8 8 27 
CALL[ ]	/* CallFunction */";
};
width = 651;
},
{
associatedMasterId = m002;
background = {
shapes = (
{
closed = 1;
nodes = (
(371,-12,o),
(462,59,o),
(510,185,cs),
(534,248,o),
(546,322,o),
(545,407,cs),
(541,627,o),
(430,760,o),
(251,760,cs),
(103,760,o),
(3,659,o),
(3,510,cs),
(3,370,o),
(104,273,o),
(231,273,cs),
(291,273,o),
(354,307,o),
(372,332,cs),
(386,352,l),
(386,331,o),
(383,301,o),
(379,275,cs),
(364,190,o),
(320,134,o),
(245,134,cs),
(192,134,o),
(160,166,o),
(148,206,c),
(-13,206,l),
(7,74,o),
(109,-12,o),
(248,-12,cs)
);
},
{
closed = 1;
nodes = (
(206,402,o),
(166,445,o),
(166,510,cs),
(166,570,o),
(206,614,o),
(263,614,cs),
(324,614,o),
(365,571,o),
(365,505,cs),
(365,444,o),
(323,402,o),
(266,402,cs)
);
}
);
};
layerId = m003;
shapes = (
{
angle = 180;
pos = (651,750);
ref = six;
}
);
userData = {
assembly = "NPUSHB[ ]	/* 60 values pushed */
0 1 0 6 1 76 0 3 0 4 0 3 4 128 0 6 0 0 3 6 0 105 7 1 5 5 1 97 0 1 1 46 77 0 4 4 2 97 0 2 2 47 2 78 34 33 42 40 33 48 34 48 34 19 38 38 35 8 8 27 
CALL[ ]	/* CallFunction */";
};
width = 651;
},
{
associatedMasterId = m002;
background = {
shapes = (
{
closed = 1;
nodes = (
(366,-12,o),
(457,59,o),
(505,185,cs),
(529,248,o),
(541,322,o),
(540,407,cs),
(536,627,o),
(425,760,o),
(246,760,cs),
(98,760,o),
(-2,659,o),
(-2,510,cs),
(-2,370,o),
(99,273,o),
(226,273,cs),
(286,273,o),
(349,307,o),
(367,332,cs),
(381,352,l),
(381,331,o),
(378,301,o),
(374,275,cs),
(359,190,o),
(315,134,o),
(240,134,cs),
(187,134,o),
(155,166,o),
(143,206,c),
(-18,206,l),
(2,74,o),
(104,-12,o),
(243,-12,cs)
);
},
{
closed = 1;
nodes = (
(201,402,o),
(161,445,o),
(161,510,cs),
(161,570,o),
(201,614,o),
(258,614,cs),
(319,614,o),
(360,571,o),
(360,505,cs),
(360,444,o),
(318,402,o),
(261,402,cs)
);
}
);
};
layerId = m004;
shapes = (
{
angle = 180;
pos = (651,750);
ref = six;
}
);
userData = {
assembly = "NPUSHB[ ]	/* 60 values pushed */
0 1 0 6 1 76 0 3 0 4 0 3 4 128 0 6 0 0 3 6 0 105 7 1 5 5 1 97 0 1 1 46 77 0 4 4 2 97 0 2 2 47 2 78 34 33 42 40 33 48 34 48 34 19 38 38 35 8 8 27 
CALL[ ]	/* CallFunction */";
};
width = 651;
}
);
note = nine;
unicode = 57;
},
{
glyphname = period;
kernLeft = KO_period;
kernRight = KO_period;
lastChange = "2025-03-02 12:28:09 +0000";
layers = (
{
anchors = (
{
name = "#entry";
},
{
name = "#exit";
pos = (252,0);
}
);
layerId = m002;
shapes = (
{
closed = 1;
nodes = (
(196,-15,o),
(238,25,o),
(238,83,cs),
(238,139,o),
(196,180,o),
(137,180,cs),
(78,180,o),
(35,139,o),
(35,83,cs),
(35,25,o),
(78,-15,o),
(137,-15,cs)
);
}
);
userData = {
assembly = "NPUSHB[ ]	/* 22 values pushed */
2 1 1 1 0 95 0 0 0 39 0 78 0 0 0 3 0 3 17 3 8 23 
CALL[ ]	/* CallFunction */";
};
width = 273;
},
{
associatedMasterId = m002;
background = {
shapes = (
{
closed = 1;
nodes = (
(141,-12,o),
(181,27,o),
(181,82,cs),
(181,137,o),
(140,176,o),
(84,176,cs),
(29,176,o),
(-12,137,o),
(-12,82,cs),
(-12,27,o),
(28,-12,o),
(84,-12,cs)
);
}
);
};
layerId = m003;
shapes = (
{
closed = 1;
nodes = (
(160,-15,o),
(186,10,o),
(186,46,cs),
(186,82,o),
(160,108,o),
(122,108,cs),
(85,108,o),
(58,83,o),
(58,46,cs),
(58,10,o),
(85,-15,o),
(122,-15,cs)
);
}
);
userData = {
assembly = "NPUSHB[ ]	/* 22 values pushed */
2 1 1 1 0 95 0 0 0 39 0 78 0 0 0 3 0 3 17 3 8 23 
CALL[ ]	/* CallFunction */";
};
width = 244;
},
{
associatedMasterId = m002;
background = {
shapes = (
{
closed = 1;
nodes = (
(141,-12,o),
(181,27,o),
(181,82,cs),
(181,137,o),
(140,176,o),
(84,176,cs),
(29,176,o),
(-12,137,o),
(-12,82,cs),
(-12,27,o),
(28,-12,o),
(84,-12,cs)
);
}
);
};
layerId = m004;
shapes = (
{
closed = 1;
nodes = (
(134,-15,o),
(150,1,o),
(150,24,cs),
(150,47,o),
(134,63,o),
(110,63,cs),
(86,63,o),
(69,48,o),
(69,24,cs),
(69,1,o),
(85,-15,o),
(110,-15,cs)
);
}
);
userData = {
assembly = "NPUSHB[ ]	/* 22 values pushed */
2 1 1 1 0 95 0 0 0 39 0 78 0 0 0 3 0 3 17 3 8 23 
CALL[ ]	/* CallFunction */";
};
width = 219;
}
);
note = period;
unicode = 46;
userData = {
KernOnName = period;
KernOnSpecialSpacing = {
L = period;
R = period;
};
};
},
{
glyphname = comma;
kernLeft = KO_comma;
lastChange = "2024-08-16 04:03:22 +0000";
layers = (
{
layerId = m002;
shapes = (
{
closed = 1;
nodes = (
(144,-144,l),
(200,-63,o),
(235,19,o),
(235,68,cs),
(235,137,o),
(195,180,o),
(132,180,cs),
(72,180,o),
(31,140,o),
(31,82,cs),
(31,20,o),
(75,-15,o),
(153,-15,c),
(132,28,l),
(113,-27,o),
(83,-85,o),
(40,-144,c)
);
}
);
userData = {
assembly = "NPUSHB[ ]	/* 38 values pushed */
4 1 1 0 0 1 0 99 5 1 3 3 2 95 0 2 2 39 2 78 4 4 0 0 4 7 4 7 6 5 0 3 0 3 17 6 8 23 
CALL[ ]	/* CallFunction */";
};
width = 276;
},
{
associatedMasterId = m002;
background = {
shapes = (
{
closed = 1;
nodes = (
(104,-144,l),
(166,-54,o),
(195,14,o),
(195,69,cs),
(195,134,o),
(154,176,o),
(97,176,cs),
(43,176,o),
(2,137,o),
(2,82,cs),
(2,18,o),
(55,-23,o),
(126,-10,c),
(112,28,l),
(20,-144,l)
);
}
);
};
layerId = m003;
shapes = (
{
closed = 1;
nodes = (
(115,-126,l),
(170,-51,o),
(194,3,o),
(194,37,cs),
(194,80,o),
(168,108,o),
(129,108,cs),
(92,108,o),
(65,83,o),
(65,46,cs),
(65,7,o),
(94,-15,o),
(142,-15,c),
(129,25,l),
(114,-29,o),
(91,-69,o),
(54,-126,c)
);
}
);
userData = {
assembly = "NPUSHB[ ]	/* 38 values pushed */
4 1 1 0 0 1 0 99 5 1 3 3 2 95 0 2 2 39 2 78 4 4 0 0 4 7 4 7 6 5 0 3 0 3 17 6 8 23 
CALL[ ]	/* CallFunction */";
};
width = 252;
},
{
associatedMasterId = m002;
background = {
shapes = (
{
closed = 1;
nodes = (
(104,-144,l),
(166,-54,o),
(195,14,o),
(195,69,cs),
(195,134,o),
(154,176,o),
(97,176,cs),
(43,176,o),
(2,137,o),
(2,82,cs),
(2,18,o),
(55,-23,o),
(126,-10,c),
(112,28,l),
(20,-144,l)
);
}
);
};
layerId = m004;
shapes = (
{
closed = 1;
nodes = (
(89,-115,l),
(139,-49,o),
(160,-10,o),
(160,19,cs),
(160,46,o),
(143,63,o),
(119,63,cs),
(94,63,o),
(77,48,o),
(77,24,cs),
(77,-1,o),
(95,-15,o),
(127,-15,c),
(118,23,l),
(105,-30,o),
(88,-59,o),
(54,-115,c)
);
}
);
userData = {
assembly = "NPUSHB[ ]	/* 38 values pushed */
4 1 1 0 0 1 0 99 5 1 3 3 2 95 0 2 2 39 2 78 4 4 0 0 4 7 4 7 6 5 0 3 0 3 17 6 8 23 
CALL[ ]	/* CallFunction */";
};
width = 227;
}
);
note = comma;
unicode = 44;
userData = {
KernOnName = comma;
KernOnSpecialSpacing = {
L = period;
R = period;
};
};
},
{
glyphname = colon;
kernLeft = KO_colon;
kernRight = KO_colon;
lastChange = "2025-03-02 12:28:09 +0000";
layers = (
{
layerId = m002;
shapes = (
{
closed = 1;
nodes = (
(212,390,o),
(254,430,o),
(254,488,cs),
(254,544,o),
(212,585,o),
(153,585,cs),
(94,585,o),
(51,544,o),
(51,488,cs),
(51,430,o),
(94,390,o),
(153,390,cs)
);
},
{
closed = 1;
nodes = (
(212,-15,o),
(254,25,o),
(254,83,cs),
(254,139,o),
(212,180,o),
(153,180,cs),
(94,180,o),
(51,139,o),
(51,83,cs),
(51,25,o),
(94,-15,o),
(153,-15,cs)
);
}
);
width = 305;
},
{
associatedMasterId = m002;
layerId = m003;
shapes = (
{
closed = 1;
nodes = (
(196,390,o),
(238,430,o),
(238,488,cs),
(238,544,o),
(196,585,o),
(137,585,cs),
(78,585,o),
(35,544,o),
(35,488,cs),
(35,430,o),
(78,390,o),
(137,390,cs)
);
},
{
closed = 1;
nodes = (
(196,-15,o),
(238,25,o),
(238,83,cs),
(238,139,o),
(196,180,o),
(137,180,cs),
(78,180,o),
(35,139,o),
(35,83,cs),
(35,25,o),
(78,-15,o),
(137,-15,cs)
);
}
);
width = 284;
},
{
associatedMasterId = m002;
layerId = m004;
shapes = (
{
closed = 1;
nodes = (
(196,390,o),
(238,430,o),
(238,488,cs),
(238,544,o),
(196,585,o),
(137,585,cs),
(78,585,o),
(35,544,o),
(35,488,cs),
(35,430,o),
(78,390,o),
(137,390,cs)
);
},
{
closed = 1;
nodes = (
(196,-15,o),
(238,25,o),
(238,83,cs),
(238,139,o),
(196,180,o),
(137,180,cs),
(78,180,o),
(35,139,o),
(35,83,cs),
(35,25,o),
(78,-15,o),
(137,-15,cs)
);
}
);
width = 283;
}
);
note = colon;
unicode = 58;
userData = {
KernOnName = colon;
KernOnSpecialSpacing = {
L = "spaced-off";
R = "spaced-off";
};
};
},
{
glyphname = semicolon;
kernLeft = KO_semicolon;
lastChange = "2025-03-02 12:28:09 +0000";
layers = (
{
layerId = m002;
shapes = (
{
pos = (8,0);
ref = comma;
},
{
closed = 1;
nodes = (
(207,390,o),
(249,430,o),
(249,488,cs),
(249,544,o),
(207,585,o),
(148,585,cs),
(89,585,o),
(46,544,o),
(46,488,cs),
(46,430,o),
(89,390,o),
(148,390,cs)
);
}
);
width = 294;
},
{
associatedMasterId = m002;
layerId = m003;
shapes = (
{
pos = (8,0);
ref = comma;
},
{
closed = 1;
nodes = (
(207,390,o),
(249,430,o),
(249,488,cs),
(249,544,o),
(207,585,o),
(148,585,cs),
(89,585,o),
(46,544,o),
(46,488,cs),
(46,430,o),
(89,390,o),
(148,390,cs)
);
}
);
width = 304;
},
{
associatedMasterId = m002;
layerId = m004;
shapes = (
{
pos = (8,0);
ref = comma;
},
{
closed = 1;
nodes = (
(207,390,o),
(249,430,o),
(249,488,cs),
(249,544,o),
(207,585,o),
(148,585,cs),
(89,585,o),
(46,544,o),
(46,488,cs),
(46,430,o),
(89,390,o),
(148,390,cs)
);
}
);
width = 304;
}
);
note = semicolon;
unicode = 59;
userData = {
KernOnSpecialSpacing = {
L = "spaced-off";
R = "spaced-off";
};
};
},
{
glyphname = ellipsis;
kernLeft = KO_ellipsis;
kernRight = KO_ellipsis;
lastChange = "2025-03-02 12:28:09 +0000";
layers = (
{
background = {
anchors = (
{
name = "#entry";
},
{
name = "#exit";
pos = (722,0);
}
);
shapes = (
{
closed = 1;
nodes = (
(196,-15,o),
(238,25,o),
(238,83,cs),
(238,139,o),
(196,180,o),
(137,180,cs),
(78,180,o),
(35,139,o),
(35,83,cs),
(35,25,o),
(78,-15,o),
(137,-15,cs)
);
},
{
closed = 1;
nodes = (
(429,-15,o),
(471,25,o),
(471,83,cs),
(471,139,o),
(429,180,o),
(370,180,cs),
(311,180,o),
(268,139,o),
(268,83,cs),
(268,25,o),
(311,-15,o),
(370,-15,cs)
);
},
{
closed = 1;
nodes = (
(666,-15,o),
(708,25,o),
(708,83,cs),
(708,139,o),
(666,180,o),
(607,180,cs),
(548,180,o),
(505,139,o),
(505,83,cs),
(505,25,o),
(548,-15,o),
(607,-15,cs)
);
}
);
};
layerId = m002;
shapes = (
{
alignment = 1;
pos = (20,0);
ref = period;
},
{
alignment = 1;
pos = (272,0);
ref = period;
},
{
alignment = 1;
pos = (524,0);
ref = period;
}
);
width = 817;
},
{
associatedMasterId = m002;
layerId = m003;
shapes = (
{
pos = (-30,0);
ref = period;
},
{
pos = (222,0);
ref = period;
},
{
pos = (474,0);
ref = period;
}
);
width = 701;
},
{
associatedMasterId = m002;
layerId = m004;
shapes = (
{
ref = period;
},
{
pos = (252,0);
ref = period;
},
{
pos = (504,0);
ref = period;
}
);
width = 750;
}
);
metricLeft = "=+20";
metricRight = "=+20";
note = ellipsis;
unicode = 8230;
userData = {
KernOnName = ellipsis;
};
},
{
glyphname = exclam;
lastChange = "2024-08-16 04:03:22 +0000";
layers = (
{
layerId = m002;
shapes = (
{
closed = 1;
nodes = (
(221,-7,o),
(259,30,o),
(259,82,cs),
(259,132,o),
(221,170,o),
(168,170,cs),
(115,170,o),
(76,132,o),
(76,82,cs),
(76,30,o),
(115,-7,o),
(168,-7,cs)
);
},
{
closed = 1;
nodes = (
(228,250,l),
(248,750,l),
(86,750,l),
(106,250,l)
);
}
);
userData = {
assembly = "NPUSHB[ ]	/* 41 values pushed */
4 1 1 1 0 95 0 0 0 38 77 5 1 3 3 2 95 0 2 2 39 2 78 4 4 0 0 4 7 4 7 6 5 0 3 0 3 17 6 8 23 
CALL[ ]	/* CallFunction */";
};
width = 336;
},
{
associatedMasterId = m002;
background = {
shapes = (
{
closed = 1;
nodes = (
(199,251,l),
(249,749,l),
(48,749,l),
(98,251,l)
);
},
{
closed = 1;
nodes = (
(202,-8,o),
(240,30,o),
(240,82,cs),
(240,134,o),
(201,172,o),
(148,172,cs),
(96,172,o),
(57,134,o),
(57,82,cs),
(57,30,o),
(95,-8,o),
(148,-8,cs)
);
}
);
};
layerId = m003;
shapes = (
{
closed = 1;
nodes = (
(207,-7,o),
(230,18,o),
(230,49,cs),
(230,80,o),
(207,105,o),
(173,105,cs),
(140,105,o),
(115,81,o),
(115,49,cs),
(115,17,o),
(140,-7,o),
(173,-7,cs)
);
},
{
closed = 1;
nodes = (
(206,250,l),
(220,750,l),
(124,750,l),
(138,250,l)
);
}
);
userData = {
assembly = "NPUSHB[ ]	/* 41 values pushed */
4 1 1 1 0 95 0 0 0 38 77 5 1 3 3 2 95 0 2 2 39 2 78 4 4 0 0 4 7 4 7 6 5 0 3 0 3 17 6 8 23 
CALL[ ]	/* CallFunction */";
};
width = 346;
},
{
associatedMasterId = m002;
background = {
shapes = (
{
closed = 1;
nodes = (
(199,251,l),
(249,749,l),
(48,749,l),
(98,251,l)
);
},
{
closed = 1;
nodes = (
(202,-8,o),
(240,30,o),
(240,82,cs),
(240,134,o),
(201,172,o),
(148,172,cs),
(96,172,o),
(57,134,o),
(57,82,cs),
(57,30,o),
(95,-8,o),
(148,-8,cs)
);
}
);
};
layerId = m004;
shapes = (
{
closed = 1;
nodes = (
(195,-7,o),
(209,9,o),
(209,29,cs),
(209,49,o),
(195,65,o),
(173,65,cs),
(152,65,o),
(136,50,o),
(136,29,cs),
(136,8,o),
(152,-7,o),
(173,-7,cs)
);
},
{
closed = 1;
nodes = (
(189,250,l),
(199,750,l),
(145,750,l),
(155,250,l)
);
}
);
userData = {
assembly = "NPUSHB[ ]	/* 41 values pushed */
4 1 1 1 0 95 0 0 0 38 77 5 1 3 3 2 95 0 2 2 39 2 78 4 4 0 0 4 7 4 7 6 5 0 3 0 3 17 6 8 23 
CALL[ ]	/* CallFunction */";
};
width = 346;
}
);
note = exclam;
unicode = 33;
userData = {
KernOnSpecialSpacing = {
L = NoKerning;
R = NoKerning;
};
};
},
{
glyphname = exclamdown;
kernRight = KO_exclamdown;
lastChange = "2025-03-02 12:28:20 +0000";
layers = (
{
background = {
shapes = (
{
closed = 1;
nodes = (
(115,585,o),
(76,548,o),
(76,496,cs),
(76,446,o),
(115,408,o),
(168,408,cs),
(221,408,o),
(259,446,o),
(259,496,cs),
(259,548,o),
(221,585,o),
(168,585,cs)
);
},
{
closed = 1;
nodes = (
(86,-172,l),
(248,-172,l),
(228,328,l),
(106,328,l)
);
}
);
};
layerId = m002;
shapes = (
{
alignment = 1;
angle = 180;
pos = (336,570);
ref = exclam;
}
);
userData = {
assembly = "NPUSHB[ ]	/* 41 values pushed */
5 1 3 3 2 95 0 2 2 41 77 0 0 0 1 95 4 1 1 1 43 1 78 4 4 0 0 4 7 4 7 6 5 0 3 0 3 17 6 8 23 
CALL[ ]	/* CallFunction */";
};
width = 336;
},
{
associatedMasterId = m002;
background = {
shapes = (
{
closed = 1;
nodes = (
(249,-170,l),
(199,328,l),
(98,328,l),
(48,-170,l)
);
},
{
closed = 1;
nodes = (
(233,415,l),
(233,579,l),
(63,579,l),
(63,415,l)
);
}
);
};
layerId = m003;
shapes = (
{
pos = (0,585);
ref = exclam;
scale = (1,-1);
}
);
userData = {
assembly = "NPUSHB[ ]	/* 41 values pushed */
5 1 3 3 2 95 0 2 2 41 77 0 0 0 1 95 4 1 1 1 43 1 78 4 4 0 0 4 7 4 7 6 5 0 3 0 3 17 6 8 23 
CALL[ ]	/* CallFunction */";
};
width = 346;
},
{
associatedMasterId = m002;
background = {
shapes = (
{
closed = 1;
nodes = (
(249,-170,l),
(199,328,l),
(98,328,l),
(48,-170,l)
);
},
{
closed = 1;
nodes = (
(233,415,l),
(233,579,l),
(63,579,l),
(63,415,l)
);
}
);
};
layerId = m004;
shapes = (
{
pos = (0,585);
ref = exclam;
scale = (1,-1);
}
);
userData = {
assembly = "NPUSHB[ ]	/* 41 values pushed */
5 1 3 3 2 95 0 2 2 41 77 0 0 0 1 95 4 1 1 1 43 1 78 4 4 0 0 4 7 4 7 6 5 0 3 0 3 17 6 8 23 
CALL[ ]	/* CallFunction */";
};
width = 346;
}
);
note = exclamdown;
unicode = 161;
userData = {
KernOnSpecialSpacing = {
L = NoKerning;
R = "spaced-off";
};
};
},
{
glyphname = question;
kernLeft = KO_question;
kernRight = KO_question;
lastChange = "2025-03-02 12:41:07 +0000";
layers = (
{
layerId = m002;
shapes = (
{
closed = 1;
nodes = (
(321,250,l),
(321,330,o),
(362,372,o),
(406,411,cs),
(456,455,o),
(510,495,o),
(510,582,cs),
(510,694,o),
(419,765,o),
(283,765,cs),
(136,765,o),
(44,682,o),
(44,550,c),
(186,550,l),
(186,614,o),
(221,650,o),
(284,650,cs),
(336,650,o),
(370,626,o),
(370,582,cs),
(370,530,o),
(322,498,o),
(276,453,cs),
(230,409,o),
(186,351,o),
(186,250,c)
);
},
{
closed = 1;
nodes = (
(307,-7,o),
(345,30,o),
(345,82,cs),
(345,132,o),
(307,170,o),
(254,170,cs),
(201,170,o),
(162,132,o),
(162,82,cs),
(162,30,o),
(201,-7,o),
(254,-7,cs)
);
}
);
width = 547;
},
{
associatedMasterId = m002;
background = {
shapes = (
{
closed = 1;
nodes = (
(343,223,o),
(440,288,o),
(454,380,c),
(315,399,l),
(302,358,o),
(268,331,o),
(225,331,cs),
(188,331,o),
(163,347,o),
(163,372,cs),
(163,406,o),
(199,414,o),
(261,426,cs),
(342,439,o),
(390,452,o),
(430,497,cs),
(449,520,o),
(459,551,o),
(459,592,cs),
(459,688,o),
(374,760,o),
(246,760,cs),
(122,760,o),
(25,692,o),
(11,591,c),
(147,576,l),
(159,623,o),
(201,651,o),
(252,651,cs),
(292,651,o),
(318,634,o),
(318,607,cs),
(318,579,o),
(297,564,o),
(269,556,cs),
(254,552,o),
(235,548,o),
(210,543,cs),
(133,530,o),
(87,520,o),
(51,477,cs),
(32,455,o),
(23,425,o),
(23,386,cs),
(23,292,o),
(106,223,o),
(231,223,cs)
);
},
{
closed = 1;
nodes = (
(294,-8,o),
(332,30,o),
(332,82,cs),
(332,134,o),
(293,172,o),
(240,172,cs),
(188,172,o),
(149,134,o),
(149,82,cs),
(149,30,o),
(187,-8,o),
(240,-8,cs)
);
}
);
};
layerId = m003;
shapes = (
{
closed = 1;
nodes = (
(299,250,l),
(299,314,o),
(331,361,o),
(393,410,cs),
(460,463,o),
(505,510,o),
(505,585,cs),
(505,692,o),
(417,765,o),
(290,765,cs),
(154,765,o),
(62,679,o),
(62,550,c),
(145,550,l),
(145,638,o),
(203,696,o),
(290,696,cs),
(368,696,o),
(423,651,o),
(423,585,cs),
(423,536,o),
(393,500,o),
(328,447,cs),
(263,394,o),
(219,338,o),
(219,250,c)
);
},
{
closed = 1;
nodes = (
(295,-7,o),
(319,18,o),
(319,50,cs),
(319,83,o),
(294,107,o),
(260,107,cs),
(226,107,o),
(201,82,o),
(201,50,cs),
(201,17,o),
(227,-7,o),
(260,-7,cs)
);
}
);
width = 559;
},
{
associatedMasterId = m002;
background = {
shapes = (
{
closed = 1;
nodes = (
(333,223,o),
(430,288,o),
(444,380,c),
(305,399,l),
(292,358,o),
(258,331,o),
(215,331,cs),
(178,331,o),
(153,347,o),
(153,372,cs),
(153,406,o),
(189,414,o),
(251,426,cs),
(332,439,o),
(380,452,o),
(420,497,cs),
(439,520,o),
(449,551,o),
(449,592,cs),
(449,688,o),
(364,760,o),
(236,760,cs),
(112,760,o),
(15,692,o),
(1,591,c),
(137,576,l),
(149,623,o),
(191,651,o),
(242,651,cs),
(282,651,o),
(308,634,o),
(308,607,cs),
(308,579,o),
(287,564,o),
(259,556,cs),
(244,552,o),
(225,548,o),
(200,543,cs),
(123,530,o),
(77,520,o),
(41,477,cs),
(22,455,o),
(13,425,o),
(13,386,cs),
(13,292,o),
(96,223,o),
(221,223,cs)
);
},
{
closed = 1;
nodes = (
(284,-8,o),
(322,30,o),
(322,82,cs),
(322,134,o),
(283,172,o),
(230,172,cs),
(178,172,o),
(139,134,o),
(139,82,cs),
(139,30,o),
(177,-8,o),
(230,-8,cs)
);
}
);
};
layerId = m004;
shapes = (
{
closed = 1;
nodes = (
(277,250,l),
(277,310,o),
(309,359,o),
(382,414,cs),
(459,472,o),
(493,522,o),
(493,587,cs),
(493,691,o),
(407,765,o),
(286,765,cs),
(156,765,o),
(66,677,o),
(66,550,c),
(108,550,l),
(108,655,o),
(180,727,o),
(286,727,cs),
(382,727,o),
(451,668,o),
(451,587,cs),
(451,534,o),
(422,493,o),
(346,435,cs),
(270,377,o),
(234,322,o),
(234,250,c)
);
},
{
closed = 1;
nodes = (
(278,-7,o),
(293,8,o),
(293,29,cs),
(293,50,o),
(278,65,o),
(256,65,cs),
(235,65,o),
(219,50,o),
(219,29,cs),
(219,8,o),
(235,-7,o),
(256,-7,cs)
);
}
);
width = 552;
}
);
metricLeft = "=|S";
metricRight = "=|S";
note = question;
unicode = 63;
userData = {
KernOnSpecialSpacing = {
L = "spaced-off";
};
};
},
{
glyphname = questiondown;
kernRight = KO_questiondown;
lastChange = "2025-03-02 12:28:20 +0000";
layers = (
{
background = {
shapes = (
{
closed = 1;
nodes = (
(226,328,l),
(226,248,o),
(185,206,o),
(141,167,cs),
(91,123,o),
(37,83,o),
(37,-4,cs),
(37,-116,o),
(128,-187,o),
(264,-187,cs),
(411,-187,o),
(503,-104,o),
(503,28,c),
(361,28,l),
(361,-36,o),
(326,-72,o),
(263,-72,cs),
(211,-72,o),
(177,-48,o),
(177,-4,cs),
(177,48,o),
(225,80,o),
(271,125,cs),
(317,169,o),
(361,227,o),
(361,328,c)
);
},
{
closed = 1;
nodes = (
(240,585,o),
(202,548,o),
(202,496,cs),
(202,446,o),
(240,408,o),
(293,408,cs),
(346,408,o),
(385,446,o),
(385,496,cs),
(385,548,o),
(346,585,o),
(293,585,cs)
);
}
);
};
layerId = m002;
shapes = (
{
alignment = 1;
angle = 180;
pos = (547,570);
ref = question;
}
);
userData = {
assembly = "NPUSHB[ ]	/* 63 values pushed */
42 41 19 18 4 1 3 1 76 6 1 0 0 3 1 0 3 105 7 1 5 5 4 95 0 4 4 41 77 0 1 1 2 97 0 2 2 43 2 78 46 46 1 0 46 49 46 49 48 47 39 37 24 22 16 14 0 45 1 45 8 8 22 
CALL[ ]	/* CallFunction */";
};
width = 547;
},
{
associatedMasterId = m002;
background = {
shapes = (
{
closed = 1;
nodes = (
(391,-181,o),
(488,-113,o),
(502,-12,c),
(366,3,l),
(354,-44,o),
(312,-72,o),
(261,-72,cs),
(221,-72,o),
(195,-55,o),
(195,-28,cs),
(195,0,o),
(216,15,o),
(245,23,cs),
(259,27,o),
(278,31,o),
(303,36,cs),
(380,49,o),
(426,59,o),
(463,103,cs),
(481,124,o),
(490,154,o),
(490,193,cs),
(490,287,o),
(407,356,o),
(282,356,cs),
(170,356,o),
(73,291,o),
(59,199,c),
(198,180,l),
(211,221,o),
(245,248,o),
(288,248,cs),
(325,248,o),
(350,232,o),
(350,207,cs),
(350,173,o),
(314,165,o),
(252,153,cs),
(171,140,o),
(123,127,o),
(84,82,cs),
(64,59,o),
(54,28,o),
(54,-13,cs),
(54,-109,o),
(139,-181,o),
(267,-181,cs)
);
},
{
closed = 1;
nodes = (
(357,415,l),
(357,579,l),
(187,579,l),
(187,415,l)
);
}
);
};
layerId = m003;
shapes = (
{
angle = 180;
pos = (559,583);
ref = question;
}
);
userData = {
assembly = "NPUSHB[ ]	/* 63 values pushed */
42 41 19 18 4 1 3 1 76 6 1 0 0 3 1 0 3 105 7 1 5 5 4 95 0 4 4 41 77 0 1 1 2 97 0 2 2 43 2 78 46 46 1 0 46 49 46 49 48 47 39 37 24 22 16 14 0 45 1 45 8 8 22 
CALL[ ]	/* CallFunction */";
};
width = 559;
},
{
associatedMasterId = m002;
background = {
shapes = (
{
closed = 1;
nodes = (
(384,-181,o),
(481,-113,o),
(495,-12,c),
(359,3,l),
(347,-44,o),
(305,-72,o),
(254,-72,cs),
(214,-72,o),
(188,-55,o),
(188,-28,cs),
(188,0,o),
(209,15,o),
(238,23,cs),
(252,27,o),
(271,31,o),
(296,36,cs),
(373,49,o),
(419,59,o),
(456,103,cs),
(474,124,o),
(483,154,o),
(483,193,cs),
(483,287,o),
(400,356,o),
(275,356,cs),
(163,356,o),
(66,291,o),
(52,199,c),
(191,180,l),
(204,221,o),
(238,248,o),
(281,248,cs),
(318,248,o),
(343,232,o),
(343,207,cs),
(343,173,o),
(307,165,o),
(245,153,cs),
(164,140,o),
(116,127,o),
(77,82,cs),
(57,59,o),
(47,28,o),
(47,-13,cs),
(47,-109,o),
(132,-181,o),
(260,-181,cs)
);
},
{
closed = 1;
nodes = (
(350,415,l),
(350,579,l),
(180,579,l),
(180,415,l)
);
}
);
};
layerId = m004;
shapes = (
{
angle = 180;
pos = (552,583);
ref = question;
}
);
userData = {
assembly = "NPUSHB[ ]	/* 63 values pushed */
42 41 19 18 4 1 3 1 76 6 1 0 0 3 1 0 3 105 7 1 5 5 4 95 0 4 4 41 77 0 1 1 2 97 0 2 2 43 2 78 46 46 1 0 46 49 46 49 48 47 39 37 24 22 16 14 0 45 1 45 8 8 22 
CALL[ ]	/* CallFunction */";
};
width = 552;
}
);
metricLeft = S;
metricRight = S;
note = questiondown;
unicode = 191;
userData = {
KernOnSpecialSpacing = {
L = NoKerning;
R = "spaced-off";
};
};
},
{
glyphname = periodcentered;
lastChange = "2024-08-16 04:03:22 +0000";
layers = (
{
layerId = m002;
shapes = (
{
closed = 1;
nodes = (
(186,224,o),
(222,259,o),
(222,306,cs),
(222,353,o),
(186,388,o),
(137,388,cs),
(88,388,o),
(51,353,o),
(51,306,cs),
(51,259,o),
(88,224,o),
(137,224,cs)
);
}
);
userData = {
assembly = "NPUSHB[ ]	/* 28 values pushed */
2 1 1 0 0 1 87 2 1 1 1 0 95 0 0 1 0 79 0 0 0 3 0 3 17 3 8 23 
CALL[ ]	/* CallFunction */";
};
width = 273;
},
{
associatedMasterId = m002;
layerId = m003;
shapes = (
{
closed = 1;
nodes = (
(181,240,o),
(210,269,o),
(210,306,cs),
(210,343,o),
(181,372,o),
(142,372,cs),
(102,372,o),
(73,342,o),
(73,306,cs),
(73,270,o),
(102,240,o),
(142,240,cs)
);
}
);
userData = {
assembly = "NPUSHB[ ]	/* 28 values pushed */
2 1 1 0 0 1 87 2 1 1 1 0 95 0 0 1 0 79 0 0 0 3 0 3 17 3 8 23 
CALL[ ]	/* CallFunction */";
};
width = 283;
},
{
associatedMasterId = m002;
layerId = m004;
shapes = (
{
closed = 1;
nodes = (
(175,251,o),
(199,275,o),
(199,306,cs),
(199,337,o),
(175,362,o),
(142,362,cs),
(108,362,o),
(84,337,o),
(84,306,cs),
(84,275,o),
(109,251,o),
(142,251,cs)
);
}
);
userData = {
assembly = "NPUSHB[ ]	/* 28 values pushed */
2 1 1 0 0 1 87 2 1 1 1 0 95 0 0 1 0 79 0 0 0 3 0 3 17 3 8 23 
CALL[ ]	/* CallFunction */";
};
width = 283;
}
);
note = periodcentered;
unicode = 183;
userData = {
KernOnSpecialSpacing = {
L = NoKerning;
R = NoKerning;
};
};
},
{
glyphname = bullet;
lastChange = "2024-08-16 04:03:22 +0000";
layers = (
{
layerId = m002;
shapes = (
{
closed = 1;
nodes = (
(413,124,o),
(500,212,o),
(500,329,cs),
(500,445,o),
(413,532,o),
(296,532,cs),
(179,532,o),
(91,445,o),
(91,329,cs),
(91,212,o),
(179,124,o),
(296,124,cs)
);
}
);
userData = {
assembly = "NPUSHB[ ]	/* 28 values pushed */
0 1 0 0 1 89 0 1 1 0 97 2 1 0 1 0 81 1 0 9 7 0 15 1 15 3 8 22 
CALL[ ]	/* CallFunction */";
};
width = 590;
},
{
associatedMasterId = m002;
layerId = m003;
shapes = (
{
closed = 1;
nodes = (
(378,193,o),
(436,251,o),
(436,328,cs),
(436,406,o),
(378,463,o),
(300,463,cs),
(224,463,o),
(165,405,o),
(165,328,cs),
(165,251,o),
(224,193,o),
(300,193,cs)
);
}
);
userData = {
assembly = "NPUSHB[ ]	/* 28 values pushed */
0 1 0 0 1 89 0 1 1 0 97 2 1 0 1 0 81 1 0 9 7 0 15 1 15 3 8 22 
CALL[ ]	/* CallFunction */";
};
width = 600;
},
{
associatedMasterId = m002;
layerId = m004;
shapes = (
{
closed = 1;
nodes = (
(354,235,o),
(393,275,o),
(393,328,cs),
(393,381,o),
(354,421,o),
(301,421,cs),
(248,421,o),
(208,381,o),
(208,328,cs),
(208,275,o),
(248,235,o),
(301,235,cs)
);
}
);
userData = {
assembly = "NPUSHB[ ]	/* 28 values pushed */
0 1 0 0 1 89 0 1 1 0 97 2 1 0 1 0 81 1 0 9 7 0 15 1 15 3 8 22 
CALL[ ]	/* CallFunction */";
};
width = 600;
}
);
note = bullet;
unicode = 8226;
userData = {
KernOnSpecialSpacing = {
L = NoKerning;
R = NoKerning;
};
};
},
{
glyphname = asterisk;
kernLeft = KO_asterisk;
kernRight = KO_asterisk;
lastChange = "2024-08-16 04:03:22 +0000";
layers = (
{
layerId = m002;
shapes = (
{
closed = 1;
nodes = (
(307,424,l),
(384,295,l),
(490,375,l),
(399,490,l),
(538,528,l),
(497,655,l),
(363,600,l),
(373,750,l),
(240,750,l),
(251,601,l),
(115,655,l),
(74,527,l),
(216,490,l),
(122,373,l),
(228,294,l)
);
}
);
userData = {
assembly = "NPUSHB[ ]	/* 25 values pushed */
14 13 12 11 10 9 8 5 4 3 2 1 12 0 73 0 0 0 38 0 78 22 1 8 23 
CALL[ ]	/* CallFunction */";
};
width = 612;
},
{
associatedMasterId = m002;
background = {
shapes = (
{
closed = 1;
nodes = (
(259,467,l),
(332,370,l),
(418,433,l),
(320,564,l),
(305,513,l),
(459,567,l),
(425,667,l),
(272,613,l),
(279,583,l),
(279,748,l),
(240,748,l),
(240,583,l),
(247,613,l),
(94,667,l),
(59,567,l),
(215,513,l),
(199,564,l),
(101,433,l),
(186,369,l)
);
}
);
};
layerId = m003;
shapes = (
{
closed = 1;
nodes = (
(294,494,l),
(381,366,l),
(442,411,l),
(351,533,l),
(490,575,l),
(468,648,l),
(328,599,l),
(332,749,l),
(256,749,l),
(260,599,l),
(121,648,l),
(97,574,l),
(238,533,l),
(146,411,l),
(207,365,l)
);
}
);
userData = {
assembly = "NPUSHB[ ]	/* 25 values pushed */
14 13 12 11 10 9 8 5 4 3 2 1 12 0 73 0 0 0 38 0 78 22 1 8 23 
CALL[ ]	/* CallFunction */";
};
width = 587;
},
{
associatedMasterId = m002;
background = {
shapes = (
{
closed = 1;
nodes = (
(250,467,l),
(323,370,l),
(409,433,l),
(311,564,l),
(296,513,l),
(450,567,l),
(416,667,l),
(263,613,l),
(270,583,l),
(270,748,l),
(231,748,l),
(231,583,l),
(238,613,l),
(85,667,l),
(50,567,l),
(206,513,l),
(190,564,l),
(92,433,l),
(177,369,l)
);
}
);
};
layerId = m004;
shapes = (
{
closed = 1;
nodes = (
(278,537,l),
(371,409,l),
(404,433,l),
(313,559,l),
(453,605,l),
(441,644,l),
(299,598,l),
(299,748,l),
(258,748,l),
(258,598,l),
(116,644,l),
(103,605,l),
(243,559,l),
(152,433,l),
(185,409,l)
);
}
);
userData = {
assembly = "NPUSHB[ ]	/* 25 values pushed */
14 13 12 11 10 9 8 5 4 3 2 1 12 0 73 0 0 0 38 0 78 22 1 8 23 
CALL[ ]	/* CallFunction */";
};
width = 557;
}
);
metricLeft = H;
metricRight = H;
note = asterisk;
unicode = 42;
userData = {
KernOnSpecialSpacing = {
L = quotes;
R = quotes;
};
};
},
{
glyphname = numbersign;
kernRight = KO_numbersign;
lastChange = "2024-08-16 04:03:22 +0000";
layers = (
{
layerId = m002;
shapes = (
{
closed = 1;
nodes = (
(476,0,l),
(719,748,l),
(578,748,l),
(336,0,l)
);
},
{
closed = 1;
nodes = (
(698,177,l),
(698,302,l),
(44,302,l),
(44,177,l)
);
},
{
closed = 1;
nodes = (
(216,0,l),
(459,748,l),
(318,748,l),
(76,0,l)
);
},
{
closed = 1;
nodes = (
(764,445,l),
(764,570,l),
(110,570,l),
(110,445,l)
);
}
);
userData = {
assembly = "MPPEM[ ]	/* MeasurePixelPerEm */
PUSHB[ ]	/* 1 value pushed */
33 
LT[ ]	/* LessThan */
IF[ ]	/* If */
NPUSHB[ ]	/* 35 values pushed */
11 1 7 0 6 0 7 6 103 9 3 8 3 1 1 38 77 0 4 4 5 95 10 1 5 5 41 77 2 1 0 0 39 0 78 
ELSE[ ]	/* Else */
NPUSHB[ ]	/* 33 values pushed */
10 1 5 0 4 7 5 4 104 11 1 7 0 6 0 7 6 103 9 3 8 3 1 1 38 77 2 1 0 0 39 0 78 
EIF[ ]	/* EndIf */
NPUSHB[ ]	/* 34 values pushed */
12 12 8 8 4 4 0 0 12 15 12 15 14 13 8 11 8 11 10 9 4 7 4 7 6 5 0 3 0 3 17 12 8 23 
CALL[ ]	/* CallFunction */";
};
width = 808;
},
{
associatedMasterId = m002;
layerId = m003;
shapes = (
{
closed = 1;
nodes = (
(467,0,l),
(693,748,l),
(612,748,l),
(386,0,l)
);
},
{
closed = 1;
nodes = (
(696,183,l),
(696,254,l),
(55,254,l),
(55,183,l)
);
},
{
closed = 1;
nodes = (
(204,0,l),
(431,748,l),
(349,748,l),
(123,0,l)
);
},
{
closed = 1;
nodes = (
(762,496,l),
(762,566,l),
(121,566,l),
(121,496,l)
);
}
);
userData = {
assembly = "MPPEM[ ]	/* MeasurePixelPerEm */
PUSHB[ ]	/* 1 value pushed */
33 
LT[ ]	/* LessThan */
IF[ ]	/* If */
NPUSHB[ ]	/* 35 values pushed */
11 1 7 0 6 0 7 6 103 9 3 8 3 1 1 38 77 0 4 4 5 95 10 1 5 5 41 77 2 1 0 0 39 0 78 
ELSE[ ]	/* Else */
NPUSHB[ ]	/* 33 values pushed */
10 1 5 0 4 7 5 4 104 11 1 7 0 6 0 7 6 103 9 3 8 3 1 1 38 77 2 1 0 0 39 0 78 
EIF[ ]	/* EndIf */
NPUSHB[ ]	/* 34 values pushed */
12 12 8 8 4 4 0 0 12 15 12 15 14 13 8 11 8 11 10 9 4 7 4 7 6 5 0 3 0 3 17 12 8 23 
CALL[ ]	/* CallFunction */";
};
width = 817;
},
{
associatedMasterId = m002;
layerId = m004;
shapes = (
{
closed = 1;
nodes = (
(179,0,l),
(397,748,l),
(352,748,l),
(135,0,l)
);
},
{
closed = 1;
nodes = (
(693,187,l),
(693,224,l),
(59,224,l),
(59,187,l)
);
},
{
closed = 1;
nodes = (
(472,0,l),
(688,748,l),
(644,748,l),
(429,0,l)
);
},
{
closed = 1;
nodes = (
(759,527,l),
(759,564,l),
(125,564,l),
(125,527,l)
);
}
);
userData = {
assembly = "MPPEM[ ]	/* MeasurePixelPerEm */
PUSHB[ ]	/* 1 value pushed */
33 
LT[ ]	/* LessThan */
IF[ ]	/* If */
NPUSHB[ ]	/* 35 values pushed */
11 1 7 0 6 0 7 6 103 9 3 8 3 1 1 38 77 0 4 4 5 95 10 1 5 5 41 77 2 1 0 0 39 0 78 
ELSE[ ]	/* Else */
NPUSHB[ ]	/* 33 values pushed */
10 1 5 0 4 7 5 4 104 11 1 7 0 6 0 7 6 103 9 3 8 3 1 1 38 77 2 1 0 0 39 0 78 
EIF[ ]	/* EndIf */
NPUSHB[ ]	/* 34 values pushed */
12 12 8 8 4 4 0 0 12 15 12 15 14 13 8 11 8 11 10 9 4 7 4 7 6 5 0 3 0 3 17 12 8 23 
CALL[ ]	/* CallFunction */";
};
width = 818;
}
);
note = numbersign;
unicode = 35;
userData = {
KernOnSpecialSpacing = {
L = NoKerning;
};
};
},
{
glyphname = slash;
kernLeft = KO_slash;
kernRight = KO_slash;
lastChange = "2024-08-16 04:03:22 +0000";
layers = (
{
layerId = m002;
shapes = (
{
closed = 1;
nodes = (
(156,0,l),
(399,748,l),
(248,748,l),
(6,0,l)
);
}
);
userData = {
assembly = "NPUSHB[ ]	/* 16 values pushed */
0 1 1 38 77 0 0 0 39 0 78 17 16 2 8 24 
CALL[ ]	/* CallFunction */";
};
width = 404;
},
{
associatedMasterId = m002;
layerId = m003;
shapes = (
{
closed = 1;
nodes = (
(138,0,l),
(350,748,l),
(265,748,l),
(55,0,l)
);
}
);
userData = {
assembly = "NPUSHB[ ]	/* 16 values pushed */
0 1 1 38 77 0 0 0 39 0 78 17 16 2 8 24 
CALL[ ]	/* CallFunction */";
};
width = 413;
},
{
associatedMasterId = m002;
layerId = m004;
shapes = (
{
closed = 1;
nodes = (
(126,0,l),
(318,748,l),
(275,748,l),
(84,0,l)
);
}
);
userData = {
assembly = "NPUSHB[ ]	/* 16 values pushed */
0 1 1 38 77 0 0 0 39 0 78 17 16 2 8 24 
CALL[ ]	/* CallFunction */";
};
width = 414;
}
);
note = slash;
unicode = 47;
userData = {
KernOnName = slash;
KernOnSpecialSpacing = {
L = slash;
R = slash;
};
};
},
{
glyphname = backslash;
kernLeft = KO_backslash;
kernRight = KO_backslash;
lastChange = "2024-08-16 04:03:22 +0000";
layers = (
{
layerId = m002;
shapes = (
{
alignment = 1;
pos = (404,0);
ref = slash;
scale = (-1,1);
}
);
userData = {
assembly = "NPUSHB[ ]	/* 22 values pushed */
0 0 0 38 77 2 1 1 1 39 1 78 0 0 0 3 0 3 17 3 8 23 
CALL[ ]	/* CallFunction */";
};
width = 404;
},
{
associatedMasterId = m002;
background = {
shapes = (
{
closed = 1;
nodes = (
(353,0,l),
(162,748,l),
(12,748,l),
(202,0,l)
);
}
);
};
layerId = m003;
shapes = (
{
alignment = 1;
pos = (404,0);
ref = slash;
scale = (-1,1);
}
);
userData = {
assembly = "NPUSHB[ ]	/* 22 values pushed */
0 0 0 38 77 2 1 1 1 39 1 78 0 0 0 3 0 3 17 3 8 23 
CALL[ ]	/* CallFunction */";
};
width = 404;
},
{
associatedMasterId = m002;
background = {
shapes = (
{
closed = 1;
nodes = (
(353,0,l),
(162,748,l),
(12,748,l),
(202,0,l)
);
}
);
};
layerId = m004;
shapes = (
{
alignment = 1;
pos = (404,0);
ref = slash;
scale = (-1,1);
}
);
userData = {
assembly = "NPUSHB[ ]	/* 22 values pushed */
0 0 0 38 77 2 1 1 1 39 1 78 0 0 0 3 0 3 17 3 8 23 
CALL[ ]	/* CallFunction */";
};
width = 404;
}
);
note = backslash;
unicode = 92;
userData = {
KernOnSpecialSpacing = {
L = "spaced-off";
R = "spaced-off";
};
};
},
{
glyphname = hyphen;
kernLeft = KO_hyphen;
kernRight = KO_hyphen;
lastChange = "2024-08-16 04:03:22 +0000";
layers = (
{
layerId = m002;
shapes = (
{
closed = 1;
nodes = (
(382,219,l),
(382,367,l),
(74,367,l),
(74,219,l)
);
}
);
userData = {
assembly = "NPUSHB[ ]	/* 28 values pushed */
2 1 1 0 0 1 87 2 1 1 1 0 95 0 0 1 0 79 0 0 0 3 0 3 17 3 8 23 
CALL[ ]	/* CallFunction */";
};
width = 456;
},
{
associatedMasterId = m002;
layerId = m003;
shapes = (
{
closed = 1;
nodes = (
(402,253,l),
(402,333,l),
(97,333,l),
(97,253,l)
);
}
);
userData = {
assembly = "NPUSHB[ ]	/* 28 values pushed */
2 1 1 0 0 1 87 2 1 1 1 0 95 0 0 1 0 79 0 0 0 3 0 3 17 3 8 23 
CALL[ ]	/* CallFunction */";
};
width = 499;
},
{
associatedMasterId = m002;
layerId = m004;
shapes = (
{
closed = 1;
nodes = (
(406,275,l),
(406,312,l),
(103,312,l),
(103,275,l)
);
}
);
userData = {
assembly = "NPUSHB[ ]	/* 28 values pushed */
2 1 1 0 0 1 87 2 1 1 1 0 95 0 0 1 0 79 0 0 0 3 0 3 17 3 8 23 
CALL[ ]	/* CallFunction */";
};
width = 510;
}
);
metricLeft = H;
metricRight = H;
note = hyphen;
unicode = 45;
userData = {
KernOnName = hyphen;
KernOnSpecialSpacing = {
L = hyphen;
R = hyphen;
};
};
},
{
glyphname = endash;
kernLeft = KO_endash;
kernRight = KO_endash;
lastChange = "2024-08-16 04:03:22 +0000";
layers = (
{
layerId = m002;
shapes = (
{
closed = 1;
nodes = (
(700,224,l),
(700,372,l),
(74,372,l),
(74,224,l)
);
}
);
userData = {
assembly = "NPUSHB[ ]	/* 28 values pushed */
2 1 1 0 0 1 87 2 1 1 1 0 95 0 0 1 0 79 0 0 0 3 0 3 17 3 8 23 
CALL[ ]	/* CallFunction */";
};
width = 774;
},
{
associatedMasterId = m002;
layerId = m003;
shapes = (
{
closed = 1;
nodes = (
(660,258,l),
(660,338,l),
(97,338,l),
(97,258,l)
);
}
);
userData = {
assembly = "NPUSHB[ ]	/* 28 values pushed */
2 1 1 0 0 1 87 2 1 1 1 0 95 0 0 1 0 79 0 0 0 3 0 3 17 3 8 23 
CALL[ ]	/* CallFunction */";
};
width = 757;
},
{
associatedMasterId = m002;
layerId = m004;
shapes = (
{
closed = 1;
nodes = (
(627,279,l),
(627,316,l),
(103,316,l),
(103,279,l)
);
}
);
userData = {
assembly = "NPUSHB[ ]	/* 28 values pushed */
2 1 1 0 0 1 87 2 1 1 1 0 95 0 0 1 0 79 0 0 0 3 0 3 17 3 8 23 
CALL[ ]	/* CallFunction */";
};
width = 731;
}
);
metricLeft = H;
metricRight = H;
note = endash;
unicode = 8211;
userData = {
KernOnName = endash;
KernOnSpecialSpacing = {
L = dashes;
R = dashes;
};
};
},
{
glyphname = emdash;
kernLeft = KO_endash;
kernRight = KO_endash;
lastChange = "2024-08-16 04:03:22 +0000";
layers = (
{
layerId = m002;
shapes = (
{
closed = 1;
nodes = (
(898,224,l),
(898,372,l),
(74,372,l),
(74,224,l)
);
}
);
userData = {
assembly = "NPUSHB[ ]	/* 28 values pushed */
2 1 1 0 0 1 87 2 1 1 1 0 95 0 0 1 0 79 0 0 0 3 0 3 17 3 8 23 
CALL[ ]	/* CallFunction */";
};
width = 972;
},
{
associatedMasterId = m002;
layerId = m003;
shapes = (
{
closed = 1;
nodes = (
(942,258,l),
(942,338,l),
(97,338,l),
(97,258,l)
);
}
);
userData = {
assembly = "NPUSHB[ ]	/* 28 values pushed */
2 1 1 0 0 1 87 2 1 1 1 0 95 0 0 1 0 79 0 0 0 3 0 3 17 3 8 23 
CALL[ ]	/* CallFunction */";
};
width = 1039;
},
{
associatedMasterId = m002;
layerId = m004;
shapes = (
{
closed = 1;
nodes = (
(961,279,l),
(961,316,l),
(103,316,l),
(103,279,l)
);
}
);
userData = {
assembly = "NPUSHB[ ]	/* 28 values pushed */
2 1 1 0 0 1 87 2 1 1 1 0 95 0 0 1 0 79 0 0 0 3 0 3 17 3 8 23 
CALL[ ]	/* CallFunction */";
};
width = 1065;
}
);
metricLeft = H;
metricRight = H;
note = emdash;
unicode = 8212;
userData = {
KernOnName = emdash;
KernOnSpecialSpacing = {
L = dashes;
R = dashes;
};
};
},
{
glyphname = underscore;
kernLeft = KO_underscore;
kernRight = KO_underscore;
lastChange = "2024-08-16 04:03:22 +0000";
layers = (
{
layerId = m002;
shapes = (
{
closed = 1;
nodes = (
(700,-158,l),
(700,-30,l),
(74,-30,l),
(74,-158,l)
);
}
);
userData = {
assembly = "PUSHB[ ]	/* 2 values pushed */
6 100 
WCVTP[ ]	/* WriteCVTInPixels */
NPUSHB[ ]	/* 28 values pushed */
2 1 1 0 0 1 87 2 1 1 1 0 95 0 0 1 0 79 0 0 0 3 0 3 17 3 8 23 
CALL[ ]	/* CallFunction */
PUSHB[ ]	/* 2 values pushed */
6 0 
WCVTP[ ]	/* WriteCVTInPixels */";
};
width = 774;
},
{
associatedMasterId = m002;
layerId = m003;
shapes = (
{
closed = 1;
nodes = (
(660,-93,l),
(660,-22,l),
(97,-22,l),
(97,-93,l)
);
}
);
userData = {
assembly = "PUSHB[ ]	/* 2 values pushed */
6 100 
WCVTP[ ]	/* WriteCVTInPixels */
NPUSHB[ ]	/* 28 values pushed */
2 1 1 0 0 1 87 2 1 1 1 0 95 0 0 1 0 79 0 0 0 3 0 3 17 3 8 23 
CALL[ ]	/* CallFunction */
PUSHB[ ]	/* 2 values pushed */
6 0 
WCVTP[ ]	/* WriteCVTInPixels */";
};
width = 757;
},
{
associatedMasterId = m002;
layerId = m004;
shapes = (
{
closed = 1;
nodes = (
(627,-53,l),
(627,-16,l),
(103,-16,l),
(103,-53,l)
);
}
);
userData = {
assembly = "PUSHB[ ]	/* 2 values pushed */
6 100 
WCVTP[ ]	/* WriteCVTInPixels */
NPUSHB[ ]	/* 28 values pushed */
2 1 1 0 0 1 87 2 1 1 1 0 95 0 0 1 0 79 0 0 0 3 0 3 17 3 8 23 
CALL[ ]	/* CallFunction */
PUSHB[ ]	/* 2 values pushed */
6 0 
WCVTP[ ]	/* WriteCVTInPixels */";
};
width = 731;
}
);
metricLeft = H;
metricRight = H;
note = underscore;
unicode = 95;
userData = {
KernOnSpecialSpacing = {
L = underscore;
R = underscore;
};
};
},
{
glyphname = parenleft;
kernRight = KO_parenleft;
lastChange = "2024-08-16 04:03:22 +0000";
layers = (
{
layerId = m002;
shapes = (
{
closed = 1;
nodes = (
(405,-176,l),
(259,-19,o),
(196,130,o),
(196,317,cs),
(196,505,o),
(259,653,o),
(405,810,c),
(239,810,l),
(116,680,o),
(46,501,o),
(46,317,cs),
(46,133,o),
(116,-46,o),
(239,-176,c)
);
}
);
userData = {
assembly = "PUSHB[ ]	/* 4 values pushed */
6 0 1 50 
CALL[ ]	/* CallFunction */";
};
width = 375;
},
{
associatedMasterId = m002;
layerId = m003;
shapes = (
{
closed = 1;
nodes = (
(342,-157,l),
(208,-11,o),
(149,154,o),
(149,322,cs),
(149,494,o),
(209,658,o),
(342,802,c),
(261,814,l),
(133,678,o),
(64,498,o),
(64,322,cs),
(64,143,o),
(135,-36,o),
(261,-170,c)
);
}
);
userData = {
assembly = "PUSHB[ ]	/* 4 values pushed */
6 0 1 50 
CALL[ ]	/* CallFunction */";
};
width = 405;
},
{
associatedMasterId = m002;
layerId = m004;
shapes = (
{
closed = 1;
nodes = (
(298,-146,l),
(182,-18,o),
(115,153,o),
(115,325,cs),
(115,499,o),
(182,670,o),
(299,796,c),
(268,816,l),
(141,681,o),
(69,502,o),
(69,325,cs),
(69,148,o),
(141,-31,o),
(268,-166,c)
);
}
);
userData = {
assembly = "PUSHB[ ]	/* 4 values pushed */
6 0 1 50 
CALL[ ]	/* CallFunction */";
};
width = 429;
}
);
metricLeft = O;
note = parenleft;
unicode = 40;
userData = {
KernOnSpecialSpacing = {
L = NoKerning;
R = parenthesis;
};
};
},
{
glyphname = parenright;
kernLeft = KO_parenright;
lastChange = "2024-08-16 04:03:22 +0000";
layers = (
{
layerId = m002;
shapes = (
{
alignment = 1;
pos = (375,0);
ref = parenleft;
scale = (-1,1);
}
);
userData = {
assembly = "PUSHB[ ]	/* 4 values pushed */
13 7 1 50 
CALL[ ]	/* CallFunction */";
};
width = 375;
},
{
associatedMasterId = m002;
background = {
shapes = (
{
closed = 1;
nodes = (
(243,-29,o),
(312,144,o),
(312,325,cs),
(312,505,o),
(243,679,o),
(114,816,c),
(10,748,l),
(117,631,o),
(174,480,o),
(174,325,cs),
(174,168,o),
(117,21,o),
(10,-98,c),
(114,-166,l)
);
}
);
};
layerId = m003;
shapes = (
{
alignment = 1;
pos = (375,0);
ref = parenleft;
scale = (-1,1);
}
);
userData = {
assembly = "PUSHB[ ]	/* 4 values pushed */
13 7 1 50 
CALL[ ]	/* CallFunction */";
};
width = 375;
},
{
associatedMasterId = m002;
background = {
shapes = (
{
closed = 1;
nodes = (
(243,-29,o),
(312,144,o),
(312,325,cs),
(312,505,o),
(243,679,o),
(114,816,c),
(10,748,l),
(117,631,o),
(174,480,o),
(174,325,cs),
(174,168,o),
(117,21,o),
(10,-98,c),
(114,-166,l)
);
}
);
};
layerId = m004;
shapes = (
{
alignment = 1;
pos = (375,0);
ref = parenleft;
scale = (-1,1);
}
);
userData = {
assembly = "PUSHB[ ]	/* 4 values pushed */
13 7 1 50 
CALL[ ]	/* CallFunction */";
};
width = 375;
}
);
note = parenright;
unicode = 41;
userData = {
KernOnName = parenright;
KernOnSpecialSpacing = {
L = parenthesis;
R = NoKerning;
};
};
},
{
glyphname = braceleft;
kernRight = KO_braceleft;
lastChange = "2024-08-16 04:03:22 +0000";
layers = (
{
guides = (
{
pos = (97,-176);
}
);
layerId = m002;
shapes = (
{
closed = 1;
nodes = (
(440,-176,l),
(440,-48,l),
(398,-48,ls),
(355,-48,o),
(333,-23,o),
(333,25,cs),
(333,163,ls),
(333,234,o),
(297,288,o),
(234,311,c),
(297,336,o),
(333,390,o),
(333,460,cs),
(333,598,ls),
(333,645,o),
(355,670,o),
(398,670,cs),
(440,670,l),
(440,799,l),
(360,799,ls),
(254,799,o),
(187,731,o),
(187,622,cs),
(187,475,ls),
(187,421,o),
(146,386,o),
(74,379,c),
(74,244,l),
(146,238,o),
(187,203,o),
(187,147,cs),
(187,1,ls),
(187,-108,o),
(254,-176,o),
(360,-176,cs)
);
}
);
userData = {
assembly = "PUSHB[ ]	/* 6 values pushed */
25 1 1 2 1 76 
MPPEM[ ]	/* MeasurePixelPerEm */
PUSHB[ ]	/* 1 value pushed */
9 
LT[ ]	/* LessThan */
IF[ ]	/* If */
NPUSHB[ ]	/* 30 values pushed */
0 2 0 1 5 2 1 105 0 4 4 3 97 0 3 3 48 77 0 5 5 0 97 6 1 0 0 43 0 78 
ELSE[ ]	/* Else */
NPUSHB[ ]	/* 28 values pushed */
0 3 0 4 2 3 4 105 0 2 0 1 5 2 1 105 0 5 5 0 97 6 1 0 0 43 0 78 
EIF[ ]	/* EndIf */
NPUSHB[ ]	/* 19 values pushed */
1 0 33 31 19 17 16 14 9 8 7 6 0 34 1 34 7 8 22 
CALL[ ]	/* CallFunction */";
};
width = 514;
},
{
associatedMasterId = m002;
layerId = m003;
shapes = (
{
closed = 1;
nodes = (
(438,-172,l),
(438,-100,l),
(398,-100,ls),
(316,-100,o),
(269,-54,o),
(269,27,cs),
(269,169,ls),
(269,230,o),
(247,286,o),
(188,315,c),
(238,341,o),
(269,390,o),
(269,461,cs),
(269,603,ls),
(269,684,o),
(316,729,o),
(398,729,cs),
(438,729,l),
(438,802,l),
(384,802,ls),
(262,802,o),
(185,730,o),
(185,614,cs),
(185,472,ls),
(185,403,o),
(153,362,o),
(97,357,c),
(97,274,l),
(156,269,o),
(185,224,o),
(185,159,cs),
(185,16,ls),
(185,-100,o),
(262,-172,o),
(384,-172,cs)
);
}
);
userData = {
assembly = "PUSHB[ ]	/* 6 values pushed */
25 1 1 2 1 76 
MPPEM[ ]	/* MeasurePixelPerEm */
PUSHB[ ]	/* 1 value pushed */
9 
LT[ ]	/* LessThan */
IF[ ]	/* If */
NPUSHB[ ]	/* 30 values pushed */
0 2 0 1 5 2 1 105 0 4 4 3 97 0 3 3 48 77 0 5 5 0 97 6 1 0 0 43 0 78 
ELSE[ ]	/* Else */
NPUSHB[ ]	/* 28 values pushed */
0 3 0 4 2 3 4 105 0 2 0 1 5 2 1 105 0 5 5 0 97 6 1 0 0 43 0 78 
EIF[ ]	/* EndIf */
NPUSHB[ ]	/* 19 values pushed */
1 0 33 31 19 17 16 14 9 8 7 6 0 34 1 34 7 8 22 
CALL[ ]	/* CallFunction */";
};
width = 535;
},
{
associatedMasterId = m002;
layerId = m004;
shapes = (
{
closed = 1;
nodes = (
(429,-170,l),
(429,-130,l),
(390,-130,ls),
(284,-130,o),
(223,-72,o),
(223,29,cs),
(223,173,ls),
(223,240,o),
(200,289,o),
(153,317,c),
(198,345,o),
(223,394,o),
(223,461,cs),
(223,605,ls),
(223,706,o),
(284,764,o),
(390,764,cs),
(429,764,l),
(429,804,l),
(390,804,ls),
(259,804,o),
(177,729,o),
(177,609,cs),
(177,470,ls),
(177,393,o),
(151,347,o),
(103,343,c),
(103,292,l),
(151,288,o),
(177,241,o),
(177,165,cs),
(177,26,ls),
(177,-94,o),
(259,-170,o),
(390,-170,cs)
);
}
);
userData = {
assembly = "PUSHB[ ]	/* 6 values pushed */
25 1 1 2 1 76 
MPPEM[ ]	/* MeasurePixelPerEm */
PUSHB[ ]	/* 1 value pushed */
9 
LT[ ]	/* LessThan */
IF[ ]	/* If */
NPUSHB[ ]	/* 30 values pushed */
0 2 0 1 5 2 1 105 0 4 4 3 97 0 3 3 48 77 0 5 5 0 97 6 1 0 0 43 0 78 
ELSE[ ]	/* Else */
NPUSHB[ ]	/* 28 values pushed */
0 3 0 4 2 3 4 105 0 2 0 1 5 2 1 105 0 5 5 0 97 6 1 0 0 43 0 78 
EIF[ ]	/* EndIf */
NPUSHB[ ]	/* 19 values pushed */
1 0 33 31 19 17 16 14 9 8 7 6 0 34 1 34 7 8 22 
CALL[ ]	/* CallFunction */";
};
width = 533;
}
);
metricLeft = H;
metricRight = H;
note = braceleft;
unicode = 123;
userData = {
KernOnSpecialSpacing = {
L = NoKerning;
R = parenthesis;
};
};
},
{
glyphname = braceright;
kernLeft = KO_braceright;
lastChange = "2024-08-16 04:03:22 +0000";
layers = (
{
layerId = m002;
shapes = (
{
alignment = 1;
pos = (514,0);
ref = braceleft;
scale = (-1,1);
}
);
userData = {
assembly = "PUSHB[ ]	/* 6 values pushed */
25 1 2 1 1 76 
MPPEM[ ]	/* MeasurePixelPerEm */
PUSHB[ ]	/* 1 value pushed */
9 
LT[ ]	/* LessThan */
IF[ ]	/* If */
NPUSHB[ ]	/* 30 values pushed */
0 1 0 2 4 1 2 105 0 5 5 0 97 6 1 0 0 48 77 0 4 4 3 97 0 3 3 43 3 78 
ELSE[ ]	/* Else */
NPUSHB[ ]	/* 28 values pushed */
6 1 0 0 5 1 0 5 105 0 1 0 2 4 1 2 105 0 4 4 3 97 0 3 3 43 3 78 
EIF[ ]	/* EndIf */
NPUSHB[ ]	/* 19 values pushed */
1 0 33 31 19 17 16 14 9 8 7 6 0 34 1 34 7 8 22 
CALL[ ]	/* CallFunction */";
};
width = 514;
},
{
associatedMasterId = m002;
background = {
shapes = (
{
closed = 1;
nodes = (
(49,-170,ls),
(185,-170,o),
(262,-100,o),
(262,25,cs),
(262,164,ls),
(262,217,o),
(288,248,o),
(336,251,c),
(336,382,l),
(288,385,o),
(262,417,o),
(262,469,cs),
(262,608,ls),
(262,733,o),
(185,804,o),
(49,804,cs),
(10,804,l),
(10,683,l),
(45,683,ls),
(96,683,o),
(124,654,o),
(124,605,cs),
(124,461,ls),
(124,394,o),
(150,345,o),
(201,317,c),
(150,289,o),
(124,240,o),
(124,173,cs),
(124,29,ls),
(124,-20,o),
(96,-49,o),
(45,-49,cs),
(10,-49,l),
(10,-170,l)
);
}
);
};
layerId = m003;
shapes = (
{
alignment = 1;
pos = (514,0);
ref = braceleft;
scale = (-1,1);
}
);
userData = {
assembly = "PUSHB[ ]	/* 6 values pushed */
25 1 2 1 1 76 
MPPEM[ ]	/* MeasurePixelPerEm */
PUSHB[ ]	/* 1 value pushed */
9 
LT[ ]	/* LessThan */
IF[ ]	/* If */
NPUSHB[ ]	/* 30 values pushed */
0 1 0 2 4 1 2 105 0 5 5 0 97 6 1 0 0 48 77 0 4 4 3 97 0 3 3 43 3 78 
ELSE[ ]	/* Else */
NPUSHB[ ]	/* 28 values pushed */
6 1 0 0 5 1 0 5 105 0 1 0 2 4 1 2 105 0 4 4 3 97 0 3 3 43 3 78 
EIF[ ]	/* EndIf */
NPUSHB[ ]	/* 19 values pushed */
1 0 33 31 19 17 16 14 9 8 7 6 0 34 1 34 7 8 22 
CALL[ ]	/* CallFunction */";
};
width = 514;
},
{
associatedMasterId = m002;
background = {
shapes = (
{
closed = 1;
nodes = (
(49,-170,ls),
(185,-170,o),
(262,-100,o),
(262,25,cs),
(262,164,ls),
(262,217,o),
(288,248,o),
(336,251,c),
(336,382,l),
(288,385,o),
(262,417,o),
(262,469,cs),
(262,608,ls),
(262,733,o),
(185,804,o),
(49,804,cs),
(10,804,l),
(10,683,l),
(45,683,ls),
(96,683,o),
(124,654,o),
(124,605,cs),
(124,461,ls),
(124,394,o),
(150,345,o),
(201,317,c),
(150,289,o),
(124,240,o),
(124,173,cs),
(124,29,ls),
(124,-20,o),
(96,-49,o),
(45,-49,cs),
(10,-49,l),
(10,-170,l)
);
}
);
};
layerId = m004;
shapes = (
{
alignment = 1;
pos = (514,0);
ref = braceleft;
scale = (-1,1);
}
);
userData = {
assembly = "PUSHB[ ]	/* 6 values pushed */
25 1 2 1 1 76 
MPPEM[ ]	/* MeasurePixelPerEm */
PUSHB[ ]	/* 1 value pushed */
9 
LT[ ]	/* LessThan */
IF[ ]	/* If */
NPUSHB[ ]	/* 30 values pushed */
0 1 0 2 4 1 2 105 0 5 5 0 97 6 1 0 0 48 77 0 4 4 3 97 0 3 3 43 3 78 
ELSE[ ]	/* Else */
NPUSHB[ ]	/* 28 values pushed */
6 1 0 0 5 1 0 5 105 0 1 0 2 4 1 2 105 0 4 4 3 97 0 3 3 43 3 78 
EIF[ ]	/* EndIf */
NPUSHB[ ]	/* 19 values pushed */
1 0 33 31 19 17 16 14 9 8 7 6 0 34 1 34 7 8 22 
CALL[ ]	/* CallFunction */";
};
width = 514;
}
);
note = braceright;
unicode = 125;
userData = {
KernOnSpecialSpacing = {
L = parenthesis;
R = NoKerning;
};
};
},
{
glyphname = bracketleft;
kernRight = KO_bracketleft;
lastChange = "2024-08-16 04:03:22 +0000";
layers = (
{
guides = (
{
pos = (54,-176);
}
);
layerId = m002;
shapes = (
{
closed = 1;
nodes = (
(338,-176,l),
(338,-48,l),
(219,-48,l),
(219,676,l),
(338,676,l),
(338,804,l),
(74,804,l),
(74,-176,l)
);
}
);
userData = {
assembly = "NPUSHB[ ]	/* 50 values pushed */
4 1 0 8 1 5 2 0 5 103 0 2 2 1 95 7 3 6 3 1 1 43 1 78 8 8 4 4 0 0 8 11 8 11 10 9 4 7 4 7 6 5 0 3 0 3 17 9 8 23 
CALL[ ]	/* CallFunction */";
};
width = 412;
},
{
associatedMasterId = m002;
layerId = m003;
shapes = (
{
closed = 1;
nodes = (
(377,-173,l),
(377,-98,l),
(182,-98,l),
(182,729,l),
(377,729,l),
(377,804,l),
(97,804,l),
(97,-173,l)
);
}
);
userData = {
assembly = "NPUSHB[ ]	/* 50 values pushed */
4 1 0 8 1 5 2 0 5 103 0 2 2 1 95 7 3 6 3 1 1 43 1 78 8 8 4 4 0 0 8 11 8 11 10 9 4 7 4 7 6 5 0 3 0 3 17 9 8 23 
CALL[ ]	/* CallFunction */";
};
width = 474;
},
{
associatedMasterId = m002;
layerId = m004;
shapes = (
{
closed = 1;
nodes = (
(393,-170,l),
(393,-130,l),
(148,-130,l),
(148,764,l),
(393,764,l),
(393,804,l),
(103,804,l),
(103,-170,l)
);
}
);
userData = {
assembly = "NPUSHB[ ]	/* 50 values pushed */
4 1 0 8 1 5 2 0 5 103 0 2 2 1 95 7 3 6 3 1 1 43 1 78 8 8 4 4 0 0 8 11 8 11 10 9 4 7 4 7 6 5 0 3 0 3 17 9 8 23 
CALL[ ]	/* CallFunction */";
};
width = 497;
}
);
metricLeft = H;
metricRight = H;
note = bracketleft;
unicode = 91;
userData = {
KernOnSpecialSpacing = {
L = NoKerning;
R = parenthesis;
};
};
},
{
glyphname = bracketright;
kernLeft = KO_bracketright;
lastChange = "2024-08-16 04:03:22 +0000";
layers = (
{
layerId = m002;
shapes = (
{
alignment = 1;
pos = (412,0);
ref = bracketleft;
scale = (-1,1);
}
);
userData = {
assembly = "NPUSHB[ ]	/* 32 values pushed */
4 1 3 0 2 1 3 2 103 0 1 1 0 95 0 0 0 43 0 78 0 0 0 7 0 7 17 17 17 5 8 25 
CALL[ ]	/* CallFunction */";
};
width = 412;
},
{
associatedMasterId = m002;
background = {
shapes = (
{
closed = 1;
nodes = (
(300,-170,l),
(300,804,l),
(10,804,l),
(10,683,l),
(154,683,l),
(154,-49,l),
(10,-49,l),
(10,-170,l)
);
}
);
};
layerId = m003;
shapes = (
{
alignment = 1;
pos = (412,0);
ref = bracketleft;
scale = (-1,1);
}
);
userData = {
assembly = "NPUSHB[ ]	/* 32 values pushed */
4 1 3 0 2 1 3 2 103 0 1 1 0 95 0 0 0 43 0 78 0 0 0 7 0 7 17 17 17 5 8 25 
CALL[ ]	/* CallFunction */";
};
width = 412;
},
{
associatedMasterId = m002;
background = {
shapes = (
{
closed = 1;
nodes = (
(300,-170,l),
(300,804,l),
(10,804,l),
(10,683,l),
(154,683,l),
(154,-49,l),
(10,-49,l),
(10,-170,l)
);
}
);
};
layerId = m004;
shapes = (
{
alignment = 1;
pos = (412,0);
ref = bracketleft;
scale = (-1,1);
}
);
userData = {
assembly = "NPUSHB[ ]	/* 32 values pushed */
4 1 3 0 2 1 3 2 103 0 1 1 0 95 0 0 0 43 0 78 0 0 0 7 0 7 17 17 17 5 8 25 
CALL[ ]	/* CallFunction */";
};
width = 412;
}
);
note = bracketright;
unicode = 93;
userData = {
KernOnSpecialSpacing = {
L = parenthesis;
R = NoKerning;
};
};
},
{
glyphname = quotedblbase;
kernRight = KO_quotedblbase;
lastChange = "2024-08-16 04:03:22 +0000";
layers = (
{
layerId = m002;
shapes = (
{
pos = (43,0);
ref = comma;
},
{
pos = (258,0);
ref = comma;
}
);
userData = {
assembly = "NPUSHB[ ]	/* 60 values pushed */
10 5 8 3 1 4 1 0 1 0 99 11 7 9 3 3 3 2 95 6 1 2 2 39 2 78 12 12 8 8 4 4 0 0 12 15 12 15 14 13 8 11 8 11 10 9 4 7 4 7 6 5 0 3 0 3 17 12 8 23 
CALL[ ]	/* CallFunction */";
};
width = 567;
},
{
associatedMasterId = m002;
background = {
shapes = (
{
pos = (43,0);
ref = comma;
},
{
pos = (258,0);
ref = comma;
},
{
closed = 1;
nodes = (
(186,-114,l),
(235,-49,o),
(256,-11,o),
(256,18,cs),
(256,44,o),
(240,61,o),
(216,61,cs),
(192,61,o),
(176,46,o),
(176,23,cs),
(176,5,o),
(186,-8,o),
(205,-13,c),
(193,-46,o),
(178,-72,o),
(152,-114,c)
);
},
{
closed = 1;
nodes = (
(301,-114,l),
(350,-49,o),
(371,-11,o),
(371,18,cs),
(371,44,o),
(355,61,o),
(331,61,cs),
(307,61,o),
(291,46,o),
(291,23,cs),
(291,5,o),
(301,-8,o),
(320,-13,c),
(308,-46,o),
(293,-72,o),
(267,-114,c)
);
}
);
};
layerId = m003;
shapes = (
{
pos = (43,0);
ref = comma;
},
{
pos = (216,0);
ref = comma;
}
);
userData = {
assembly = "NPUSHB[ ]	/* 60 values pushed */
10 5 8 3 1 4 1 0 1 0 99 11 7 9 3 3 3 2 95 6 1 2 2 39 2 78 12 12 8 8 4 4 0 0 12 15 12 15 14 13 8 11 8 11 10 9 4 7 4 7 6 5 0 3 0 3 17 12 8 23 
CALL[ ]	/* CallFunction */";
};
width = 507;
},
{
associatedMasterId = m002;
background = {
shapes = (
{
pos = (49,0);
ref = comma;
},
{
pos = (264,0);
ref = comma;
},
{
closed = 1;
nodes = (
(192,-114,l),
(241,-49,o),
(262,-11,o),
(262,18,cs),
(262,44,o),
(246,61,o),
(222,61,cs),
(198,61,o),
(182,46,o),
(182,23,cs),
(182,5,o),
(192,-8,o),
(211,-13,c),
(199,-46,o),
(184,-72,o),
(158,-114,c)
);
},
{
closed = 1;
nodes = (
(307,-114,l),
(356,-49,o),
(377,-11,o),
(377,18,cs),
(377,44,o),
(361,61,o),
(337,61,cs),
(313,61,o),
(297,46,o),
(297,23,cs),
(297,5,o),
(307,-8,o),
(326,-13,c),
(314,-46,o),
(299,-72,o),
(273,-114,c)
);
}
);
};
layerId = m004;
shapes = (
{
pos = (49,0);
ref = comma;
},
{
pos = (164,0);
ref = comma;
}
);
userData = {
assembly = "NPUSHB[ ]	/* 60 values pushed */
10 5 8 3 1 4 1 0 1 0 99 11 7 9 3 3 3 2 95 6 1 2 2 39 2 78 12 12 8 8 4 4 0 0 12 15 12 15 14 13 8 11 8 11 10 9 4 7 4 7 6 5 0 3 0 3 17 12 8 23 
CALL[ ]	/* CallFunction */";
};
width = 428;
}
);
metricLeft = H;
metricRight = H;
note = quotedblbase;
unicode = 8222;
userData = {
KernOnSpecialSpacing = {
L = quotes;
R = quotes;
};
};
},
{
glyphname = quotedblleft;
kernLeft = KO_quotedblleft;
kernRight = KO_quotedblleft;
lastChange = "2025-03-02 10:38:26 +0000";
layers = (
{
layerId = m002;
shapes = (
{
angle = 180;
pos = (549,1211);
ref = quotedblright;
}
);
userData = {
assembly = "MPPEM[ ]	/* MeasurePixelPerEm */
PUSHB[ ]	/* 1 value pushed */
9 
LT[ ]	/* LessThan */
IF[ ]	/* If */
NPUSHB[ ]	/* 29 values pushed */
10 5 8 3 1 1 0 95 4 1 0 0 38 77 11 7 9 3 3 3 2 95 6 1 2 2 41 3 78 
ELSE[ ]	/* Else */
MPPEM[ ]	/* MeasurePixelPerEm */
PUSHB[ ]	/* 1 value pushed */
11 
LT[ ]	/* LessThan */
IF[ ]	/* If */
NPUSHB[ ]	/* 26 values pushed */
6 1 2 11 7 9 3 3 2 3 99 10 5 8 3 1 1 0 95 4 1 0 0 38 1 78 
ELSE[ ]	/* Else */
MPPEM[ ]	/* MeasurePixelPerEm */
PUSHB[ ]	/* 1 value pushed */
21 
LT[ ]	/* LessThan */
IF[ ]	/* If */
NPUSHB[ ]	/* 29 values pushed */
10 5 8 3 1 1 0 95 4 1 0 0 38 77 11 7 9 3 3 3 2 95 6 1 2 2 41 3 78 
ELSE[ ]	/* Else */
NPUSHB[ ]	/* 26 values pushed */
6 1 2 11 7 9 3 3 2 3 99 10 5 8 3 1 1 0 95 4 1 0 0 38 1 78 
EIF[ ]	/* EndIf */
EIF[ ]	/* EndIf */
EIF[ ]	/* EndIf */
NPUSHB[ ]	/* 34 values pushed */
12 12 8 8 4 4 0 0 12 15 12 15 14 13 8 11 8 11 10 9 4 7 4 7 6 5 0 3 0 3 17 12 8 23 
CALL[ ]	/* CallFunction */";
};
width = 549;
},
{
associatedMasterId = m002;
background = {
shapes = (
{
closed = 1;
nodes = (
(470,439,l),
(470,603,l),
(299,603,l),
(299,439,l)
);
},
{
closed = 1;
nodes = (
(259,439,l),
(259,603,l),
(88,603,l),
(88,439,l)
);
},
{
closed = 1;
nodes = (
(196,603,l),
(225,748,l),
(151,748,l),
(88,603,l)
);
},
{
closed = 1;
nodes = (
(407,603,l),
(436,748,l),
(362,748,l),
(299,603,l)
);
}
);
};
layerId = m003;
shapes = (
{
alignment = -1;
angle = 180;
pos = (486,1270);
ref = quotedblright;
}
);
userData = {
assembly = "MPPEM[ ]	/* MeasurePixelPerEm */
PUSHB[ ]	/* 1 value pushed */
9 
LT[ ]	/* LessThan */
IF[ ]	/* If */
NPUSHB[ ]	/* 29 values pushed */
10 5 8 3 1 1 0 95 4 1 0 0 38 77 11 7 9 3 3 3 2 95 6 1 2 2 41 3 78 
ELSE[ ]	/* Else */
MPPEM[ ]	/* MeasurePixelPerEm */
PUSHB[ ]	/* 1 value pushed */
11 
LT[ ]	/* LessThan */
IF[ ]	/* If */
NPUSHB[ ]	/* 26 values pushed */
6 1 2 11 7 9 3 3 2 3 99 10 5 8 3 1 1 0 95 4 1 0 0 38 1 78 
ELSE[ ]	/* Else */
MPPEM[ ]	/* MeasurePixelPerEm */
PUSHB[ ]	/* 1 value pushed */
21 
LT[ ]	/* LessThan */
IF[ ]	/* If */
NPUSHB[ ]	/* 29 values pushed */
10 5 8 3 1 1 0 95 4 1 0 0 38 77 11 7 9 3 3 3 2 95 6 1 2 2 41 3 78 
ELSE[ ]	/* Else */
NPUSHB[ ]	/* 26 values pushed */
6 1 2 11 7 9 3 3 2 3 99 10 5 8 3 1 1 0 95 4 1 0 0 38 1 78 
EIF[ ]	/* EndIf */
EIF[ ]	/* EndIf */
EIF[ ]	/* EndIf */
NPUSHB[ ]	/* 34 values pushed */
12 12 8 8 4 4 0 0 12 15 12 15 14 13 8 11 8 11 10 9 4 7 4 7 6 5 0 3 0 3 17 12 8 23 
CALL[ ]	/* CallFunction */";
};
width = 486;
},
{
associatedMasterId = m002;
background = {
shapes = (
{
closed = 1;
nodes = (
(400,439,l),
(400,603,l),
(229,603,l),
(229,439,l)
);
},
{
closed = 1;
nodes = (
(189,439,l),
(189,603,l),
(18,603,l),
(18,439,l)
);
},
{
closed = 1;
nodes = (
(126,603,l),
(155,748,l),
(81,748,l),
(18,603,l)
);
},
{
closed = 1;
nodes = (
(337,603,l),
(366,748,l),
(292,748,l),
(229,603,l)
);
}
);
};
layerId = m004;
shapes = (
{
alignment = -1;
angle = 180;
pos = (416,1337);
ref = quotedblright;
}
);
userData = {
assembly = "MPPEM[ ]	/* MeasurePixelPerEm */
PUSHB[ ]	/* 1 value pushed */
9 
LT[ ]	/* LessThan */
IF[ ]	/* If */
NPUSHB[ ]	/* 29 values pushed */
10 5 8 3 1 1 0 95 4 1 0 0 38 77 11 7 9 3 3 3 2 95 6 1 2 2 41 3 78 
ELSE[ ]	/* Else */
MPPEM[ ]	/* MeasurePixelPerEm */
PUSHB[ ]	/* 1 value pushed */
11 
LT[ ]	/* LessThan */
IF[ ]	/* If */
NPUSHB[ ]	/* 26 values pushed */
6 1 2 11 7 9 3 3 2 3 99 10 5 8 3 1 1 0 95 4 1 0 0 38 1 78 
ELSE[ ]	/* Else */
MPPEM[ ]	/* MeasurePixelPerEm */
PUSHB[ ]	/* 1 value pushed */
21 
LT[ ]	/* LessThan */
IF[ ]	/* If */
NPUSHB[ ]	/* 29 values pushed */
10 5 8 3 1 1 0 95 4 1 0 0 38 77 11 7 9 3 3 3 2 95 6 1 2 2 41 3 78 
ELSE[ ]	/* Else */
NPUSHB[ ]	/* 26 values pushed */
6 1 2 11 7 9 3 3 2 3 99 10 5 8 3 1 1 0 95 4 1 0 0 38 1 78 
EIF[ ]	/* EndIf */
EIF[ ]	/* EndIf */
EIF[ ]	/* EndIf */
NPUSHB[ ]	/* 34 values pushed */
12 12 8 8 4 4 0 0 12 15 12 15 14 13 8 11 8 11 10 9 4 7 4 7 6 5 0 3 0 3 17 12 8 23 
CALL[ ]	/* CallFunction */";
};
width = 417;
}
);
metricLeft = H;
metricRight = H;
note = quotedblleft;
unicode = 8220;
userData = {
KernOnName = quotedblleft;
KernOnSpecialSpacing = {
L = quotes;
R = quotes;
};
};
},
{
glyphname = quotedblright;
kernLeft = KO_quotedblright;
kernRight = KO_quotedblright;
lastChange = "2024-08-16 04:03:22 +0000";
layers = (
{
layerId = m002;
shapes = (
{
alignment = -1;
pos = (213,0);
ref = quoteright;
},
{
alignment = -1;
ref = quoteright;
}
);
userData = {
assembly = "NPUSHB[ ]	/* 63 values pushed */
6 1 2 2 3 95 11 7 9 3 3 3 38 77 4 1 0 0 1 95 10 5 8 3 1 1 41 0 78 12 12 8 8 4 4 0 0 12 15 12 15 14 13 8 11 8 11 10 9 4 7 4 7 6 5 0 3 0 3 17 12 8 23 
CALL[ ]	/* CallFunction */";
};
width = 549;
},
{
associatedMasterId = m002;
background = {
shapes = (
{
closed = 1;
nodes = (
(428,584,l),
(428,748,l),
(257,748,l),
(257,584,l)
);
},
{
closed = 1;
nodes = (
(154,439,l),
(217,584,l),
(109,584,l),
(80,439,l)
);
},
{
closed = 1;
nodes = (
(217,584,l),
(217,748,l),
(46,748,l),
(46,584,l)
);
},
{
closed = 1;
nodes = (
(365,439,l),
(428,584,l),
(320,584,l),
(291,439,l)
);
}
);
};
layerId = m003;
shapes = (
{
alignment = -1;
pos = (163,0);
ref = quoteright;
},
{
alignment = -1;
ref = quoteright;
}
);
userData = {
assembly = "NPUSHB[ ]	/* 63 values pushed */
6 1 2 2 3 95 11 7 9 3 3 3 38 77 4 1 0 0 1 95 10 5 8 3 1 1 41 0 78 12 12 8 8 4 4 0 0 12 15 12 15 14 13 8 11 8 11 10 9 4 7 4 7 6 5 0 3 0 3 17 12 8 23 
CALL[ ]	/* CallFunction */";
};
width = 486;
},
{
associatedMasterId = m002;
background = {
shapes = (
{
closed = 1;
nodes = (
(428,584,l),
(428,748,l),
(257,748,l),
(257,584,l)
);
},
{
closed = 1;
nodes = (
(154,439,l),
(217,584,l),
(109,584,l),
(80,439,l)
);
},
{
closed = 1;
nodes = (
(217,584,l),
(217,748,l),
(46,748,l),
(46,584,l)
);
},
{
closed = 1;
nodes = (
(365,439,l),
(428,584,l),
(320,584,l),
(291,439,l)
);
}
);
};
layerId = m004;
shapes = (
{
alignment = -1;
pos = (113,0);
ref = quoteright;
},
{
alignment = -1;
ref = quoteright;
}
);
userData = {
assembly = "NPUSHB[ ]	/* 63 values pushed */
6 1 2 2 3 95 11 7 9 3 3 3 38 77 4 1 0 0 1 95 10 5 8 3 1 1 41 0 78 12 12 8 8 4 4 0 0 12 15 12 15 14 13 8 11 8 11 10 9 4 7 4 7 6 5 0 3 0 3 17 12 8 23 
CALL[ ]	/* CallFunction */";
};
width = 417;
}
);
metricLeft = H;
metricRight = H;
note = quotedblright;
unicode = 8221;
userData = {
KernOnSpecialSpacing = {
L = quotes;
R = quotes;
};
};
},
{
glyphname = quoteleft;
kernLeft = KO_quoteleft;
kernRight = KO_quoteleft;
lastChange = "2024-08-16 04:03:22 +0000";
layers = (
{
layerId = m002;
shapes = (
{
alignment = -1;
angle = 180;
pos = (336,1192);
ref = quoteright;
}
);
userData = {
assembly = "MPPEM[ ]	/* MeasurePixelPerEm */
PUSHB[ ]	/* 1 value pushed */
9 
LT[ ]	/* LessThan */
IF[ ]	/* If */
NPUSHB[ ]	/* 23 values pushed */
4 1 1 1 0 95 0 0 0 38 77 5 1 3 3 2 95 0 2 2 41 3 78 
ELSE[ ]	/* Else */
MPPEM[ ]	/* MeasurePixelPerEm */
PUSHB[ ]	/* 1 value pushed */
11 
LT[ ]	/* LessThan */
IF[ ]	/* If */
NPUSHB[ ]	/* 20 values pushed */
0 2 5 1 3 2 3 99 4 1 1 1 0 95 0 0 0 38 1 78 
ELSE[ ]	/* Else */
MPPEM[ ]	/* MeasurePixelPerEm */
PUSHB[ ]	/* 1 value pushed */
21 
LT[ ]	/* LessThan */
IF[ ]	/* If */
NPUSHB[ ]	/* 23 values pushed */
4 1 1 1 0 95 0 0 0 38 77 5 1 3 3 2 95 0 2 2 41 3 78 
ELSE[ ]	/* Else */
NPUSHB[ ]	/* 20 values pushed */
0 2 5 1 3 2 3 99 4 1 1 1 0 95 0 0 0 38 1 78 
EIF[ ]	/* EndIf */
EIF[ ]	/* EndIf */
EIF[ ]	/* EndIf */
NPUSHB[ ]	/* 18 values pushed */
4 4 0 0 4 7 4 7 6 5 0 3 0 3 17 6 8 23 
CALL[ ]	/* CallFunction */";
};
width = 336;
},
{
associatedMasterId = m002;
background = {
shapes = (
{
closed = 1;
nodes = (
(286,439,l),
(286,603,l),
(115,603,l),
(115,439,l)
);
},
{
closed = 1;
nodes = (
(223,603,l),
(252,748,l),
(178,748,l),
(115,603,l)
);
}
);
};
layerId = m003;
shapes = (
{
alignment = -1;
angle = 180;
pos = (323,1271);
ref = quoteright;
}
);
userData = {
assembly = "MPPEM[ ]	/* MeasurePixelPerEm */
PUSHB[ ]	/* 1 value pushed */
9 
LT[ ]	/* LessThan */
IF[ ]	/* If */
NPUSHB[ ]	/* 23 values pushed */
4 1 1 1 0 95 0 0 0 38 77 5 1 3 3 2 95 0 2 2 41 3 78 
ELSE[ ]	/* Else */
MPPEM[ ]	/* MeasurePixelPerEm */
PUSHB[ ]	/* 1 value pushed */
11 
LT[ ]	/* LessThan */
IF[ ]	/* If */
NPUSHB[ ]	/* 20 values pushed */
0 2 5 1 3 2 3 99 4 1 1 1 0 95 0 0 0 38 1 78 
ELSE[ ]	/* Else */
MPPEM[ ]	/* MeasurePixelPerEm */
PUSHB[ ]	/* 1 value pushed */
21 
LT[ ]	/* LessThan */
IF[ ]	/* If */
NPUSHB[ ]	/* 23 values pushed */
4 1 1 1 0 95 0 0 0 38 77 5 1 3 3 2 95 0 2 2 41 3 78 
ELSE[ ]	/* Else */
NPUSHB[ ]	/* 20 values pushed */
0 2 5 1 3 2 3 99 4 1 1 1 0 95 0 0 0 38 1 78 
EIF[ ]	/* EndIf */
EIF[ ]	/* EndIf */
EIF[ ]	/* EndIf */
NPUSHB[ ]	/* 18 values pushed */
4 4 0 0 4 7 4 7 6 5 0 3 0 3 17 6 8 23 
CALL[ ]	/* CallFunction */";
};
width = 323;
},
{
associatedMasterId = m002;
background = {
shapes = (
{
closed = 1;
nodes = (
(266,439,l),
(266,603,l),
(95,603,l),
(95,439,l)
);
},
{
closed = 1;
nodes = (
(203,603,l),
(232,748,l),
(158,748,l),
(95,603,l)
);
}
);
};
layerId = m004;
shapes = (
{
alignment = -1;
angle = 180;
pos = (303,1337);
ref = quoteright;
}
);
userData = {
assembly = "MPPEM[ ]	/* MeasurePixelPerEm */
PUSHB[ ]	/* 1 value pushed */
9 
LT[ ]	/* LessThan */
IF[ ]	/* If */
NPUSHB[ ]	/* 23 values pushed */
4 1 1 1 0 95 0 0 0 38 77 5 1 3 3 2 95 0 2 2 41 3 78 
ELSE[ ]	/* Else */
MPPEM[ ]	/* MeasurePixelPerEm */
PUSHB[ ]	/* 1 value pushed */
11 
LT[ ]	/* LessThan */
IF[ ]	/* If */
NPUSHB[ ]	/* 20 values pushed */
0 2 5 1 3 2 3 99 4 1 1 1 0 95 0 0 0 38 1 78 
ELSE[ ]	/* Else */
MPPEM[ ]	/* MeasurePixelPerEm */
PUSHB[ ]	/* 1 value pushed */
21 
LT[ ]	/* LessThan */
IF[ ]	/* If */
NPUSHB[ ]	/* 23 values pushed */
4 1 1 1 0 95 0 0 0 38 77 5 1 3 3 2 95 0 2 2 41 3 78 
ELSE[ ]	/* Else */
NPUSHB[ ]	/* 20 values pushed */
0 2 5 1 3 2 3 99 4 1 1 1 0 95 0 0 0 38 1 78 
EIF[ ]	/* EndIf */
EIF[ ]	/* EndIf */
EIF[ ]	/* EndIf */
NPUSHB[ ]	/* 18 values pushed */
4 4 0 0 4 7 4 7 6 5 0 3 0 3 17 6 8 23 
CALL[ ]	/* CallFunction */";
};
width = 304;
}
);
metricLeft = H;
metricRight = H;
note = quoteleft;
unicode = 8216;
userData = {
KernOnSpecialSpacing = {
L = quotes;
R = quotes;
};
};
},
{
glyphname = quoteright;
kernLeft = KO_quoteright;
kernRight = KO_quoteright;
lastChange = "2024-08-16 04:03:22 +0000";
layers = (
{
layerId = m002;
shapes = (
{
pos = (45,594);
ref = comma;
scale = (0.9216,0.9216);
}
);
userData = {
assembly = "NPUSHB[ ]	/* 41 values pushed */
0 2 2 3 95 5 1 3 3 38 77 0 0 0 1 95 4 1 1 1 41 0 78 4 4 0 0 4 7 4 7 6 5 0 3 0 3 17 6 8 23 
CALL[ ]	/* CallFunction */";
};
width = 336;
},
{
associatedMasterId = m002;
background = {
shapes = (
{
closed = 1;
nodes = (
(148,444,l),
(207,529,o),
(234,594,o),
(234,646,cs),
(234,708,o),
(195,748,o),
(141,748,cs),
(90,748,o),
(51,711,o),
(51,659,cs),
(51,608,o),
(85,573,o),
(135,569,c),
(68,444,l)
);
}
);
};
layerId = m003;
shapes = (
{
pos = (47,641);
ref = comma;
scale = (0.9216,0.9216);
}
);
userData = {
assembly = "NPUSHB[ ]	/* 41 values pushed */
0 2 2 3 95 5 1 3 3 38 77 0 0 0 1 95 4 1 1 1 41 0 78 4 4 0 0 4 7 4 7 6 5 0 3 0 3 17 6 8 23 
CALL[ ]	/* CallFunction */";
};
width = 323;
},
{
associatedMasterId = m002;
background = {
shapes = (
{
closed = 1;
nodes = (
(142,444,l),
(201,529,o),
(228,594,o),
(228,646,cs),
(228,708,o),
(189,748,o),
(135,748,cs),
(84,748,o),
(45,711,o),
(45,659,cs),
(45,608,o),
(79,573,o),
(129,569,c),
(62,444,l)
);
}
);
};
layerId = m004;
shapes = (
{
pos = (53,693);
ref = comma;
scale = (0.9216,0.9216);
}
);
userData = {
assembly = "NPUSHB[ ]	/* 41 values pushed */
0 2 2 3 95 5 1 3 3 38 77 0 0 0 1 95 4 1 1 1 41 0 78 4 4 0 0 4 7 4 7 6 5 0 3 0 3 17 6 8 23 
CALL[ ]	/* CallFunction */";
};
width = 304;
}
);
metricLeft = H;
metricRight = H;
note = quoteright;
unicode = 8217;
userData = {
KernOnName = quoteright;
KernOnSpecialSpacing = {
L = quotes;
R = quotes;
};
};
},
{
glyphname = guillemotright;
kernLeft = KO_guillemotright;
lastChange = "2024-08-16 04:03:22 +0000";
layers = (
{
layerId = m002;
shapes = (
{
alignment = 1;
pos = (690,0);
ref = guillemotleft;
scale = (-1,1);
}
);
userData = {
assembly = "NPUSHB[ ]	/* 48 values pushed */
10 7 4 1 4 1 0 1 76 2 1 0 1 1 0 87 2 1 0 0 1 95 5 3 4 3 1 0 1 79 6 6 0 0 6 11 6 11 9 8 0 5 0 5 18 6 8 23 
CALL[ ]	/* CallFunction */";
};
width = 690;
},
{
associatedMasterId = m002;
background = {
shapes = (
{
closed = 1;
nodes = (
(644,52,l),
(776,290,l),
(644,527,l),
(502,527,l),
(633,290,l),
(502,52,l)
);
},
{
closed = 1;
nodes = (
(410,52,l),
(542,290,l),
(410,527,l),
(268,527,l),
(399,290,l),
(268,52,l)
);
}
);
};
layerId = m003;
shapes = (
{
alignment = 1;
pos = (690,0);
ref = guillemotleft;
scale = (-1,1);
}
);
userData = {
assembly = "NPUSHB[ ]	/* 48 values pushed */
10 7 4 1 4 1 0 1 76 2 1 0 1 1 0 87 2 1 0 0 1 95 5 3 4 3 1 0 1 79 6 6 0 0 6 11 6 11 9 8 0 5 0 5 18 6 8 23 
CALL[ ]	/* CallFunction */";
};
width = 690;
},
{
associatedMasterId = m002;
background = {
shapes = (
{
closed = 1;
nodes = (
(644,52,l),
(776,290,l),
(644,527,l),
(502,527,l),
(633,290,l),
(502,52,l)
);
},
{
closed = 1;
nodes = (
(410,52,l),
(542,290,l),
(410,527,l),
(268,527,l),
(399,290,l),
(268,52,l)
);
}
);
};
layerId = m004;
shapes = (
{
alignment = 1;
pos = (690,0);
ref = guillemotleft;
scale = (-1,1);
}
);
userData = {
assembly = "NPUSHB[ ]	/* 48 values pushed */
10 7 4 1 4 1 0 1 76 2 1 0 1 1 0 87 2 1 0 0 1 95 5 3 4 3 1 0 1 79 6 6 0 0 6 11 6 11 9 8 0 5 0 5 18 6 8 23 
CALL[ ]	/* CallFunction */";
};
width = 690;
}
);
note = guillemotright;
unicode = 187;
userData = {
KernOnSpecialSpacing = {
L = quotes;
R = NoKerning;
};
};
},
{
glyphname = guilsinglright;
kernLeft = KO_guillemotright;
lastChange = "2024-08-16 04:03:22 +0000";
layers = (
{
layerId = m002;
shapes = (
{
closed = 1;
nodes = (
(220,46,l),
(382,298,l),
(220,553,l),
(74,553,l),
(225,299,l),
(74,46,l)
);
}
);
userData = {
assembly = "NPUSHB[ ]	/* 34 values pushed */
4 1 2 1 0 1 76 0 0 1 1 0 87 0 0 0 1 95 2 1 1 0 1 79 0 0 0 5 0 5 18 3 8 23 
CALL[ ]	/* CallFunction */";
};
width = 456;
},
{
associatedMasterId = m002;
layerId = m003;
shapes = (
{
closed = 1;
nodes = (
(172,46,l),
(334,298,l),
(172,553,l),
(97,553,l),
(248,299,l),
(97,46,l)
);
}
);
userData = {
assembly = "NPUSHB[ ]	/* 34 values pushed */
4 1 2 1 0 1 76 0 0 1 1 0 87 0 0 0 1 95 2 1 1 0 1 79 0 0 0 5 0 5 18 3 8 23 
CALL[ ]	/* CallFunction */";
};
width = 431;
},
{
associatedMasterId = m002;
layerId = m004;
shapes = (
{
closed = 1;
nodes = (
(134,46,l),
(296,298,l),
(134,553,l),
(103,553,l),
(254,299,l),
(103,46,l)
);
}
);
userData = {
assembly = "NPUSHB[ ]	/* 34 values pushed */
4 1 2 1 0 1 76 0 0 1 1 0 87 0 0 0 1 95 2 1 1 0 1 79 0 0 0 5 0 5 18 3 8 23 
CALL[ ]	/* CallFunction */";
};
width = 400;
}
);
metricLeft = H;
metricRight = H;
note = guilsinglright;
unicode = 8250;
userData = {
KernOnSpecialSpacing = {
L = quotes;
R = NoKerning;
};
};
},
{
glyphname = quotesingle;
kernLeft = KO_quotesingle;
kernRight = KO_quotesingle;
lastChange = "2024-08-16 04:03:22 +0000";
layers = (
{
layerId = m002;
shapes = (
{
closed = 1;
nodes = (
(193,459,l),
(208,750,l),
(56,750,l),
(70,459,l)
);
}
);
userData = {
assembly = "NPUSHB[ ]	/* 22 values pushed */
0 0 0 1 95 2 1 1 1 38 0 78 0 0 0 3 0 3 17 3 8 23 
CALL[ ]	/* CallFunction */";
};
width = 264;
},
{
associatedMasterId = m002;
layerId = m003;
shapes = (
{
closed = 1;
nodes = (
(169,457,l),
(184,748,l),
(92,748,l),
(106,457,l)
);
}
);
userData = {
assembly = "NPUSHB[ ]	/* 22 values pushed */
0 0 0 1 95 2 1 1 1 38 0 78 0 0 0 3 0 3 17 3 8 23 
CALL[ ]	/* CallFunction */";
};
width = 276;
},
{
associatedMasterId = m002;
layerId = m004;
shapes = (
{
closed = 1;
nodes = (
(149,456,l),
(164,747,l),
(110,747,l),
(124,456,l)
);
}
);
userData = {
assembly = "NPUSHB[ ]	/* 22 values pushed */
0 0 0 1 95 2 1 1 1 38 0 78 0 0 0 3 0 3 17 3 8 23 
CALL[ ]	/* CallFunction */";
};
width = 274;
}
);
note = quotesingle;
unicode = 39;
userData = {
KernOnName = quotesingle;
KernOnSpecialSpacing = {
L = quotes;
R = quotes;
};
};
},
{
glyphname = at;
lastChange = "2024-08-16 04:03:22 +0000";
layers = (
{
layerId = m002;
shapes = (
{
closed = 1;
nodes = (
(526,62,o),
(582,118,o),
(593,195,c),
(593,392,l),
(582,462,o),
(526,512,o),
(444,512,cs),
(335,512,o),
(258,419,o),
(258,291,cs),
(258,156,o),
(339,62,o),
(452,62,cs)
);
},
{
closed = 1;
nodes = (
(428,182,o),
(399,225,o),
(399,291,cs),
(399,358,o),
(428,399,o),
(478,399,cs),
(528,399,o),
(559,359,o),
(559,291,cs),
(559,224,o),
(528,182,o),
(478,182,cs)
);
},
{
closed = 1;
nodes = (
(502,-33,l),
(286,-33,o),
(168,91,o),
(168,292,cs),
(168,482,o),
(300,613,o),
(491,613,cs),
(682,613,o),
(814,495,o),
(814,322,cs),
(814,231,o),
(784,178,o),
(739,178,cs),
(705,178,o),
(688,210,o),
(688,261,cs),
(688,501,l),
(574,501,l),
(559,396,l),
(559,212,l),
(580,171,l),
(598,113,o),
(658,76,o),
(727,76,cs),
(839,76,o),
(923,176,o),
(923,321,cs),
(923,547,o),
(736,720,o),
(492,720,cs),
(247,720,o),
(60,535,o),
(60,293,cs),
(60,35,o),
(231,-140,o),
(502,-140,c)
);
},
{
closed = 1;
nodes = (
(502,-140,l),
(725,-140,l),
(725,-33,l),
(502,-33,l)
);
}
);
userData = {
assembly = "MPPEM[ ]	/* MeasurePixelPerEm */
PUSHB[ ]	/* 1 value pushed */
25 
LT[ ]	/* LessThan */
IF[ ]	/* If */
NPUSHB[ ]	/* 18 values pushed */
33 1 10 4 19 1 2 6 58 1 8 2 59 1 0 8 4 76 
ELSE[ ]	/* Else */
NPUSHB[ ]	/* 18 values pushed */
33 1 10 5 19 1 2 6 58 1 8 2 59 1 0 8 4 76 
EIF[ ]	/* EndIf */
MPPEM[ ]	/* MeasurePixelPerEm */
PUSHB[ ]	/* 1 value pushed */
25 
LT[ ]	/* LessThan */
IF[ ]	/* If */
NPUSHB[ ]	/* 45 values pushed */
0 1 0 7 4 1 7 105 5 1 4 0 10 6 4 10 105 12 9 2 6 3 1 2 8 6 2 105 0 8 0 0 8 89 0 8 8 0 97 11 1 0 8 0 81 
ELSE[ ]	/* Else */
NPUSHB[ ]	/* 52 values pushed */
0 5 4 10 4 5 10 128 0 1 0 7 4 1 7 105 0 4 0 10 6 4 10 105 12 9 2 6 3 1 2 8 6 2 105 0 8 0 0 8 89 0 8 8 0 97 11 1 0 8 0 81 
EIF[ ]	/* EndIf */
NPUSHB[ ]	/* 33 values pushed */
63 62 1 0 71 69 62 77 63 77 56 54 48 46 40 38 35 34 31 29 23 21 17 15 9 7 0 61 1 61 13 8 22 
CALL[ ]	/* CallFunction */";
};
width = 984;
},
{
associatedMasterId = m002;
background = {
shapes = (
{
closed = 1;
nodes = (
(541,-140,o),
(627,-113,o),
(688,-70,c),
(644,11,l),
(599,-22,o),
(528,-45,o),
(473,-45,cs),
(349,-45,o),
(241,18,o),
(182,121,cs),
(152,172,o),
(137,229,o),
(137,291,cs),
(137,414,o),
(200,521,o),
(303,581,cs),
(354,610,o),
(411,625,o),
(473,625,cs),
(665,625,o),
(807,496,o),
(807,322,cs),
(807,230,o),
(772,176,o),
(725,176,cs),
(684,176,o),
(664,206,o),
(664,259,cs),
(664,499,l),
(558,499,l),
(558,435,l),
(538,482,o),
(489,509,o),
(441,509,cs),
(340,509,o),
(261,424,o),
(261,293,cs),
(261,159,o),
(341,76,o),
(443,76,cs),
(507,76,o),
(563,110,o),
(576,162,c),
(589,111,o),
(645,76,o),
(713,76,cs),
(819,76,o),
(904,175,o),
(904,322,cs),
(904,470,o),
(825,598,o),
(693,668,cs),
(627,703,o),
(554,720,o),
(473,720,cs),
(313,720,o),
(175,638,o),
(99,507,cs),
(60,442,o),
(41,370,o),
(41,291,cs),
(41,131,o),
(123,-7,o),
(255,-83,cs),
(320,-121,o),
(393,-140,o),
(473,-140,cs)
);
},
{
closed = 1;
nodes = (
(413,177,o),
(377,222,o),
(377,293,cs),
(377,364,o),
(414,407,o),
(464,407,cs),
(514,407,o),
(549,362,o),
(549,293,cs),
(549,221,o),
(514,177,o),
(464,177,cs)
);
}
);
};
layerId = m003;
shapes = (
{
closed = 1;
nodes = (
(553,62,o),
(617,127,o),
(628,223,c),
(628,371,l),
(617,455,o),
(552,512,o),
(464,512,cs),
(353,512,o),
(276,420,o),
(276,290,cs),
(276,156,o),
(355,62,o),
(469,62,cs)
);
},
{
closed = 1;
nodes = (
(407,134,o),
(358,197,o),
(358,290,cs),
(358,383,o),
(407,445,o),
(481,445,cs),
(553,445,o),
(601,383,o),
(601,290,cs),
(601,198,o),
(553,134,o),
(481,134,cs)
);
},
{
closed = 1;
nodes = (
(506,-75,l),
(276,-75,o),
(130,70,o),
(130,288,cs),
(130,505,o),
(279,655,o),
(497,655,cs),
(712,655,o),
(860,519,o),
(860,321,cs),
(860,207,o),
(812,136,o),
(759,136,cs),
(703,136,o),
(678,176,o),
(678,254,cs),
(678,501,l),
(609,501,l),
(601,396,l),
(601,226,l),
(615,185,l),
(634,113,o),
(681,76,o),
(749,76,cs),
(839,76,o),
(927,172,o),
(927,323,cs),
(927,553,o),
(747,720,o),
(497,720,cs),
(245,720,o),
(64,539,o),
(64,287,cs),
(64,34,o),
(240,-140,o),
(506,-140,c)
);
},
{
closed = 1;
nodes = (
(506,-140,l),
(729,-140,l),
(729,-75,l),
(506,-75,l)
);
}
);
userData = {
assembly = "MPPEM[ ]	/* MeasurePixelPerEm */
PUSHB[ ]	/* 1 value pushed */
25 
LT[ ]	/* LessThan */
IF[ ]	/* If */
NPUSHB[ ]	/* 18 values pushed */
33 1 10 4 19 1 2 6 58 1 8 2 59 1 0 8 4 76 
ELSE[ ]	/* Else */
NPUSHB[ ]	/* 18 values pushed */
33 1 10 5 19 1 2 6 58 1 8 2 59 1 0 8 4 76 
EIF[ ]	/* EndIf */
MPPEM[ ]	/* MeasurePixelPerEm */
PUSHB[ ]	/* 1 value pushed */
25 
LT[ ]	/* LessThan */
IF[ ]	/* If */
NPUSHB[ ]	/* 45 values pushed */
0 1 0 7 4 1 7 105 5 1 4 0 10 6 4 10 105 12 9 2 6 3 1 2 8 6 2 105 0 8 0 0 8 89 0 8 8 0 97 11 1 0 8 0 81 
ELSE[ ]	/* Else */
NPUSHB[ ]	/* 52 values pushed */
0 5 4 10 4 5 10 128 0 1 0 7 4 1 7 105 0 4 0 10 6 4 10 105 12 9 2 6 3 1 2 8 6 2 105 0 8 0 0 8 89 0 8 8 0 97 11 1 0 8 0 81 
EIF[ ]	/* EndIf */
NPUSHB[ ]	/* 33 values pushed */
63 62 1 0 71 69 62 77 63 77 56 54 48 46 40 38 35 34 31 29 23 21 17 15 9 7 0 61 1 61 13 8 22 
CALL[ ]	/* CallFunction */";
};
width = 992;
},
{
associatedMasterId = m002;
background = {
shapes = (
{
closed = 1;
nodes = (
(541,-140,o),
(627,-113,o),
(688,-70,c),
(644,11,l),
(599,-22,o),
(528,-45,o),
(473,-45,cs),
(349,-45,o),
(241,18,o),
(182,121,cs),
(152,172,o),
(137,229,o),
(137,291,cs),
(137,414,o),
(200,521,o),
(303,581,cs),
(354,610,o),
(411,625,o),
(473,625,cs),
(665,625,o),
(807,496,o),
(807,322,cs),
(807,230,o),
(772,176,o),
(725,176,cs),
(684,176,o),
(664,206,o),
(664,259,cs),
(664,499,l),
(558,499,l),
(558,435,l),
(538,482,o),
(489,509,o),
(441,509,cs),
(340,509,o),
(261,424,o),
(261,293,cs),
(261,159,o),
(341,76,o),
(443,76,cs),
(507,76,o),
(563,110,o),
(576,162,c),
(589,111,o),
(645,76,o),
(713,76,cs),
(819,76,o),
(904,175,o),
(904,322,cs),
(904,470,o),
(825,598,o),
(693,668,cs),
(627,703,o),
(554,720,o),
(473,720,cs),
(313,720,o),
(175,638,o),
(99,507,cs),
(60,442,o),
(41,370,o),
(41,291,cs),
(41,131,o),
(123,-7,o),
(255,-83,cs),
(320,-121,o),
(393,-140,o),
(473,-140,cs)
);
},
{
closed = 1;
nodes = (
(413,177,o),
(377,222,o),
(377,293,cs),
(377,364,o),
(414,407,o),
(464,407,cs),
(514,407,o),
(549,362,o),
(549,293,cs),
(549,221,o),
(514,177,o),
(464,177,cs)
);
}
);
};
layerId = m004;
shapes = (
{
closed = 1;
nodes = (
(573,62,o),
(640,135,o),
(651,242,c),
(651,357,l),
(641,448,o),
(570,512,o),
(477,512,cs),
(364,512,o),
(287,421,o),
(287,290,cs),
(287,156,o),
(365,62,o),
(478,62,cs)
);
},
{
closed = 1;
nodes = (
(392,101,o),
(330,179,o),
(330,290,cs),
(330,399,o),
(392,475,o),
(482,475,cs),
(569,475,o),
(629,400,o),
(629,290,cs),
(629,178,o),
(569,101,o),
(482,101,cs)
);
},
{
closed = 1;
nodes = (
(508,-102,l),
(269,-102,o),
(105,56,o),
(105,286,cs),
(105,520,o),
(266,682,o),
(501,682,cs),
(732,682,o),
(889,534,o),
(889,321,cs),
(889,188,o),
(828,109,o),
(772,109,cs),
(702,109,o),
(671,151,o),
(671,249,cs),
(671,501,l),
(632,501,l),
(629,396,l),
(629,235,l),
(638,194,l),
(658,113,o),
(696,76,o),
(763,76,cs),
(839,76,o),
(929,170,o),
(929,325,cs),
(929,557,o),
(754,720,o),
(499,720,cs),
(242,720,o),
(66,541,o),
(66,285,cs),
(66,34,o),
(246,-140,o),
(508,-140,c)
);
},
{
closed = 1;
nodes = (
(508,-140,l),
(731,-140,l),
(731,-102,l),
(508,-102,l)
);
}
);
userData = {
assembly = "MPPEM[ ]	/* MeasurePixelPerEm */
PUSHB[ ]	/* 1 value pushed */
25 
LT[ ]	/* LessThan */
IF[ ]	/* If */
NPUSHB[ ]	/* 18 values pushed */
33 1 10 4 19 1 2 6 58 1 8 2 59 1 0 8 4 76 
ELSE[ ]	/* Else */
NPUSHB[ ]	/* 18 values pushed */
33 1 10 5 19 1 2 6 58 1 8 2 59 1 0 8 4 76 
EIF[ ]	/* EndIf */
MPPEM[ ]	/* MeasurePixelPerEm */
PUSHB[ ]	/* 1 value pushed */
25 
LT[ ]	/* LessThan */
IF[ ]	/* If */
NPUSHB[ ]	/* 45 values pushed */
0 1 0 7 4 1 7 105 5 1 4 0 10 6 4 10 105 12 9 2 6 3 1 2 8 6 2 105 0 8 0 0 8 89 0 8 8 0 97 11 1 0 8 0 81 
ELSE[ ]	/* Else */
NPUSHB[ ]	/* 52 values pushed */
0 5 4 10 4 5 10 128 0 1 0 7 4 1 7 105 0 4 0 10 6 4 10 105 12 9 2 6 3 1 2 8 6 2 105 0 8 0 0 8 89 0 8 8 0 97 11 1 0 8 0 81 
EIF[ ]	/* EndIf */
NPUSHB[ ]	/* 33 values pushed */
63 62 1 0 71 69 62 77 63 77 56 54 48 46 40 38 35 34 31 29 23 21 17 15 9 7 0 61 1 61 13 8 22 
CALL[ ]	/* CallFunction */";
};
width = 996;
}
);
note = at;
unicode = 64;
userData = {
KernOnSpecialSpacing = {
L = NoKerning;
R = NoKerning;
};
};
},
{
glyphname = ampersand;
kernLeft = KO_ampersand;
kernRight = KO_ampersand;
lastChange = "2024-08-16 04:03:22 +0000";
layers = (
{
layerId = m002;
shapes = (
{
closed = 1;
nodes = (
(368,-15,o),
(446,12,o),
(513,66,c),
(574,0,l),
(769,0,l),
(611,167,l),
(660,240,o),
(688,327,o),
(688,426,c),
(558,426,l),
(554,347,o),
(544,301,o),
(523,260,c),
(335,458,ls),
(298,497,o),
(283,529,o),
(283,567,cs),
(283,611,o),
(311,649,o),
(358,649,cs),
(392,649,o),
(416,631,o),
(430,591,c),
(571,591,l),
(563,686,o),
(485,765,o),
(358,765,cs),
(227,765,o),
(137,681,o),
(137,566,cs),
(137,521,o),
(151,472,o),
(185,420,c),
(96,378,o),
(39,299,o),
(39,213,cs),
(39,71,o),
(159,-15,o),
(279,-15,cs)
);
},
{
closed = 1;
nodes = (
(243,106,o),
(198,152,o),
(198,225,cs),
(198,269,o),
(214,306,o),
(255,338,c),
(432,151,l),
(396,120,o),
(356,106,o),
(307,106,cs)
);
}
);
userData = {
assembly = "MPPEM[ ]	/* MeasurePixelPerEm */
PUSHB[ ]	/* 1 value pushed */
20 
LT[ ]	/* LessThan */
IF[ ]	/* If */
NPUSHB[ ]	/* 34 values pushed */
0 4 4 0 97 6 1 0 0 46 77 0 2 2 3 97 5 1 3 3 47 77 0 1 1 3 97 5 1 3 3 47 3 78 
ELSE[ ]	/* Else */
NPUSHB[ ]	/* 32 values pushed */
0 4 4 0 97 6 1 0 0 46 77 0 2 2 5 95 0 5 5 39 77 0 1 1 3 97 0 3 3 47 3 78 
EIF[ ]	/* EndIf */
NPUSHB[ ]	/* 19 values pushed */
1 0 50 49 40 38 25 23 20 19 16 14 0 58 1 58 7 8 22 
CALL[ ]	/* CallFunction */";
};
width = 806;
},
{
associatedMasterId = m002;
layerId = m003;
shapes = (
{
closed = 1;
nodes = (
(383,-15,o),
(472,25,o),
(541,103,c),
(644,0,l),
(748,0,l),
(590,160,l),
(636,228,o),
(660,306,o),
(661,382,c),
(592,382,l),
(587,312,o),
(571,257,o),
(542,210,c),
(320,433,ls),
(269,484,o),
(240,532,o),
(240,583,cs),
(240,651,o),
(291,699,o),
(361,699,cs),
(425,699,o),
(467,652,o),
(473,606,c),
(550,606,l),
(545,696,o),
(460,765,o),
(361,765,cs),
(243,765,o),
(162,688,o),
(162,582,cs),
(162,524,o),
(185,474,o),
(228,421,c),
(127,379,o),
(59,296,o),
(59,200,cs),
(59,65,o),
(170,-15,o),
(283,-15,cs)
);
},
{
closed = 1;
nodes = (
(216,53,o),
(143,110,o),
(143,206,cs),
(143,276,o),
(185,340,o),
(267,378,c),
(496,149,l),
(445,86,o),
(378,53,o),
(297,53,cs)
);
}
);
userData = {
assembly = "MPPEM[ ]	/* MeasurePixelPerEm */
PUSHB[ ]	/* 1 value pushed */
20 
LT[ ]	/* LessThan */
IF[ ]	/* If */
NPUSHB[ ]	/* 34 values pushed */
0 4 4 0 97 6 1 0 0 46 77 0 2 2 3 97 5 1 3 3 47 77 0 1 1 3 97 5 1 3 3 47 3 78 
ELSE[ ]	/* Else */
NPUSHB[ ]	/* 32 values pushed */
0 4 4 0 97 6 1 0 0 46 77 0 2 2 5 95 0 5 5 39 77 0 1 1 3 97 0 3 3 47 3 78 
EIF[ ]	/* EndIf */
NPUSHB[ ]	/* 19 values pushed */
1 0 50 49 40 38 25 23 20 19 16 14 0 58 1 58 7 8 22 
CALL[ ]	/* CallFunction */";
};
width = 763;
},
{
associatedMasterId = m002;
layerId = m004;
shapes = (
{
closed = 1;
nodes = (
(398,-15,o),
(487,38,o),
(554,124,c),
(678,0,l),
(738,0,l),
(579,156,l),
(626,222,o),
(648,294,o),
(649,359,c),
(609,359,l),
(603,294,o),
(584,236,o),
(552,185,c),
(312,419,ls),
(245,484,o),
(219,539,o),
(219,591,cs),
(219,672,o),
(280,727,o),
(363,727,cs),
(441,727,o),
(493,665,o),
(495,614,c),
(539,614,l),
(537,698,o),
(452,765,o),
(363,765,cs),
(253,765,o),
(175,691,o),
(175,590,cs),
(175,527,o),
(204,475,o),
(252,421,c),
(146,381,o),
(69,296,o),
(69,194,cs),
(69,65,o),
(172,-15,o),
(286,-15,cs)
);
},
{
closed = 1;
nodes = (
(198,25,o),
(116,91,o),
(116,196,cs),
(116,283,o),
(178,359,o),
(274,395,c),
(526,150,l),
(469,71,o),
(391,25,o),
(293,25,cs)
);
}
);
userData = {
assembly = "MPPEM[ ]	/* MeasurePixelPerEm */
PUSHB[ ]	/* 1 value pushed */
20 
LT[ ]	/* LessThan */
IF[ ]	/* If */
NPUSHB[ ]	/* 34 values pushed */
0 4 4 0 97 6 1 0 0 46 77 0 2 2 3 97 5 1 3 3 47 77 0 1 1 3 97 5 1 3 3 47 3 78 
ELSE[ ]	/* Else */
NPUSHB[ ]	/* 32 values pushed */
0 4 4 0 97 6 1 0 0 46 77 0 2 2 5 95 0 5 5 39 77 0 1 1 3 97 0 3 3 47 3 78 
EIF[ ]	/* EndIf */
NPUSHB[ ]	/* 19 values pushed */
1 0 50 49 40 38 25 23 20 19 16 14 0 58 1 58 7 8 22 
CALL[ ]	/* CallFunction */";
};
width = 798;
}
);
note = ampersand;
unicode = 38;
userData = {
KernOnSpecialSpacing = {
L = symbols;
R = symbols;
};
};
},
{
glyphname = paragraph;
lastChange = "2024-08-16 04:03:22 +0000";
layers = (
{
layerId = m002;
shapes = (
{
closed = 1;
nodes = (
(448,-180,l),
(448,750,l),
(280,750,ls),
(132,750,o),
(30,651,o),
(30,506,cs),
(30,361,o),
(132,262,o),
(280,262,cs),
(314,262,l),
(314,-180,l)
);
},
{
closed = 1;
nodes = (
(600,-180,l),
(600,750,l),
(518,750,l),
(518,-180,l)
);
}
);
userData = {
assembly = "NPUSHB[ ]	/* 32 values pushed */
0 0 0 1 95 3 1 1 1 38 77 5 4 2 2 2 43 2 78 12 12 12 15 12 15 18 17 38 16 6 8 26 
CALL[ ]	/* CallFunction */";
};
width = 733;
},
{
associatedMasterId = m002;
layerId = m003;
shapes = (
{
closed = 1;
nodes = (
(426,-179,l),
(426,749,l),
(335,749,ls),
(195,749,o),
(104,665,o),
(104,538,cs),
(104,411,o),
(195,325,o),
(332,325,cs),
(351,325,l),
(351,-179,l)
);
},
{
closed = 1;
nodes = (
(593,-179,l),
(593,749,l),
(538,749,l),
(538,-179,l)
);
}
);
userData = {
assembly = "NPUSHB[ ]	/* 32 values pushed */
0 0 0 1 95 3 1 1 1 38 77 5 4 2 2 2 43 2 78 12 12 12 15 12 15 18 17 38 16 6 8 26 
CALL[ ]	/* CallFunction */";
};
width = 743;
},
{
associatedMasterId = m002;
layerId = m004;
shapes = (
{
closed = 1;
nodes = (
(411,-178,l),
(411,748,l),
(366,748,ls),
(231,748,o),
(146,674,o),
(146,557,cs),
(146,441,o),
(229,363,o),
(361,363,cs),
(371,363,l),
(371,-178,l)
);
},
{
closed = 1;
nodes = (
(587,-178,l),
(587,748,l),
(547,748,l),
(547,-178,l)
);
}
);
userData = {
assembly = "NPUSHB[ ]	/* 32 values pushed */
0 0 0 1 95 3 1 1 1 38 77 5 4 2 2 2 43 2 78 12 12 12 15 12 15 18 17 38 16 6 8 26 
CALL[ ]	/* CallFunction */";
};
width = 743;
}
);
note = paragraph;
unicode = 182;
userData = {
KernOnSpecialSpacing = {
L = NoKerning;
R = NoKerning;
};
};
},
{
glyphname = copyright;
kernRight = KO_copyright;
lastChange = "2024-08-16 04:03:22 +0000";
layers = (
{
layerId = m002;
shapes = (
{
closed = 1;
nodes = (
(614,8,o),
(759,157,o),
(759,374,cs),
(759,591,o),
(614,740,o),
(404,740,cs),
(192,740,o),
(46,591,o),
(46,374,cs),
(46,157,o),
(192,8,o),
(404,8,cs)
);
},
{
closed = 1;
nodes = (
(227,68,o),
(106,193,o),
(106,374,cs),
(106,555,o),
(227,680,o),
(404,680,cs),
(579,680,o),
(699,555,o),
(699,374,cs),
(699,193,o),
(579,68,o),
(404,68,cs)
);
},
{
pos = (167,159);
ref = c;
scale = (0.8106,0.8106);
}
);
userData = {
assembly = "PUSHB[ ]	/* 2 values pushed */
6 100 
WCVTP[ ]	/* WriteCVTInPixels */
NPUSHB[ ]	/* 84 values pushed */
52 51 37 36 4 6 5 1 76 0 1 0 3 4 1 3 105 10 1 4 0 5 6 4 5 105 0 6 0 7 2 6 7 105 9 1 2 0 0 2 89 9 1 2 2 0 97 8 1 0 2 0 81 33 32 17 16 1 0 57 55 49 47 41 39 32 63 33 63 25 23 16 31 17 31 9 7 0 15 1 15 11 8 22 
CALL[ ]	/* CallFunction */
PUSHB[ ]	/* 2 values pushed */
6 0 
WCVTP[ ]	/* WriteCVTInPixels */";
};
width = 805;
},
{
associatedMasterId = m002;
layerId = m003;
shapes = (
{
closed = 1;
nodes = (
(632,8,o),
(777,157,o),
(777,374,cs),
(777,591,o),
(632,740,o),
(422,740,cs),
(210,740,o),
(64,591,o),
(64,374,cs),
(64,157,o),
(210,8,o),
(422,8,cs)
);
},
{
closed = 1;
nodes = (
(234,50,o),
(106,182,o),
(106,374,cs),
(106,566,o),
(234,698,o),
(422,698,cs),
(608,698,o),
(735,566,o),
(735,374,cs),
(735,182,o),
(608,50,o),
(422,50,cs)
);
},
{
pos = (190,159);
ref = c;
scale = (0.8106,0.8106);
}
);
userData = {
assembly = "PUSHB[ ]	/* 2 values pushed */
6 100 
WCVTP[ ]	/* WriteCVTInPixels */
NPUSHB[ ]	/* 84 values pushed */
52 51 37 36 4 6 5 1 76 0 1 0 3 4 1 3 105 10 1 4 0 5 6 4 5 105 0 6 0 7 2 6 7 105 9 1 2 0 0 2 89 9 1 2 2 0 97 8 1 0 2 0 81 33 32 17 16 1 0 57 55 49 47 41 39 32 63 33 63 25 23 16 31 17 31 9 7 0 15 1 15 11 8 22 
CALL[ ]	/* CallFunction */
PUSHB[ ]	/* 2 values pushed */
6 0 
WCVTP[ ]	/* WriteCVTInPixels */";
};
width = 841;
},
{
associatedMasterId = m002;
layerId = m004;
shapes = (
{
closed = 1;
nodes = (
(637,8,o),
(782,157,o),
(782,374,cs),
(782,591,o),
(637,740,o),
(427,740,cs),
(215,740,o),
(69,591,o),
(69,374,cs),
(69,157,o),
(215,8,o),
(427,8,cs)
);
},
{
closed = 1;
nodes = (
(233,39,o),
(100,176,o),
(100,374,cs),
(100,572,o),
(233,709,o),
(427,709,cs),
(619,709,o),
(751,572,o),
(751,374,cs),
(751,176,o),
(619,39,o),
(427,39,cs)
);
},
{
pos = (195,159);
ref = c;
scale = (0.8106,0.8106);
}
);
userData = {
assembly = "PUSHB[ ]	/* 2 values pushed */
6 100 
WCVTP[ ]	/* WriteCVTInPixels */
NPUSHB[ ]	/* 84 values pushed */
52 51 37 36 4 6 5 1 76 0 1 0 3 4 1 3 105 10 1 4 0 5 6 4 5 105 0 6 0 7 2 6 7 105 9 1 2 0 0 2 89 9 1 2 2 0 97 8 1 0 2 0 81 33 32 17 16 1 0 57 55 49 47 41 39 32 63 33 63 25 23 16 31 17 31 9 7 0 15 1 15 11 8 22 
CALL[ ]	/* CallFunction */
PUSHB[ ]	/* 2 values pushed */
6 0 
WCVTP[ ]	/* WriteCVTInPixels */";
};
width = 851;
}
);
metricLeft = O;
metricRight = O;
note = copyright;
unicode = 169;
userData = {
KernOnSpecialSpacing = {
R = symbols;
};
};
},
{
glyphname = registered;
lastChange = "2024-08-16 04:03:22 +0000";
layers = (
{
layerId = m002;
shapes = (
{
closed = 1;
nodes = (
(409,297,o),
(495,391,o),
(495,528,cs),
(495,666,o),
(409,760,o),
(284,760,cs),
(158,760,o),
(71,666,o),
(71,528,cs),
(71,391,o),
(158,297,o),
(284,297,cs)
);
},
{
closed = 1;
nodes = (
(180,334,o),
(108,413,o),
(108,528,cs),
(108,644,o),
(180,723,o),
(284,723,cs),
(387,723,o),
(458,644,o),
(458,528,cs),
(458,413,o),
(387,334,o),
(284,334,cs)
);
},
{
pos = (164,400);
ref = R;
scale = (0.35,0.35);
}
);
userData = {
assembly = "PUSHB[ ]	/* 2 values pushed */
6 100 
WCVTP[ ]	/* WriteCVTInPixels */
NPUSHB[ ]	/* 94 values pushed */
32 1 5 8 1 76 6 1 4 5 2 5 4 2 128 0 1 0 3 7 1 3 105 0 7 0 9 8 7 9 105 12 1 8 0 5 4 8 5 105 11 1 2 0 0 2 89 11 1 2 2 0 97 10 1 0 2 0 81 54 53 17 16 1 0 60 58 53 61 54 61 47 45 44 43 42 40 37 36 25 23 16 31 17 31 9 7 0 15 1 15 13 8 22 
CALL[ ]	/* CallFunction */
PUSHB[ ]	/* 2 values pushed */
6 0 
WCVTP[ ]	/* WriteCVTInPixels */";
};
width = 527;
},
{
associatedMasterId = m002;
background = {
shapes = (
{
closed = 1;
nodes = (
(384,297,o),
(495,394,o),
(495,528,cs),
(495,663,o),
(384,760,o),
(264,760,cs),
(135,760,o),
(31,656,o),
(31,528,cs),
(31,401,o),
(135,297,o),
(264,297,cs)
);
},
{
closed = 1;
nodes = (
(156,334,o),
(68,421,o),
(68,528,cs),
(68,635,o),
(156,723,o),
(264,723,cs),
(372,723,o),
(458,635,o),
(458,528,cs),
(458,421,o),
(372,334,o),
(264,334,cs)
);
},
{
closed = 1;
nodes = (
(228,395,l),
(228,493,l),
(272,493,ls),
(292,493,o),
(306,476,o),
(306,456,cs),
(306,395,l),
(373,395,l),
(373,473,ls),
(373,497,o),
(359,512,o),
(350,520,c),
(358,530,o),
(354,523,o),
(363,537,cs),
(370,549,o),
(374,563,o),
(374,579,cs),
(374,632,o),
(334,665,o),
(270,665,cs),
(161,665,l),
(161,395,l)
);
},
{
closed = 1;
nodes = (
(228,605,l),
(268,605,ls),
(292,605,o),
(305,596,o),
(305,579,cs),
(305,562,o),
(292,552,o),
(268,552,cs),
(228,552,l)
);
}
);
};
layerId = m003;
shapes = (
{
closed = 1;
nodes = (
(414,297,o),
(500,391,o),
(500,528,cs),
(500,666,o),
(414,760,o),
(289,760,cs),
(163,760,o),
(76,666,o),
(76,528,cs),
(76,391,o),
(163,297,o),
(289,297,cs)
);
},
{
closed = 1;
nodes = (
(182,331,o),
(109,411,o),
(109,528,cs),
(109,646,o),
(182,726,o),
(289,726,cs),
(395,726,o),
(467,646,o),
(467,528,cs),
(467,411,o),
(395,331,o),
(289,331,cs)
);
},
{
pos = (169,400);
ref = R;
scale = (0.35,0.35);
}
);
userData = {
assembly = "PUSHB[ ]	/* 2 values pushed */
6 100 
WCVTP[ ]	/* WriteCVTInPixels */
NPUSHB[ ]	/* 94 values pushed */
32 1 5 8 1 76 6 1 4 5 2 5 4 2 128 0 1 0 3 7 1 3 105 0 7 0 9 8 7 9 105 12 1 8 0 5 4 8 5 105 11 1 2 0 0 2 89 11 1 2 2 0 97 10 1 0 2 0 81 54 53 17 16 1 0 60 58 53 61 54 61 47 45 44 43 42 40 37 36 25 23 16 31 17 31 9 7 0 15 1 15 13 8 22 
CALL[ ]	/* CallFunction */
PUSHB[ ]	/* 2 values pushed */
6 0 
WCVTP[ ]	/* WriteCVTInPixels */";
};
width = 527;
},
{
annotations = (
{
pos = (1205.209,-5.561);
type = Text;
}
);
associatedMasterId = m002;
background = {
shapes = (
{
closed = 1;
nodes = (
(384,297,o),
(495,394,o),
(495,528,cs),
(495,663,o),
(384,760,o),
(264,760,cs),
(135,760,o),
(31,656,o),
(31,528,cs),
(31,401,o),
(135,297,o),
(264,297,cs)
);
},
{
closed = 1;
nodes = (
(156,334,o),
(68,421,o),
(68,528,cs),
(68,635,o),
(156,723,o),
(264,723,cs),
(372,723,o),
(458,635,o),
(458,528,cs),
(458,421,o),
(372,334,o),
(264,334,cs)
);
},
{
closed = 1;
nodes = (
(228,395,l),
(228,493,l),
(272,493,ls),
(292,493,o),
(306,476,o),
(306,456,cs),
(306,395,l),
(373,395,l),
(373,473,ls),
(373,497,o),
(359,512,o),
(350,520,c),
(358,530,o),
(354,523,o),
(363,537,cs),
(370,549,o),
(374,563,o),
(374,579,cs),
(374,632,o),
(334,665,o),
(270,665,cs),
(161,665,l),
(161,395,l)
);
},
{
closed = 1;
nodes = (
(228,605,l),
(268,605,ls),
(292,605,o),
(305,596,o),
(305,579,cs),
(305,562,o),
(292,552,o),
(268,552,cs),
(228,552,l)
);
}
);
};
layerId = m004;
shapes = (
{
closed = 1;
nodes = (
(414,297,o),
(500,391,o),
(500,528,cs),
(500,666,o),
(414,760,o),
(289,760,cs),
(163,760,o),
(76,666,o),
(76,528,cs),
(76,391,o),
(163,297,o),
(289,297,cs)
);
},
{
closed = 1;
nodes = (
(174,315,o),
(94,402,o),
(94,528,cs),
(94,655,o),
(174,742,o),
(289,742,cs),
(403,742,o),
(482,655,o),
(482,528,cs),
(482,402,o),
(403,315,o),
(289,315,cs)
);
},
{
pos = (172,400);
ref = R;
scale = (0.35,0.35);
}
);
userData = {
assembly = "PUSHB[ ]	/* 2 values pushed */
6 100 
WCVTP[ ]	/* WriteCVTInPixels */
NPUSHB[ ]	/* 94 values pushed */
32 1 5 8 1 76 6 1 4 5 2 5 4 2 128 0 1 0 3 7 1 3 105 0 7 0 9 8 7 9 105 12 1 8 0 5 4 8 5 105 11 1 2 0 0 2 89 11 1 2 2 0 97 10 1 0 2 0 81 54 53 17 16 1 0 60 58 53 61 54 61 47 45 44 43 42 40 37 36 25 23 16 31 17 31 9 7 0 15 1 15 13 8 22 
CALL[ ]	/* CallFunction */
PUSHB[ ]	/* 2 values pushed */
6 0 
WCVTP[ ]	/* WriteCVTInPixels */";
};
width = 527;
}
);
note = registered;
unicode = 174;
userData = {
KernOnSpecialSpacing = {
L = NoKerning;
R = NoKerning;
};
};
},
{
glyphname = degree;
kernRight = KO_degree;
lastChange = "2024-08-16 04:03:22 +0000";
layers = (
{
layerId = m002;
shapes = (
{
closed = 1;
nodes = (
(365,355,o),
(451,441,o),
(451,556,cs),
(451,671,o),
(365,758,o),
(251,758,cs),
(137,758,o),
(51,671,o),
(51,556,cs),
(51,441,o),
(137,355,o),
(251,355,cs)
);
},
{
closed = 1;
nodes = (
(206,464,o),
(175,501,o),
(175,556,cs),
(175,611,o),
(206,648,o),
(251,648,cs),
(296,648,o),
(327,611,o),
(327,556,cs),
(327,501,o),
(296,464,o),
(251,464,cs)
);
}
);
userData = {
assembly = "PUSHB[ ]	/* 2 values pushed */
6 100 
WCVTP[ ]	/* WriteCVTInPixels */
NPUSHB[ ]	/* 46 values pushed */
0 1 0 3 2 1 3 105 5 1 2 0 0 2 89 5 1 2 2 0 97 4 1 0 2 0 81 17 16 1 0 23 21 16 27 17 27 9 7 0 15 1 15 6 8 22 
CALL[ ]	/* CallFunction */
PUSHB[ ]	/* 2 values pushed */
6 0 
WCVTP[ ]	/* WriteCVTInPixels */";
};
width = 502;
},
{
associatedMasterId = m002;
background = {
shapes = (
{
closed = 1;
nodes = (
(355,355,o),
(431,439,o),
(431,556,cs),
(431,677,o),
(352,758,o),
(231,758,cs),
(115,758,o),
(31,680,o),
(31,556,cs),
(31,435,o),
(111,355,o),
(231,355,cs)
);
},
{
closed = 1;
nodes = (
(186,464,o),
(155,500,o),
(155,556,cs),
(155,611,o),
(186,648,o),
(231,648,cs),
(278,648,o),
(307,611,o),
(307,556,cs),
(307,500,o),
(278,464,o),
(231,464,cs)
);
}
);
};
layerId = m003;
shapes = (
{
closed = 1;
nodes = (
(373,355,o),
(456,439,o),
(456,556,cs),
(456,674,o),
(373,758,o),
(256,758,cs),
(139,758,o),
(56,674,o),
(56,556,cs),
(56,439,o),
(139,355,o),
(256,355,cs)
);
},
{
closed = 1;
nodes = (
(173,411,o),
(117,470,o),
(117,556,cs),
(117,643,o),
(173,702,o),
(256,702,cs),
(339,702,o),
(395,643,o),
(395,556,cs),
(395,470,o),
(339,411,o),
(256,411,cs)
);
}
);
userData = {
assembly = "PUSHB[ ]	/* 2 values pushed */
6 100 
WCVTP[ ]	/* WriteCVTInPixels */
NPUSHB[ ]	/* 46 values pushed */
0 1 0 3 2 1 3 105 5 1 2 0 0 2 89 5 1 2 2 0 97 4 1 0 2 0 81 17 16 1 0 23 21 16 27 17 27 9 7 0 15 1 15 6 8 22 
CALL[ ]	/* CallFunction */
PUSHB[ ]	/* 2 values pushed */
6 0 
WCVTP[ ]	/* WriteCVTInPixels */";
};
width = 512;
},
{
associatedMasterId = m002;
background = {
shapes = (
{
closed = 1;
nodes = (
(355,355,o),
(431,439,o),
(431,556,cs),
(431,677,o),
(352,758,o),
(231,758,cs),
(115,758,o),
(31,680,o),
(31,556,cs),
(31,435,o),
(111,355,o),
(231,355,cs)
);
},
{
closed = 1;
nodes = (
(186,464,o),
(155,500,o),
(155,556,cs),
(155,611,o),
(186,648,o),
(231,648,cs),
(278,648,o),
(307,611,o),
(307,556,cs),
(307,500,o),
(278,464,o),
(231,464,cs)
);
}
);
};
layerId = m004;
shapes = (
{
closed = 1;
nodes = (
(375,355,o),
(456,437,o),
(456,556,cs),
(456,676,o),
(375,758,o),
(256,758,cs),
(137,758,o),
(56,676,o),
(56,556,cs),
(56,437,o),
(137,355,o),
(256,355,cs)
);
},
{
closed = 1;
nodes = (
(150,377,o),
(78,450,o),
(78,556,cs),
(78,663,o),
(150,736,o),
(256,736,cs),
(362,736,o),
(434,663,o),
(434,556,cs),
(434,450,o),
(362,377,o),
(256,377,cs)
);
}
);
userData = {
assembly = "PUSHB[ ]	/* 2 values pushed */
6 100 
WCVTP[ ]	/* WriteCVTInPixels */
NPUSHB[ ]	/* 46 values pushed */
0 1 0 3 2 1 3 105 5 1 2 0 0 2 89 5 1 2 2 0 97 4 1 0 2 0 81 17 16 1 0 23 21 16 27 17 27 9 7 0 15 1 15 6 8 22 
CALL[ ]	/* CallFunction */
PUSHB[ ]	/* 2 values pushed */
6 0 
WCVTP[ ]	/* WriteCVTInPixels */";
};
width = 512;
}
);
note = degree;
unicode = 176;
userData = {
KernOnName = degree;
KernOnSpecialSpacing = {
L = NoKerning;
R = superiors;
};
};
},
{
glyphname = bar;
lastChange = "2024-08-16 04:03:22 +0000";
layers = (
{
layerId = m002;
shapes = (
{
closed = 1;
nodes = (
(192,-178,l),
(192,810,l),
(74,810,l),
(74,-178,l)
);
}
);
userData = {
assembly = "NPUSHB[ ]	/* 22 values pushed */
2 1 1 1 0 95 0 0 0 43 0 78 0 0 0 3 0 3 17 3 8 23 
CALL[ ]	/* CallFunction */";
};
width = 266;
},
{
associatedMasterId = m002;
layerId = m003;
shapes = (
{
closed = 1;
nodes = (
(163,-178,l),
(163,810,l),
(97,810,l),
(97,-178,l)
);
}
);
userData = {
assembly = "NPUSHB[ ]	/* 22 values pushed */
2 1 1 1 0 95 0 0 0 43 0 78 0 0 0 3 0 3 17 3 8 23 
CALL[ ]	/* CallFunction */";
};
width = 260;
},
{
associatedMasterId = m002;
layerId = m004;
shapes = (
{
closed = 1;
nodes = (
(136,-178,l),
(136,810,l),
(103,810,l),
(103,-178,l)
);
}
);
userData = {
assembly = "NPUSHB[ ]	/* 22 values pushed */
2 1 1 1 0 95 0 0 0 43 0 78 0 0 0 3 0 3 17 3 8 23 
CALL[ ]	/* CallFunction */";
};
width = 240;
}
);
metricLeft = H;
metricRight = H;
note = bar;
unicode = 124;
userData = {
KernOnSpecialSpacing = {
L = NoKerning;
R = NoKerning;
};
};
},
{
glyphname = brokenbar;
lastChange = "2024-08-16 04:03:22 +0000";
layers = (
{
layerId = m002;
shapes = (
{
closed = 1;
nodes = (
(192,408,l),
(192,810,l),
(74,810,l),
(74,408,l)
);
},
{
closed = 1;
nodes = (
(192,-178,l),
(192,216,l),
(74,216,l),
(74,-178,l)
);
}
);
userData = {
assembly = "NPUSHB[ ]	/* 39 values pushed */
0 0 4 1 1 2 0 1 103 0 2 2 3 95 5 1 3 3 43 3 78 4 4 0 0 4 7 4 7 6 5 0 3 0 3 17 6 8 23 
CALL[ ]	/* CallFunction */";
};
width = 266;
},
{
associatedMasterId = m002;
layerId = m003;
shapes = (
{
closed = 1;
nodes = (
(163,408,l),
(163,810,l),
(97,810,l),
(97,408,l)
);
},
{
closed = 1;
nodes = (
(163,-178,l),
(163,216,l),
(97,216,l),
(97,-178,l)
);
}
);
userData = {
assembly = "NPUSHB[ ]	/* 39 values pushed */
0 0 4 1 1 2 0 1 103 0 2 2 3 95 5 1 3 3 43 3 78 4 4 0 0 4 7 4 7 6 5 0 3 0 3 17 6 8 23 
CALL[ ]	/* CallFunction */";
};
width = 260;
},
{
associatedMasterId = m002;
layerId = m004;
shapes = (
{
closed = 1;
nodes = (
(136,408,l),
(136,810,l),
(103,810,l),
(103,408,l)
);
},
{
closed = 1;
nodes = (
(136,-178,l),
(136,216,l),
(103,216,l),
(103,-178,l)
);
}
);
userData = {
assembly = "NPUSHB[ ]	/* 39 values pushed */
0 0 4 1 1 2 0 1 103 0 2 2 3 95 5 1 3 3 43 3 78 4 4 0 0 4 7 4 7 6 5 0 3 0 3 17 6 8 23 
CALL[ ]	/* CallFunction */";
};
width = 240;
}
);
metricLeft = H;
metricRight = H;
note = brokenbar;
unicode = 166;
userData = {
KernOnSpecialSpacing = {
L = NoKerning;
R = NoKerning;
};
};
},
{
glyphname = cent;
lastChange = "2024-08-16 04:03:22 +0000";
layers = (
{
layerId = m002;
shapes = (
{
ref = c;
},
{
closed = 1;
nodes = (
(365,-131,l),
(365,10,l),
(235,10,l),
(235,-131,l)
);
},
{
closed = 1;
nodes = (
(365,519,l),
(365,683,l),
(235,683,l),
(235,519,l)
);
}
);
userData = {
assembly = "NPUSHB[ ]	/* 92 values pushed */
0 7 1 6 1 7 6 128 0 6 9 1 6 9 126 0 9 8 1 9 8 126 0 8 2 1 8 2 126 0 0 10 1 1 7 0 1 103 0 2 11 1 3 2 3 99 0 5 5 49 77 12 1 4 4 47 4 78 9 8 4 4 0 0 36 35 33 31 25 23 21 20 17 15 8 39 9 39 4 7 4 7 6 5 0 3 0 3 17 13 8 23 
CALL[ ]	/* CallFunction */";
};
width = 582;
},
{
associatedMasterId = m002;
background = {
shapes = (
{
closed = 1;
nodes = (
(472,-12,o),
(576,80,o),
(590,220,c),
(434,220,l),
(426,167,o),
(380,127,o),
(319,127,cs),
(242,127,o),
(186,190,o),
(186,290,cs),
(186,392,o),
(242,452,o),
(319,452,cs),
(376,452,o),
(419,410,o),
(427,354,c),
(580,354,l),
(572,501,o),
(465,591,o),
(319,591,cs),
(144,591,o),
(31,474,o),
(31,290,cs),
(31,101,o),
(149,-12,o),
(319,-12,cs)
);
},
{
closed = 1;
nodes = (
(377,-141,l),
(377,0,l),
(247,0,l),
(247,-141,l)
);
},
{
closed = 1;
nodes = (
(377,579,l),
(377,713,l),
(247,713,l),
(247,579,l)
);
}
);
};
layerId = m003;
shapes = (
{
ref = c;
},
{
closed = 1;
nodes = (
(332,-143,l),
(332,-2,l),
(266,-2,l),
(266,-143,l)
);
},
{
closed = 1;
nodes = (
(335,529,l),
(335,693,l),
(265,693,l),
(265,529,l)
);
}
);
userData = {
assembly = "NPUSHB[ ]	/* 92 values pushed */
0 7 1 6 1 7 6 128 0 6 9 1 6 9 126 0 9 8 1 9 8 126 0 8 2 1 8 2 126 0 0 10 1 1 7 0 1 103 0 2 11 1 3 2 3 99 0 5 5 49 77 12 1 4 4 47 4 78 9 8 4 4 0 0 36 35 33 31 25 23 21 20 17 15 8 39 9 39 4 7 4 7 6 5 0 3 0 3 17 13 8 23 
CALL[ ]	/* CallFunction */";
};
width = 546;
},
{
associatedMasterId = m002;
background = {
shapes = (
{
closed = 1;
nodes = (
(472,-12,o),
(576,80,o),
(590,220,c),
(434,220,l),
(426,167,o),
(380,127,o),
(319,127,cs),
(242,127,o),
(186,190,o),
(186,290,cs),
(186,392,o),
(242,452,o),
(319,452,cs),
(376,452,o),
(419,410,o),
(427,354,c),
(580,354,l),
(572,501,o),
(465,591,o),
(319,591,cs),
(144,591,o),
(31,474,o),
(31,290,cs),
(31,101,o),
(149,-12,o),
(319,-12,cs)
);
},
{
closed = 1;
nodes = (
(377,-141,l),
(377,0,l),
(247,0,l),
(247,-141,l)
);
},
{
closed = 1;
nodes = (
(377,579,l),
(377,713,l),
(247,713,l),
(247,579,l)
);
}
);
};
layerId = m004;
shapes = (
{
ref = c;
},
{
closed = 1;
nodes = (
(316,-151,l),
(316,-10,l),
(275,-10,l),
(275,-151,l)
);
},
{
closed = 1;
nodes = (
(315,539,l),
(315,703,l),
(275,703,l),
(275,539,l)
);
}
);
userData = {
assembly = "NPUSHB[ ]	/* 92 values pushed */
0 7 1 6 1 7 6 128 0 6 9 1 6 9 126 0 9 8 1 9 8 126 0 8 2 1 8 2 126 0 0 10 1 1 7 0 1 103 0 2 11 1 3 2 3 99 0 5 5 49 77 12 1 4 4 47 4 78 9 8 4 4 0 0 36 35 33 31 25 23 21 20 17 15 8 39 9 39 4 7 4 7 6 5 0 3 0 3 17 13 8 23 
CALL[ ]	/* CallFunction */";
};
width = 545;
}
);
metricLeft = c;
metricRight = c;
note = cent;
unicode = 162;
userData = {
KernOnSpecialSpacing = {
L = symbols;
R = symbols;
};
};
},
{
glyphname = dollar;
kernLeft = KO_dollar;
lastChange = "2024-08-16 04:03:22 +0000";
layers = (
{
layerId = m002;
shapes = (
{
ref = S;
},
{
closed = 1;
nodes = (
(414,-141,l),
(414,0,l),
(284,0,l),
(284,-141,l)
);
},
{
closed = 1;
nodes = (
(414,719,l),
(414,883,l),
(284,883,l),
(284,719,l)
);
}
);
userData = {
assembly = "NPUSHB[ ]	/* 83 values pushed */
0 12 13 9 13 12 9 128 0 9 10 13 9 10 126 4 1 0 5 1 1 13 0 1 103 6 1 2 7 1 3 2 3 99 0 13 13 11 97 0 11 11 46 77 0 10 10 8 97 14 1 8 8 47 8 78 17 16 51 49 46 45 42 40 26 24 21 20 16 64 17 64 17 17 17 17 17 17 17 16 15 8 30 
CALL[ ]	/* CallFunction */";
};
width = 691;
},
{
associatedMasterId = m002;
background = {
shapes = (
{
closed = 1;
nodes = (
(517,-12,o),
(629,89,o),
(629,228,cs),
(629,348,o),
(566,410,o),
(494,435,cs),
(458,448,o),
(412,459,o),
(356,468,cs),
(289,480,o),
(254,488,o),
(230,509,cs),
(217,520,o),
(211,534,o),
(211,551,cs),
(211,592,o),
(253,620,o),
(317,620,cs),
(401,620,o),
(460,572,o),
(468,514,c),
(638,514,l),
(626,654,o),
(496,760,o),
(333,760,cs),
(160,760,o),
(48,665,o),
(48,542,cs),
(48,431,o),
(104,374,o),
(172,350,cs),
(206,338,o),
(250,327,o),
(305,318,cs),
(380,303,o),
(417,296,o),
(445,270,cs),
(459,257,o),
(466,239,o),
(466,216,cs),
(466,172,o),
(416,133,o),
(351,133,cs),
(263,133,o),
(195,191,o),
(187,274,c),
(23,274,l),
(27,111,o),
(162,-12,o),
(340,-12,cs)
);
},
{
closed = 1;
nodes = (
(299,-141,l),
(299,27,l),
(205,27,l),
(205,-141,l)
);
},
{
closed = 1;
nodes = (
(467,-141,l),
(467,26,l),
(374,26,l),
(374,-141,l)
);
},
{
closed = 1;
nodes = (
(299,722,l),
(299,882,l),
(205,882,l),
(205,722,l)
);
},
{
closed = 1;
nodes = (
(467,721,l),
(467,882,l),
(374,882,l),
(374,721,l)
);
}
);
};
layerId = m003;
shapes = (
{
ref = S;
},
{
closed = 1;
nodes = (
(370,-139,l),
(370,2,l),
(304,2,l),
(304,-139,l)
);
},
{
closed = 1;
nodes = (
(375,739,l),
(375,903,l),
(305,903,l),
(305,739,l)
);
}
);
userData = {
assembly = "NPUSHB[ ]	/* 83 values pushed */
0 12 13 9 13 12 9 128 0 9 10 13 9 10 126 4 1 0 5 1 1 13 0 1 103 6 1 2 7 1 3 2 3 99 0 13 13 11 97 0 11 11 46 77 0 10 10 8 97 14 1 8 8 47 8 78 17 16 51 49 46 45 42 40 26 24 21 20 16 64 17 64 17 17 17 17 17 17 17 16 15 8 30 
CALL[ ]	/* CallFunction */";
};
width = 671;
},
{
associatedMasterId = m002;
background = {
shapes = (
{
closed = 1;
nodes = (
(517,-12,o),
(629,89,o),
(629,228,cs),
(629,348,o),
(566,410,o),
(494,435,cs),
(458,448,o),
(412,459,o),
(356,468,cs),
(289,480,o),
(254,488,o),
(230,509,cs),
(217,520,o),
(211,534,o),
(211,551,cs),
(211,592,o),
(253,620,o),
(317,620,cs),
(401,620,o),
(460,572,o),
(468,514,c),
(638,514,l),
(626,654,o),
(496,760,o),
(333,760,cs),
(160,760,o),
(48,665,o),
(48,542,cs),
(48,431,o),
(104,374,o),
(172,350,cs),
(206,338,o),
(250,327,o),
(305,318,cs),
(380,303,o),
(417,296,o),
(445,270,cs),
(459,257,o),
(466,239,o),
(466,216,cs),
(466,172,o),
(416,133,o),
(351,133,cs),
(263,133,o),
(195,191,o),
(187,274,c),
(23,274,l),
(27,111,o),
(162,-12,o),
(340,-12,cs)
);
},
{
closed = 1;
nodes = (
(299,-141,l),
(299,27,l),
(205,27,l),
(205,-141,l)
);
},
{
closed = 1;
nodes = (
(467,-141,l),
(467,26,l),
(374,26,l),
(374,-141,l)
);
},
{
closed = 1;
nodes = (
(299,722,l),
(299,882,l),
(205,882,l),
(205,722,l)
);
},
{
closed = 1;
nodes = (
(467,721,l),
(467,882,l),
(374,882,l),
(374,721,l)
);
}
);
};
layerId = m004;
shapes = (
{
ref = S;
},
{
closed = 1;
nodes = (
(346,-131,l),
(346,10,l),
(305,10,l),
(305,-131,l)
);
},
{
closed = 1;
nodes = (
(345,729,l),
(345,893,l),
(305,893,l),
(305,729,l)
);
}
);
userData = {
assembly = "NPUSHB[ ]	/* 83 values pushed */
0 12 13 9 13 12 9 128 0 9 10 13 9 10 126 4 1 0 5 1 1 13 0 1 103 6 1 2 7 1 3 2 3 99 0 13 13 11 97 0 11 11 46 77 0 10 10 8 97 14 1 8 8 47 8 78 17 16 51 49 46 45 42 40 26 24 21 20 16 64 17 64 17 17 17 17 17 17 17 16 15 8 30 
CALL[ ]	/* CallFunction */";
};
width = 656;
}
);
metricLeft = S;
metricRight = S;
note = dollar;
unicode = 36;
userData = {
KernOnName = dollar;
KernOnSpecialSpacing = {
L = symbols;
R = symbols;
};
};
},
